<svg xmlns="http://www.w3.org/2000/svg" xmlns:xlink="http://www.w3.org/1999/xlink" contentStyleType="text/css" height="620.8333px" preserveAspectRatio="none" style="width:526px;height:620px;" version="1.1" viewBox="0 0 526 620" width="526.0417px" zoomAndPan="magnify"><defs><linearGradient id="g1khxmctirxqhm0" x1="50%" x2="50%" y1="0%" y2="100%"><stop offset="0%" stop-color="#7C9AB9"/><stop offset="100%" stop-color="#304D6D"/></linearGradient></defs><g><ellipse cx="432.25" cy="399" fill="#3399F3" rx="10.4167" ry="10.4167" style="stroke:#304D6D;stroke-width:1.0416666666666667;"/><g id="ReadInputs"><rect fill="url(#g1khxmctirxqhm0)" height="81.6813" rx="4.1667" ry="4.1667" style="stroke:#304D6D;stroke-width:1.0416666666666667;" width="155.2663" x="254.6146" y="528.3854"/><line style="stroke:#304D6D;stroke-width:1.0416666666666667;" x1="254.6146" x2="409.8809" y1="562.557" y2="562.557"/><text fill="#FFFFFF" font-family="Verdana" font-size="11.4583" lengthAdjust="spacing" textLength="64.9455" x="299.775" y="549.438">ReadInputs</text><text fill="#FFFFFF" font-family="Verdana" font-size="11.4583" lengthAdjust="spacing" textLength="87.2747" x="265.0313" y="583.6095">Set Alarm false</text><text fill="#FFFFFF" font-family="Verdana" font-size="11.4583" lengthAdjust="spacing" textLength="124.0163" x="265.0313" y="596.9477">Set WaitTime = 0 sec</text></g><g id="PRG1_IDLE"><rect fill="url(#g1khxmctirxqhm0)" height="81.6813" rx="4.1667" ry="4.1667" style="stroke:#304D6D;stroke-width:1.0416666666666667;" width="142.0288" x="163.3125" y="17.7083"/><line style="stroke:#304D6D;stroke-width:1.0416666666666667;" x1="163.3125" x2="305.3413" y1="51.8799" y2="51.8799"/><text fill="#FFFFFF" font-family="Verdana" font-size="11.4583" lengthAdjust="spacing" textLength="62.5956" x="203.0291" y="38.7609">PRG1_IDLE</text><text fill="#FFFFFF" font-family="Verdana" font-size="11.4583" lengthAdjust="spacing" textLength="84.3765" x="173.7292" y="72.9324">Wait for object</text><text fill="#FFFFFF" font-family="Verdana" font-size="11.4583" lengthAdjust="spacing" textLength="110.7788" x="173.7292" y="86.2707">Count up idle timer</text></g><g id="ObjectDetected"><rect fill="url(#g1khxmctirxqhm0)" height="81.6813" rx="4.1667" ry="4.1667" style="stroke:#304D6D;stroke-width:1.0416666666666667;" width="144.5185" x="158.9479" y="187.9375"/><line style="stroke:#304D6D;stroke-width:1.0416666666666667;" x1="158.9479" x2="303.4665" y1="222.109" y2="222.109"/><text fill="#FFFFFF" font-family="Verdana" font-size="11.4583" lengthAdjust="spacing" textLength="89.8483" x="186.283" y="208.9901">ObjectDetected</text><text fill="#FFFFFF" font-family="Verdana" font-size="11.4583" lengthAdjust="spacing" textLength="88.7461" x="169.3646" y="243.1616">Reset wachttijd</text><text fill="#FFFFFF" font-family="Verdana" font-size="11.4583" lengthAdjust="spacing" textLength="113.2685" x="169.3646" y="256.4998">Alarmstatus = false</text></g><g id="ALARM"><rect fill="url(#g1khxmctirxqhm0)" height="55.0049" rx="4.1667" ry="4.1667" style="stroke:#304D6D;stroke-width:1.0416666666666667;" width="71.1583" x="34.1667" y="201.2708"/><line style="stroke:#304D6D;stroke-width:1.0416666666666667;" x1="34.1667" x2="105.325" y1="235.4424" y2="235.4424"/><text fill="#FFFFFF" font-family="Verdana" font-size="11.4583" lengthAdjust="spacing" textLength="39.9083" x="49.7917" y="222.3234">ALARM</text></g><g id="Outputs"><rect fill="url(#g1khxmctirxqhm0)" height="81.6813" rx="4.1667" ry="4.1667" style="stroke:#304D6D;stroke-width:1.0416666666666667;" width="164.9287" x="146.6563" y="358.1562"/><line style="stroke:#304D6D;stroke-width:1.0416666666666667;" x1="146.6563" x2="311.5849" y1="392.3278" y2="392.3278"/><text fill="#FFFFFF" font-family="Verdana" font-size="11.4583" lengthAdjust="spacing" textLength="45.7718" x="206.2347" y="379.2088">Outputs</text><text fill="#FFFFFF" font-family="Verdana" font-size="11.4583" lengthAdjust="spacing" textLength="130.277" x="157.0729" y="413.3804">Write GVL Alarmstatus</text><text fill="#FFFFFF" font-family="Verdana" font-size="11.4583" lengthAdjust="spacing" textLength="133.6787" x="157.0729" y="426.7186">Write GVL Objectstatus</text></g><!--link *start* to ReadInputs--><g id="link_*start*_ReadInputs"><path d="M429.4063,409.3125 C423.7292,427.1146 409.9375,467 391.625,497.1354 C385.1875,507.7083 381.2227,513.5206 373.2643,523.229 " fill="none" id="*start*-to-ReadInputs" style="stroke:#446E9B;stroke-width:3.125;"/><polygon fill="#446E9B" points="369.3021,528.0625,378.4678,523.4537,372.604,524.0346,372.0231,518.1707,369.3021,528.0625" style="stroke:#446E9B;stroke-width:3.125;"/><text fill="#FFFFFF" font-family="Verdana" font-size="12.5" lengthAdjust="spacing" textLength="96.7468" x="411.4271" y="488.9465">System Started</text></g><!--link ReadInputs to PRG1_IDLE--><g id="link_ReadInputs_PRG1_IDLE"><path d="M345.8333,527.9896 C370.6354,447.0417 414.4896,261.0313 343.7083,130.6458 C335.0104,114.625 326.1454,105.1583 310.9788,94.8979 " fill="none" id="ReadInputs-to-PRG1_IDLE" style="stroke:#446E9B;stroke-width:3.125;"/><polygon fill="#446E9B" points="305.8021,91.3958,311.2324,100.1001,310.116,94.3142,315.9018,93.1978,305.8021,91.3958" style="stroke:#446E9B;stroke-width:3.125;"/><text fill="#FFFFFF" font-family="Verdana" font-size="12.5" lengthAdjust="spacing" textLength="103.54" x="388.4271" y="318.7174">PRG1 in status 1</text></g><!--link PRG1_IDLE to ObjectDetected--><g id="link_PRG1_IDLE_ObjectDetected"><path d="M233.0208,99.7917 C232.7292,109.8646 232.4479,120.6458 232.25,130.6458 C231.875,149.3542 231.6808,163.844 231.5246,181.3336 " fill="none" id="PRG1_IDLE-to-ObjectDetected" style="stroke:#446E9B;stroke-width:3.125;"/><polygon fill="#446E9B" points="231.4688,187.5833,235.719,178.2459,231.5153,182.3752,227.386,178.1715,231.4688,187.5833" style="stroke:#446E9B;stroke-width:3.125;"/><text fill="#FFFFFF" font-family="Verdana" font-size="12.5" lengthAdjust="spacing" textLength="95.1111" x="238.5" y="148.4986">LS_001 is HIGH</text></g><!--link PRG1_IDLE to ALARM--><g id="link_PRG1_IDLE_ALARM"><path d="M162.8021,85.1771 C140.4063,96.1979 117.3125,111.125 101,130.6458 C84.3021,150.6146 77.5426,173.5078 73.8968,194.6224 " fill="none" id="PRG1_IDLE-to-ALARM" style="stroke:#446E9B;stroke-width:3.125;"/><polygon fill="#446E9B" points="72.8333,200.7812,78.5344,192.2519,73.7195,195.6489,70.3226,190.834,72.8333,200.7812" style="stroke:#446E9B;stroke-width:3.125;"/><text fill="#FFFFFF" font-family="Verdana" font-size="12.5" lengthAdjust="spacing" textLength="110.4187" x="107.25" y="148.4986">Wait time expires</text></g><!--link ALARM to ReadInputs--><g id="link_ALARM_ReadInputs"><path d="M58.0521,256.5208 C41.3958,299.0104 16.6667,383.0208 53.0833,439.8438 C97.0417,508.4375 181.8422,539.4826 247.9985,554.4826 " fill="none" id="ALARM-to-ReadInputs" style="stroke:#446E9B;stroke-width:3.125;"/><polygon fill="#446E9B" points="254.0938,555.8646,245.8722,549.728,249.0143,554.7129,244.0295,557.8551,254.0938,555.8646" style="stroke:#446E9B;stroke-width:3.125;"/><text fill="#FFFFFF" font-family="Verdana" font-size="12.5" lengthAdjust="spacing" textLength="36.9995" x="72.1721" y="396.5403">Alarm</text><text fill="#FFFFFF" font-family="Verdana" font-size="12.5" lengthAdjust="spacing" textLength="62.677" x="59.3333" y="411.0911">resetknop</text></g><!--link ALARM to Outputs--><g id="link_ALARM_Outputs"><path d="M95,256.4583 C120.8021,283.6875 156.8984,321.7659 186.6171,353.1201 " fill="none" id="ALARM-to-Outputs" style="stroke:#446E9B;stroke-width:3.125;"/><polygon fill="#446E9B" points="190.9167,357.6563,187.4915,347.9857,187.3337,353.8761,181.4433,353.7184,190.9167,357.6563" style="stroke:#446E9B;stroke-width:3.125;"/></g><!--link ObjectDetected to Outputs--><g id="link_ObjectDetected_Outputs"><path d="M230.7083,270.0938 C230.375,296.6146 230.0265,324.9588 229.6932,351.4692 " fill="none" id="ObjectDetected-to-Outputs" style="stroke:#446E9B;stroke-width:3.125;"/><polygon fill="#446E9B" points="229.6146,357.7188,233.8988,348.3969,229.6801,352.5108,225.5661,348.2921,229.6146,357.7188" style="stroke:#446E9B;stroke-width:3.125;"/></g><!--link Outputs to ReadInputs--><g id="link_Outputs_ReadInputs"><path d="M253.8229,440.3125 C270.0938,466.8333 288.0337,496.0998 304.3045,522.6206 " fill="none" id="Outputs-to-ReadInputs" style="stroke:#446E9B;stroke-width:3.125;"/><polygon fill="#446E9B" points="307.5729,527.9479,306.2219,517.778,304.8493,523.5085,299.1188,522.1359,307.5729,527.9479" style="stroke:#446E9B;stroke-width:3.125;"/></g><!--SRC=[TP9RQy9048NVvrTCNmk2lXOKf1OLKbfYQH_Q8ciorjLa4tOds2B-z-x5opRMF6mIvikSEMTomoig2KqjCYh4ehDTIIOm6wbgeKM92v5jldJLg3ohYaeZQw4ih4anmFlj9tOw0qn9v5DLDspm3cS_Xgd46GlDb4DKS-XpEkxDfwFamPBk6QL2mu8RWpqu5ntwj5XJnYDYUr9k-MGsxtRj5mOdq_4afWSuJ8RfesNUX6HaQItHToqr6G08jVQSmqBeyaDPX7YZglg8EUM67GIj2VwKmhrb7y3QPeg5Te3O2eWuYEDI58R-hJiRByv57xjeA8FziVN9jM-C_eX3zG4ixQOgF_n5_Txkah6fKUO5-QJqkNdBS91mryKkKXSRRaMsOfRh_3hedHust3yuFkc5o7VH08TOW_BnpRhIzhV4yMiIzxlAX24Yo2Ur_mK0]--></g></svg>