<svg xmlns="http://www.w3.org/2000/svg" xmlns:xlink="http://www.w3.org/1999/xlink" contentStyleType="text/css" height="820.8333px" preserveAspectRatio="none" style="width:969px;height:820px;" version="1.1" viewBox="0 0 969 820" width="969.7917px" zoomAndPan="magnify"><defs><linearGradient id="g1ant0skbmizdm0" x1="50%" x2="50%" y1="0%" y2="100%"><stop offset="0%" stop-color="#B8B8B8"/><stop offset="100%" stop-color="#6B6B6B"/></linearGradient><linearGradient id="g1ant0skbmizdm1" x1="50%" x2="50%" y1="0%" y2="100%"><stop offset="0%" stop-color="#7C9AB9"/><stop offset="100%" stop-color="#304D6D"/></linearGradient><linearGradient id="g1ant0skbmizdm2" x1="50%" x2="50%" y1="0%" y2="100%"><stop offset="0%" stop-color="#6B6B6B"/><stop offset="100%" stop-color="#6B6B6B"/></linearGradient></defs><g><rect fill="url(#g1ant0skbmizdm0)" height="312.1745" rx="4.1667" ry="4.1667" style="stroke:#446E9B;stroke-width:1.0416666666666667;" width="807.0658" x="151.1597" y="274.8372"/><path d="M151.1597,390.332 L958.2255,390.332 L958.2255,582.8451 A4.1667,4.1667 0 0 1 954.0588,587.0117 L155.3263,587.0117 A4.1667,4.1667 0 0 1 151.1597,582.8451 L151.1597,390.332 " fill="url(#g1ant0skbmizdm0)" style="stroke:none;stroke-width:1.0416666666666667;"/><rect fill="url(#g1ant0skbmizdm0)" height="115.4948" rx="4.1667" ry="4.1667" style="stroke:#446E9B;stroke-width:1.0416666666666667;" width="786.2325" x="161.5763" y="464.2253"/><line style="stroke:#999999;stroke-width:1.0416666666666667;stroke-dasharray:5.0,5.0;" x1="51.0417" x2="51.0417" y1="98.9258" y2="723.3724"/><line style="stroke:#999999;stroke-width:1.0416666666666667;stroke-dasharray:5.0,5.0;" x1="309.493" x2="309.493" y1="98.9258" y2="723.3724"/><line style="stroke:#999999;stroke-width:1.0416666666666667;stroke-dasharray:5.0,5.0;" x1="582.8837" x2="582.8837" y1="98.9258" y2="723.3724"/><line style="stroke:#999999;stroke-width:1.0416666666666667;stroke-dasharray:5.0,5.0;" x1="831.2846" x2="831.2846" y1="98.9258" y2="723.3724"/><text fill="#FFFFFF" font-family="Verdana" font-size="12.5" lengthAdjust="spacing" textLength="55.9509" x="20.8333" y="90.7694">Operator</text><ellipse cx="51.9338" cy="19.7917" fill="url(#g1ant0skbmizdm1)" rx="8.3333" ry="8.3333" style="stroke:#304D6D;stroke-width:1.0416666666666667;"/><path d="M51.9338,28.125 L51.9338,56.25 M38.3921,36.4583 L65.4755,36.4583 M51.9338,56.25 L38.3921,71.875 M51.9338,56.25 L65.4755,71.875 " fill="none" style="stroke:#304D6D;stroke-width:1.0416666666666667;"/><text fill="#FFFFFF" font-family="Verdana" font-size="12.5" lengthAdjust="spacing" textLength="55.9509" x="20.8333" y="739.1418">Operator</text><ellipse cx="51.9338" cy="756.6732" fill="url(#g1ant0skbmizdm1)" rx="8.3333" ry="8.3333" style="stroke:#304D6D;stroke-width:1.0416666666666667;"/><path d="M51.9338,765.0065 L51.9338,793.1315 M38.3921,773.3398 L65.4755,773.3398 M51.9338,793.1315 L38.3921,808.7565 M51.9338,793.1315 L65.4755,808.7565 " fill="none" style="stroke:#304D6D;stroke-width:1.0416666666666667;"/><rect fill="url(#g1ant0skbmizdm1)" height="39.5508" rx="4.1667" ry="4.1667" style="stroke:#304D6D;stroke-width:1.0416666666666667;" width="193.1824" x="213.6597" y="58.3333"/><text fill="#FFFFFF" font-family="Verdana" font-size="12.5" lengthAdjust="spacing" textLength="168.1824" x="226.1597" y="82.4361">PRG1_Conveyer_Operation</text><rect fill="url(#g1ant0skbmizdm1)" height="39.5508" rx="4.1667" ry="4.1667" style="stroke:#304D6D;stroke-width:1.0416666666666667;" width="193.1824" x="213.6597" y="722.3307"/><text fill="#FFFFFF" font-family="Verdana" font-size="12.5" lengthAdjust="spacing" textLength="168.1824" x="226.1597" y="746.4335">PRG1_Conveyer_Operation</text><rect fill="url(#g1ant0skbmizdm1)" height="39.5508" rx="4.1667" ry="4.1667" style="stroke:#304D6D;stroke-width:1.0416666666666667;" width="164.917" x="500.592" y="58.3333"/><text fill="#FFFFFF" font-family="Verdana" font-size="12.5" lengthAdjust="spacing" textLength="139.917" x="513.092" y="82.4361">PRG2_Object_Detectie</text><rect fill="url(#g1ant0skbmizdm1)" height="39.5508" rx="4.1667" ry="4.1667" style="stroke:#304D6D;stroke-width:1.0416666666666667;" width="164.917" x="500.592" y="722.3307"/><text fill="#FFFFFF" font-family="Verdana" font-size="12.5" lengthAdjust="spacing" textLength="139.917" x="513.092" y="746.4335">PRG2_Object_Detectie</text><rect fill="url(#g1ant0skbmizdm1)" height="39.5508" rx="4.1667" ry="4.1667" style="stroke:#304D6D;stroke-width:1.0416666666666667;" width="126.9409" x="768.7846" y="58.3333"/><text fill="#FFFFFF" font-family="Verdana" font-size="12.5" lengthAdjust="spacing" textLength="101.9409" x="781.2846" y="82.4361">Global Variables</text><rect fill="url(#g1ant0skbmizdm1)" height="39.5508" rx="4.1667" ry="4.1667" style="stroke:#304D6D;stroke-width:1.0416666666666667;" width="126.9409" x="768.7846" y="722.3307"/><text fill="#FFFFFF" font-family="Verdana" font-size="12.5" lengthAdjust="spacing" textLength="101.9409" x="781.2846" y="746.4335">Global Variables</text><polygon fill="#446E9B" points="297.7509,136.3932,308.1675,140.5599,297.7509,144.7266,301.9175,140.5599" style="stroke:#446E9B;stroke-width:1.0416666666666667;"/><line style="stroke:#446E9B;stroke-width:3.125;" x1="51.9338" x2="304.0009" y1="140.5599" y2="140.5599"/><text fill="#FFFFFF" font-family="Verdana" font-size="12.5" lengthAdjust="spacing" textLength="127.8625" x="64.4338" y="130.3202">Press KN_001 (start)</text><polygon fill="#446E9B" points="819.755,175.944,830.1717,180.1107,819.755,184.2773,823.9217,180.1107" style="stroke:#446E9B;stroke-width:1.0416666666666667;"/><line style="stroke:#446E9B;stroke-width:3.125;" x1="310.2509" x2="826.005" y1="180.1107" y2="180.1107"/><text fill="#FFFFFF" font-family="Verdana" font-size="12.5" lengthAdjust="spacing" textLength="153.1128" x="322.7509" y="169.871">Set PRG1_Status to IDLE</text><polygon fill="#446E9B" points="570.5505,215.4948,580.9672,219.6615,570.5505,223.8281,574.7172,219.6615" style="stroke:#446E9B;stroke-width:1.0416666666666667;"/><line style="stroke:#446E9B;stroke-width:3.125;" x1="310.2509" x2="576.8005" y1="219.6615" y2="219.6615"/><text fill="#FFFFFF" font-family="Verdana" font-size="12.5" lengthAdjust="spacing" textLength="206.5674" x="322.7509" y="209.4218">Check Object Detection (LS_001)</text><polygon fill="#446E9B" points="819.755,255.0456,830.1717,259.2122,819.755,263.3789,823.9217,259.2122" style="stroke:#446E9B;stroke-width:1.0416666666666667;"/><line style="stroke:#446E9B;stroke-width:3.125;" x1="583.0505" x2="826.005" y1="259.2122" y2="259.2122"/><text fill="#FFFFFF" font-family="Verdana" font-size="12.5" lengthAdjust="spacing" textLength="213.7878" x="595.5505" y="248.9726">Wait for LS_001 (object detection)</text><path d="M155.3263,274.8372 L227.1464,274.8372 L227.1464,291.4714 L216.7297,301.888 L151.1597,301.888 L151.1597,279.0039 A4.1667,4.1667 0 0 1 155.3263,274.8372 " fill="url(#g1ant0skbmizdm2)" style="stroke:#333333;stroke-width:1.0416666666666667;"/><rect fill="none" height="312.1745" rx="4.1667" ry="4.1667" style="stroke:#446E9B;stroke-width:1.0416666666666667;" width="807.0658" x="151.1597" y="274.8372"/><text fill="#3399F3" font-family="Verdana" font-size="12.5" font-weight="bold" lengthAdjust="spacing" textLength="18.6951" x="171.993" y="292.69">alt</text><text fill="#333333" font-family="Verdana" font-size="12.5" font-weight="bold" lengthAdjust="spacing" textLength="124.1882" x="247.9797" y="293.7317">[Object detected]</text><polygon fill="#446E9B" points="819.755,338.2813,830.1717,342.4479,819.755,346.6146,823.9217,342.4479" style="stroke:#446E9B;stroke-width:1.0416666666666667;"/><line style="stroke:#446E9B;stroke-width:3.125;" x1="583.0505" x2="826.005" y1="342.4479" y2="342.4479"/><text fill="#FFFFFF" font-family="Verdana" font-size="12.5" lengthAdjust="spacing" textLength="98.9502" x="595.5505" y="332.2083">Reset Wachttijd</text><polygon fill="#446E9B" points="321.7092,377.832,311.2925,381.9987,321.7092,386.1654,317.5425,381.9987" style="stroke:#446E9B;stroke-width:1.0416666666666667;"/><line style="stroke:#446E9B;stroke-width:3.125;" x1="315.4592" x2="582.0089" y1="381.9987" y2="381.9987"/><text fill="#FFFFFF" font-family="Verdana" font-size="12.5" lengthAdjust="spacing" textLength="181.8848" x="333.1675" y="371.759">Continue conveyor operation</text><line style="stroke:#446E9B;stroke-width:1.0416666666666667;stroke-dasharray:2.0,2.0;" x1="151.1597" x2="958.2255" y1="391.3737" y2="391.3737"/><text fill="#333333" font-family="Verdana" font-size="12.5" font-weight="bold" lengthAdjust="spacing" textLength="145.5505" x="161.5763" y="408.1848">[No object detected]</text><polygon fill="#446E9B" points="819.755,444.4336,830.1717,448.6003,819.755,452.7669,823.9217,448.6003" style="stroke:#446E9B;stroke-width:1.0416666666666667;"/><line style="stroke:#446E9B;stroke-width:3.125;" x1="583.0505" x2="826.005" y1="448.6003" y2="448.6003"/><text fill="#FFFFFF" font-family="Verdana" font-size="12.5" lengthAdjust="spacing" textLength="116.449" x="595.5505" y="438.3606">Countup Wachttijd</text><path d="M165.743,464.2253 L237.5631,464.2253 L237.5631,480.8594 L227.1464,491.276 L161.5763,491.276 L161.5763,468.3919 A4.1667,4.1667 0 0 1 165.743,464.2253 " fill="url(#g1ant0skbmizdm2)" style="stroke:#333333;stroke-width:1.0416666666666667;"/><rect fill="none" height="115.4948" rx="4.1667" ry="4.1667" style="stroke:#446E9B;stroke-width:1.0416666666666667;" width="786.2325" x="161.5763" y="464.2253"/><text fill="#3399F3" font-family="Verdana" font-size="12.5" font-weight="bold" lengthAdjust="spacing" textLength="18.6951" x="182.4097" y="482.078">alt</text><text fill="#333333" font-family="Verdana" font-size="12.5" font-weight="bold" lengthAdjust="spacing" textLength="206.012" x="258.3964" y="483.1197">[Wachttijd &gt;= MaxWachttijd]</text><polygon fill="#446E9B" points="819.755,527.6693,830.1717,531.8359,819.755,536.0026,823.9217,531.8359" style="stroke:#446E9B;stroke-width:1.0416666666666667;"/><line style="stroke:#446E9B;stroke-width:3.125;" x1="583.0505" x2="826.005" y1="531.8359" y2="531.8359"/><text fill="#FFFFFF" font-family="Verdana" font-size="12.5" lengthAdjust="spacing" textLength="155.1941" x="595.5505" y="521.5963">Set AlarmStatus to TRUE</text><polygon fill="#446E9B" points="321.7092,567.2201,311.2925,571.3867,321.7092,575.5534,317.5425,571.3867" style="stroke:#446E9B;stroke-width:1.0416666666666667;"/><line style="stroke:#446E9B;stroke-width:3.125;" x1="315.4592" x2="582.0089" y1="571.3867" y2="571.3867"/><text fill="#FFFFFF" font-family="Verdana" font-size="12.5" lengthAdjust="spacing" textLength="164.4287" x="333.1675" y="561.1471">Set PRG1_Status to FAULT</text><polygon fill="#446E9B" points="297.7509,621.3542,308.1675,625.5208,297.7509,629.6875,301.9175,625.5208" style="stroke:#446E9B;stroke-width:1.0416666666666667;"/><line style="stroke:#446E9B;stroke-width:3.125;" x1="51.9338" x2="304.0009" y1="625.5208" y2="625.5208"/><text fill="#FFFFFF" font-family="Verdana" font-size="12.5" lengthAdjust="spacing" textLength="222.9004" x="64.4338" y="615.2812">Press KN_002 (Acknowledge Alarm)</text><polygon fill="#446E9B" points="819.755,660.9049,830.1717,665.0716,819.755,669.2383,823.9217,665.0716" style="stroke:#446E9B;stroke-width:1.0416666666666667;"/><line style="stroke:#446E9B;stroke-width:3.125;" x1="310.2509" x2="826.005" y1="665.0716" y2="665.0716"/><text fill="#FFFFFF" font-family="Verdana" font-size="12.5" lengthAdjust="spacing" textLength="116.2842" x="322.7509" y="654.8319">Reset AlarmStatus</text><polygon fill="#446E9B" points="819.755,700.4557,830.1717,704.6224,819.755,708.7891,823.9217,704.6224" style="stroke:#446E9B;stroke-width:1.0416666666666667;"/><line style="stroke:#446E9B;stroke-width:3.125;" x1="310.2509" x2="826.005" y1="704.6224" y2="704.6224"/><text fill="#FFFFFF" font-family="Verdana" font-size="12.5" lengthAdjust="spacing" textLength="153.1128" x="322.7509" y="694.3827">Set PRG1_Status to IDLE</text><!--SRC=[ZP9TRu8m58Rl-olElCAB9SgboKoCEhECgV5ZNf9IpcOLMq8F-_ZtQ-bWGvTj90JeUSvxthxbYlPuGZ0v5vZnX751ke3E8iU2sxSES0Fr1x2S5oI5pBaYw2nNituyrke5tx68FIIrgbfSxO8EuqLoG47n1Ca-9DPes4PdcKvu1e-ya3p9q5JOx35Yh75oFQn6361Pe35mFuzxlJu4XgnEbxcIGspF0DP85HklYLDfW3JSJQ9f0xdv0nZlKHp1-uDFVrf14AsTSfSvF6mqTrmIF5aVlWo1zerftTXbFADQpgzYoi1UBPqL6kjknyMUI1xQWD-VpPUaAX545RGTgUkWAvfXPX3c6lHViyQwL5JcPzESpMO5XZVmmD_Qn8MG2tIKyUBq5UXcjPrUm7u3FyH_Ezf6cmf7bJ9t_twm8GGZSLJwDSFq6VtiiqFsGNvpzQz_u0C0]--></g></svg>