<svg xmlns="http://www.w3.org/2000/svg" xmlns:xlink="http://www.w3.org/1999/xlink" contentStyleType="text/css" height="486px" preserveAspectRatio="none" style="width:483px;height:486px;background:#FFFFFF;" version="1.1" viewBox="0 0 483 486" width="483px" zoomAndPan="magnify"><defs/><g><ellipse cx="400.45" cy="314.47" fill="#222222" rx="10" ry="10" style="stroke:#222222;stroke-width:1.0;"/><g id="Inputs"><rect fill="#F1F1F1" height="64.2344" rx="12.5" ry="12.5" style="stroke:#181818;stroke-width:0.5;" width="149.8789" x="191.52" y="416.47"/><line style="stroke:#181818;stroke-width:0.5;" x1="191.52" x2="341.3989" y1="442.7669" y2="442.7669"/><text fill="#000000" font-family="sans-serif" font-size="14" lengthAdjust="spacing" textLength="43.5449" x="244.687" y="434.4651">Inputs</text><text fill="#000000" font-family="sans-serif" font-size="12" lengthAdjust="spacing" textLength="91.4004" x="196.52" y="458.9055">Set Alarm false</text><text fill="#000000" font-family="sans-serif" font-size="12" lengthAdjust="spacing" textLength="129.8789" x="196.52" y="472.8743">Set WaitTime = 0 sec</text></g><g id="PRG1_IDLE"><rect fill="#F1F1F1" height="64.2344" rx="12.5" ry="12.5" style="stroke:#181818;stroke-width:0.5;" width="136.0156" x="146.45" y="7"/><line style="stroke:#181818;stroke-width:0.5;" x1="146.45" x2="282.4656" y1="33.2969" y2="33.2969"/><text fill="#000000" font-family="sans-serif" font-size="14" lengthAdjust="spacing" textLength="76.4805" x="176.2176" y="24.9951">PRG1_IDLE</text><text fill="#000000" font-family="sans-serif" font-size="12" lengthAdjust="spacing" textLength="88.3652" x="151.45" y="49.4355">Wait for object</text><text fill="#000000" font-family="sans-serif" font-size="12" lengthAdjust="spacing" textLength="116.0156" x="151.45" y="63.4043">Count up idle timer</text></g><g id="ObjectDetected"><rect fill="#F1F1F1" height="64.2344" rx="12.5" ry="12.5" style="stroke:#181818;stroke-width:0.5;" width="138.623" x="145.14" y="148.23"/><line style="stroke:#181818;stroke-width:0.5;" x1="145.14" x2="283.763" y1="174.5269" y2="174.5269"/><text fill="#000000" font-family="sans-serif" font-size="14" lengthAdjust="spacing" textLength="109.7783" x="159.5624" y="166.2251">ObjectDetected</text><text fill="#000000" font-family="sans-serif" font-size="12" lengthAdjust="spacing" textLength="92.9414" x="150.14" y="190.6655">Reset wachttijd</text><text fill="#000000" font-family="sans-serif" font-size="12" lengthAdjust="spacing" textLength="118.623" x="150.14" y="204.6343">Alarmstatus = false</text></g><g id="ALARM"><rect fill="#F1F1F1" height="50" rx="12.5" ry="12.5" style="stroke:#181818;stroke-width:0.5;" width="68.7607" x="24.07" y="155.35"/><line style="stroke:#181818;stroke-width:0.5;" x1="24.07" x2="92.8307" y1="181.6469" y2="181.6469"/><text fill="#000000" font-family="sans-serif" font-size="14" lengthAdjust="spacing" textLength="48.7607" x="34.07" y="173.3451">ALARM</text></g><g id="Outputs"><rect fill="#F1F1F1" height="50" rx="12.5" ry="12.5" style="stroke:#181818;stroke-width:0.5;" width="75.9248" x="137.49" y="289.47"/><line style="stroke:#181818;stroke-width:0.5;" x1="137.49" x2="213.4148" y1="315.7669" y2="315.7669"/><text fill="#000000" font-family="sans-serif" font-size="14" lengthAdjust="spacing" textLength="55.9248" x="147.49" y="307.4651">Outputs</text></g><!--link *start* to Inputs--><g id="link_*start*_Inputs"><path d="M397.3,324.2 C391.8,338.53 379.3,367.34 361.45,386.47 C351.02,397.65 343.1171,404.369 330.2371,412.929 " fill="none" id="*start*-to-Inputs" style="stroke:#181818;stroke-width:1.0;"/><polygon fill="#181818" points="325.24,416.25,334.9496,414.5998,329.4042,413.4825,330.5216,407.9371,325.24,416.25" style="stroke:#181818;stroke-width:1.0;"/><text fill="#000000" font-family="sans-serif" font-size="13" lengthAdjust="spacing" textLength="100.6167" x="374.71" y="382.5369">System Started</text></g><!--link Inputs to PRG1_IDLE--><g id="link_Inputs_PRG1_IDLE"><path d="M283.14,416.02 C314.43,352.11 373.76,204.66 315.45,101.23 C307.86,87.75 300.9559,80.2177 287.9559,71.6277 " fill="none" id="Inputs-to-PRG1_IDLE" style="stroke:#181818;stroke-width:1.0;"/><polygon fill="#181818" points="282.95,68.32,288.2537,76.6189,287.1216,71.0764,292.664,69.9443,282.95,68.32" style="stroke:#181818;stroke-width:1.0;"/><text fill="#000000" font-family="sans-serif" font-size="13" lengthAdjust="spacing" textLength="107.6816" x="338.76" y="255.5369">PRG1 in status 1</text></g><!--link PRG1_IDLE to ObjectDetected--><g id="link_PRG1_IDLE_ObjectDetected"><path d="M212.62,71.51 C212.14,81.05 211.69,91.57 211.45,101.23 C211.08,116.56 211.3168,127.5877 212.0368,141.8177 " fill="none" id="PRG1_IDLE-to-ObjectDetected" style="stroke:#181818;stroke-width:1.0;"/><polygon fill="#181818" points="212.34,147.81,215.8801,138.6194,212.0873,142.8164,207.8903,139.0236,212.34,147.81" style="stroke:#181818;stroke-width:1.0;"/><text fill="#000000" font-family="sans-serif" font-size="13" lengthAdjust="spacing" textLength="98.9155" x="212.45" y="114.2969">LS_001 is HIGH</text></g><!--link PRG1_IDLE to ALARM--><g id="link_PRG1_IDLE_ALARM"><path d="M146.18,61.54 C125.09,70.93 103.27,83.87 87.45,101.23 C73.82,116.2 67.7745,132.3149 63.8745,149.1449 " fill="none" id="PRG1_IDLE-to-ALARM" style="stroke:#181818;stroke-width:1.0;"/><polygon fill="#181818" points="62.52,154.99,68.4485,147.1253,63.6487,150.1191,60.655,145.3193,62.52,154.99" style="stroke:#181818;stroke-width:1.0;"/><text fill="#000000" font-family="sans-serif" font-size="13" lengthAdjust="spacing" textLength="114.8354" x="88.45" y="114.2969">Wait time expires</text></g><!--link ObjectDetected to Inputs--><g id="link_ObjectDetected_Inputs"><path d="M220.62,212.93 C230.63,264.17 249.1401,358.9412 259.1401,410.1512 " fill="none" id="ObjectDetected-to-Inputs" style="stroke:#181818;stroke-width:1.0;"/><polygon fill="#181818" points="260.29,416.04,262.491,406.4402,259.3317,411.1327,254.6393,407.9735,260.29,416.04" style="stroke:#181818;stroke-width:1.0;"/></g><!--link ALARM to Inputs--><g id="link_ALARM_Inputs"><path d="M44.84,205.66 C28.38,238.61 6,298.1 32.45,339.47 C67.17,393.75 131.0495,419.7233 185.3895,433.3233 " fill="none" id="ALARM-to-Inputs" style="stroke:#181818;stroke-width:1.0;"/><polygon fill="#181818" points="191.21,434.78,183.4504,428.7146,186.3596,433.5661,181.5081,436.4752,191.21,434.78" style="stroke:#181818;stroke-width:1.0;"/><text fill="#000000" font-family="sans-serif" font-size="13" lengthAdjust="spacing" textLength="86.9058" x="33.45" y="319.0369">KN_001 reset</text></g><!--link ALARM to Outputs--><g id="link_ALARM_Outputs"><path d="M79.91,205.58 C101.02,229.42 129.093,261.1074 150.153,284.8974 " fill="none" id="ALARM-to-Outputs" style="stroke:#181818;stroke-width:1.0;"/><polygon fill="#181818" points="154.13,289.39,151.1595,279.9998,150.8158,285.6462,145.1694,285.3025,154.13,289.39" style="stroke:#181818;stroke-width:1.0;"/></g><!--link ObjectDetected to Outputs--><g id="link_ObjectDetected_Outputs"><path d="M205.21,212.66 C198.32,236.01 190.7405,261.706 184.3805,283.226 " fill="none" id="ObjectDetected-to-Outputs" style="stroke:#181818;stroke-width:1.0;"/><polygon fill="#181818" points="182.68,288.98,189.0668,281.4827,184.0971,284.185,181.3948,279.2154,182.68,288.98" style="stroke:#181818;stroke-width:1.0;"/></g><!--link Outputs to Inputs--><g id="link_Outputs_Inputs"><path d="M192.15,339.7 C206.92,361.15 225.1857,387.6693 241.3157,411.0793 " fill="none" id="Outputs-to-Inputs" style="stroke:#181818;stroke-width:1.0;"/><polygon fill="#181818" points="244.72,416.02,242.9074,406.3394,241.8831,411.9027,236.3198,410.8784,244.72,416.02" style="stroke:#181818;stroke-width:1.0;"/></g><!--SRC=[TL7BQiCm4BphA-PS23ZNGWAcAOcf-y0kz51AKEqDLV0BQqrRGlwzalnitEeW2UtixCpezUeDYyKQGL4rh76D-5ipvOXPraofwDujv2dQBlV19hmrA7k7Ag1PSgEn56FHGX_VZvJmXjZib1fy6EyzptHex8BjRefUmm_zwDvWNgHYiCe9z5MfchIue1br2j4sJONVFRWHfe-uBrif3RkEFxY6Kdl-uZV-cNhoam0c2H73psITuo0pJREQzV5iRQpWGLCYpZtTODiHmctJL5q2Xx96wSJEwZTbKp2Q2YhDo4LLZ-GN1jiHTiq-8x8HuLCc7ypgcFuFT2wxBrvrReTvRSGdOLuw0LsCusHn_W40]--></g></svg>