<svg xmlns="http://www.w3.org/2000/svg" xmlns:xlink="http://www.w3.org/1999/xlink" contentStyleType="text/css" height="672.9167px" preserveAspectRatio="none" style="width:537px;height:672px;" version="1.1" viewBox="0 0 537 672" width="537.5px" zoomAndPan="magnify"><defs><linearGradient id="gl7s30seyuv4s0" x1="50%" x2="50%" y1="0%" y2="100%"><stop offset="0%" stop-color="#7C9AB9"/><stop offset="100%" stop-color="#304D6D"/></linearGradient></defs><g><ellipse cx="134.5104" cy="27.0833" fill="#3399F3" rx="10.4167" ry="10.4167" style="stroke:#304D6D;stroke-width:1.0416666666666667;"/><g id="OFF"><rect fill="url(#gl7s30seyuv4s0)" height="68.3431" rx="4.1667" ry="4.1667" style="stroke:#304D6D;stroke-width:1.0416666666666667;" width="105.4942" x="81.7604" y="126.0417"/><line style="stroke:#304D6D;stroke-width:1.0416666666666667;" x1="81.7604" x2="187.2546" y1="160.2132" y2="160.2132"/><text fill="#FFFFFF" font-family="Verdana" font-size="11.4583" lengthAdjust="spacing" textLength="22.2005" x="123.4072" y="147.0942">OFF</text><text fill="#FFFFFF" font-family="Verdana" font-size="11.4583" lengthAdjust="spacing" textLength="74.2442" x="92.1771" y="181.2658">System is off</text></g><path d="M40.5208,282.9271 L228.4974,282.9271 A4.1667,4.1667 0 0 1 232.6641,287.0938 L232.6641,372.7383 L36.3542,372.7383 L36.3542,287.0938 A4.1667,4.1667 0 0 1 40.5208,282.9271 " fill="url(#gl7s30seyuv4s0)" style="stroke:url(#gl7s30seyuv4s0);stroke-width:1.0416666666666667;"/><path d="M36.3542,372.7383 L232.6641,372.7383 L232.6641,459.8314 A4.1667,4.1667 0 0 1 228.4974,463.998 L40.5208,463.998 A4.1667,4.1667 0 0 1 36.3542,459.8314 L36.3542,372.7383 " fill="#FFFFFF" style="stroke:#FFFFFF;stroke-width:1.0416666666666667;"/><rect fill="none" height="181.071" rx="4.1667" ry="4.1667" style="stroke:#304D6D;stroke-width:1.0416666666666667;" width="196.3099" x="36.3542" y="282.9271"/><line style="stroke:#304D6D;stroke-width:1.0416666666666667;" x1="36.3542" x2="232.6641" y1="372.7383" y2="372.7383"/><line style="stroke:#304D6D;stroke-width:1.0416666666666667;" x1="36.3542" x2="232.6641" y1="317.0986" y2="317.0986"/><text fill="#FFFFFF" font-family="Verdana" font-size="11.4583" lengthAdjust="spacing" textLength="25.826" x="121.5961" y="303.9796">IDLE</text><text fill="#FFFFFF" font-family="Verdana" font-size="11.4583" lengthAdjust="spacing" textLength="79.8559" x="46.7708" y="332.9429">System is idle</text><text fill="#FFFFFF" font-family="Verdana" font-size="11.4583" lengthAdjust="spacing" textLength="159.8516" x="46.7708" y="346.2811">Waiting for object detection</text><text fill="#FFFFFF" font-family="Verdana" font-size="11.4583" lengthAdjust="spacing" textLength="3.6423" x="46.7708" y="359.6193">&#160;</text><g id="IDLE.Detected"><rect fill="url(#gl7s30seyuv4s0)" height="68.3431" rx="4.1667" ry="4.1667" style="stroke:#304D6D;stroke-width:1.0416666666666667;" width="124.3266" x="48.8542" y="385.2383"/><line style="stroke:#304D6D;stroke-width:1.0416666666666667;" x1="48.8542" x2="173.1807" y1="419.4098" y2="419.4098"/><text fill="#FFFFFF" font-family="Verdana" font-size="11.4583" lengthAdjust="spacing" textLength="52.5304" x="84.7522" y="406.2908">Detected</text><text fill="#FFFFFF" font-family="Verdana" font-size="11.4583" lengthAdjust="spacing" textLength="93.0766" x="59.2708" y="440.4624">Calculate Speed</text></g><g id="RUNNING"><rect fill="url(#gl7s30seyuv4s0)" height="95.0195" rx="4.1667" ry="4.1667" style="stroke:#304D6D;stroke-width:1.0416666666666667;" width="233.5948" x="17.7083" y="567.125"/><line style="stroke:#304D6D;stroke-width:1.0416666666666667;" x1="17.7083" x2="251.3031" y1="601.2965" y2="601.2965"/><text fill="#FFFFFF" font-family="Verdana" font-size="11.4583" lengthAdjust="spacing" textLength="54.3208" x="107.3453" y="588.1776">RUNNING</text><text fill="#FFFFFF" font-family="Verdana" font-size="11.4583" lengthAdjust="spacing" textLength="115.2995" x="28.125" y="622.3491">Conveyer is running</text><text fill="#FFFFFF" font-family="Verdana" font-size="11.4583" lengthAdjust="spacing" textLength="202.3448" x="28.125" y="635.6873">Measures total runtime from speed</text><text fill="#FFFFFF" font-family="Verdana" font-size="11.4583" lengthAdjust="spacing" textLength="181.9122" x="28.125" y="649.0255">Calculates progress from speed</text></g><g id="FAULT"><rect fill="url(#gl7s30seyuv4s0)" height="81.6813" rx="4.1667" ry="4.1667" style="stroke:#304D6D;stroke-width:1.0416666666666667;" width="153.8396" x="372.1667" y="332.625"/><line style="stroke:#304D6D;stroke-width:1.0416666666666667;" x1="372.1667" x2="526.0063" y1="366.7965" y2="366.7965"/><text fill="#FFFFFF" font-family="Verdana" font-size="11.4583" lengthAdjust="spacing" textLength="36.1989" x="430.987" y="353.6776">FAULT</text><text fill="#FFFFFF" font-family="Verdana" font-size="11.4583" lengthAdjust="spacing" textLength="122.5896" x="382.5833" y="387.8491">System in fault mode</text><text fill="#FFFFFF" font-family="Verdana" font-size="11.4583" lengthAdjust="spacing" textLength="90.5757" x="382.5833" y="401.1873">Alarm triggered</text></g><!--link *start* to OFF--><g id="link_*start*_OFF"><path d="M134.5104,37.9792 C134.5104,56.375 134.5104,90.4583 134.5104,119.5521 " fill="none" id="*start*-to-OFF" style="stroke:#446E9B;stroke-width:3.125;"/><polygon fill="#446E9B" points="134.5104,125.8021,138.6771,116.4271,134.5104,120.5937,130.3438,116.4271,134.5104,125.8021" style="stroke:#446E9B;stroke-width:3.125;"/><text fill="#FFFFFF" font-family="Verdana" font-size="12.5" lengthAdjust="spacing" textLength="85.8093" x="140.7604" y="86.6028">PLC Power-up</text></g><!--link OFF to IDLE--><g id="link_OFF_IDLE"><path d="M134.5104,194.7187 C134.5104,218.4375 134.5104,245.2187 134.5104,276.375 " fill="none" id="OFF-to-IDLE" style="stroke:#446E9B;stroke-width:3.125;"/><polygon fill="#446E9B" points="134.5104,282.625,138.6771,273.25,134.5104,277.4167,130.3438,273.25,134.5104,282.625" style="stroke:#446E9B;stroke-width:3.125;"/><text fill="#FFFFFF" font-family="Verdana" font-size="12.5" lengthAdjust="spacing" textLength="129.3701" x="140.7604" y="243.4882">Start Button Pressed</text></g><!--link IDLE to RUNNING--><g id="link_IDLE_RUNNING"><path d="M58.7708,464.3958 C53.1979,474.3542 48.4063,484.7187 44.9271,495.25 C39.2604,512.3958 37.4271,519.4479 44.9271,535.875 C50.1354,547.3021 53.6055,553.2028 62.4909,562.4007 " fill="none" id="IDLE-to-RUNNING" style="stroke:#446E9B;stroke-width:3.125;"/><polygon fill="#446E9B" points="66.8333,566.8958,63.3165,557.2582,63.2147,563.1499,57.323,563.0481,66.8333,566.8958" style="stroke:#446E9B;stroke-width:3.125;"/><text fill="#FFFFFF" font-family="Verdana" font-size="12.5" lengthAdjust="spacing" textLength="115.7104" x="52.7487" y="513.1028">Object Detected &amp;</text><text fill="#FFFFFF" font-family="Verdana" font-size="12.5" lengthAdjust="spacing" textLength="118.8538" x="51.1771" y="527.6536">Weightime expired</text></g><!--link RUNNING to IDLE--><g id="link_RUNNING_IDLE"><path d="M167.3646,566.8854 C172.7188,557.0625 177.4479,546.4583 180.3438,535.875 C186.6667,512.6979 185.7946,493.7294 179.4821,470.4898 " fill="none" id="RUNNING-to-IDLE" style="stroke:#446E9B;stroke-width:3.125;"/><polygon fill="#446E9B" points="177.8438,464.4583,176.2802,474.5977,179.209,469.4845,184.3222,472.4133,177.8438,464.4583" style="stroke:#446E9B;stroke-width:3.125;"/><text fill="#FFFFFF" font-family="Verdana" font-size="12.5" lengthAdjust="spacing" textLength="105.1758" x="190.2396" y="513.1028">Object Transport</text><text fill="#FFFFFF" font-family="Verdana" font-size="12.5" lengthAdjust="spacing" textLength="60.2417" x="212.7066" y="527.6536">Complete</text></g><!--link IDLE to FAULT--><g id="link_IDLE_FAULT"><path d="M233.0833,410.7813 C266.5938,419.1458 304.3021,423.8229 338.875,417.2188 C349.7917,415.125 355.088,413.9759 365.9942,410.2989 " fill="none" id="IDLE-to-FAULT" style="stroke:#446E9B;stroke-width:3.125;"/><polygon fill="#446E9B" points="371.9167,408.3021,361.7018,407.3489,366.9813,409.9661,364.3642,415.2455,371.9167,408.3021" style="stroke:#446E9B;stroke-width:3.125;"/><text fill="#FFFFFF" font-family="Verdana" font-size="12.5" lengthAdjust="spacing" textLength="36.9995" x="283.9942" y="394.4465">Alarm</text><text fill="#FFFFFF" font-family="Verdana" font-size="12.5" lengthAdjust="spacing" textLength="60.5713" x="272.2083" y="408.9973">Triggered</text></g><!--link FAULT to IDLE--><g id="link_FAULT_IDLE"><path d="M371.7188,373.4688 C329.9167,373.4688 284.1146,373.4688 239.4271,373.4688 " fill="none" id="FAULT-to-IDLE" style="stroke:#446E9B;stroke-width:3.125;"/><polygon fill="#446E9B" points="233.1771,373.4688,242.5521,377.6354,238.3854,373.4688,242.5521,369.3021,233.1771,373.4688" style="stroke:#446E9B;stroke-width:3.125;"/><text fill="#FFFFFF" font-family="Verdana" font-size="12.5" lengthAdjust="spacing" textLength="36.9995" x="284.1611" y="347.5715">Alarm</text><text fill="#FFFFFF" font-family="Verdana" font-size="12.5" lengthAdjust="spacing" textLength="91.1133" x="257.1042" y="362.1223">Acknowledged</text></g><!--SRC=[NPB1Ri8m38RlUGhliiEali0EIAoC2Oa1Ma4SnWwXTKj6cbI9EuOctdr9Iagt7Dee_cB_zfyxEc2DO1kUe-Jxv7GGXCmUXMguuJNiUNwiZ6vLaMkf3P3Xoi465J7s_l01IJA2vNGAZx2Qfx3I9pH9sp1_v4EpoVpPnJBYXk2f9T8ALWQjnOA5c8VUDel5RF7YkEN-4tE22PBxOG7tExL5KHr8E97utGZZxaLyaFzwRntKQKCxbUgwaIxDjSe8fkFDVEtGiUIctgcr4LM5FbqNkEMw0kFygFH9Ob4vXbdYXA7H7mPkXK_NTtQsX3K82xeisIMo8Ti0ZfFeQL5874QsN91G5PHkpBhhfmXp45eDkR3FGer-JbqTl_gZHqYvp5lfkQn1rqH4mkRI_MvwurG7ac- -f5fzuHcDrsrQfPpEVyGhSjiwOu4qSUcXu5bfTErULom_o1Z5MMYChloJ6CAzhCwTJbIqCCvGGSbRIL3h0ly0mKBtLgF5bry0]--></g></svg>