<svg xmlns="http://www.w3.org/2000/svg" xmlns:xlink="http://www.w3.org/1999/xlink" contentStyleType="text/css" height="620.8333px" preserveAspectRatio="none" style="width:513px;height:620px;" version="1.1" viewBox="0 0 513 620" width="513.5417px" zoomAndPan="magnify"><defs><linearGradient id="gjr1umllxotxw0" x1="50%" x2="50%" y1="0%" y2="100%"><stop offset="0%" stop-color="#7C9AB9"/><stop offset="100%" stop-color="#304D6D"/></linearGradient></defs><g><ellipse cx="419.1875" cy="399" fill="#3399F3" rx="10.4167" ry="10.4167" style="stroke:#304D6D;stroke-width:1.0416666666666667;"/><g id="ReadInputs"><rect fill="url(#gjr1umllxotxw0)" height="81.6813" rx="4.1667" ry="4.1667" style="stroke:#304D6D;stroke-width:1.0416666666666667;" width="155.2663" x="242.5938" y="528.3854"/><line style="stroke:#304D6D;stroke-width:1.0416666666666667;" x1="242.5938" x2="397.8601" y1="562.557" y2="562.557"/><text fill="#FFFFFF" font-family="Verdana" font-size="11.4583" lengthAdjust="spacing" textLength="64.9455" x="287.7542" y="549.438">ReadInputs</text><text fill="#FFFFFF" font-family="Verdana" font-size="11.4583" lengthAdjust="spacing" textLength="87.2747" x="253.0104" y="583.6095">Set Alarm false</text><text fill="#FFFFFF" font-family="Verdana" font-size="11.4583" lengthAdjust="spacing" textLength="124.0163" x="253.0104" y="596.9477">Set WaitTime = 0 sec</text></g><g id="PRG1_IDLE"><rect fill="url(#gjr1umllxotxw0)" height="81.6813" rx="4.1667" ry="4.1667" style="stroke:#304D6D;stroke-width:1.0416666666666667;" width="142.0288" x="151.2917" y="17.7083"/><line style="stroke:#304D6D;stroke-width:1.0416666666666667;" x1="151.2917" x2="293.3205" y1="51.8799" y2="51.8799"/><text fill="#FFFFFF" font-family="Verdana" font-size="11.4583" lengthAdjust="spacing" textLength="62.5956" x="191.0083" y="38.7609">PRG1_IDLE</text><text fill="#FFFFFF" font-family="Verdana" font-size="11.4583" lengthAdjust="spacing" textLength="84.3765" x="161.7083" y="72.9324">Wait for object</text><text fill="#FFFFFF" font-family="Verdana" font-size="11.4583" lengthAdjust="spacing" textLength="110.7788" x="161.7083" y="86.2707">Count up idle timer</text></g><g id="ObjectDetected"><rect fill="url(#gjr1umllxotxw0)" height="81.6813" rx="4.1667" ry="4.1667" style="stroke:#304D6D;stroke-width:1.0416666666666667;" width="144.5185" x="150.0521" y="187.9375"/><line style="stroke:#304D6D;stroke-width:1.0416666666666667;" x1="150.0521" x2="294.5706" y1="222.109" y2="222.109"/><text fill="#FFFFFF" font-family="Verdana" font-size="11.4583" lengthAdjust="spacing" textLength="89.8483" x="177.3872" y="208.9901">ObjectDetected</text><text fill="#FFFFFF" font-family="Verdana" font-size="11.4583" lengthAdjust="spacing" textLength="88.7461" x="160.4688" y="243.1616">Reset wachttijd</text><text fill="#FFFFFF" font-family="Verdana" font-size="11.4583" lengthAdjust="spacing" textLength="113.2685" x="160.4688" y="256.4998">Alarmstatus = false</text></g><g id="ALARM"><rect fill="url(#gjr1umllxotxw0)" height="55.0049" rx="4.1667" ry="4.1667" style="stroke:#304D6D;stroke-width:1.0416666666666667;" width="71.1583" x="22.1458" y="201.2708"/><line style="stroke:#304D6D;stroke-width:1.0416666666666667;" x1="22.1458" x2="93.3042" y1="235.4424" y2="235.4424"/><text fill="#FFFFFF" font-family="Verdana" font-size="11.4583" lengthAdjust="spacing" textLength="39.9083" x="37.7708" y="222.3234">ALARM</text></g><g id="Outputs"><rect fill="url(#gjr1umllxotxw0)" height="81.6813" rx="4.1667" ry="4.1667" style="stroke:#304D6D;stroke-width:1.0416666666666667;" width="152.978" x="145.8229" y="358.1562"/><line style="stroke:#304D6D;stroke-width:1.0416666666666667;" x1="145.8229" x2="298.8009" y1="392.3278" y2="392.3278"/><text fill="#FFFFFF" font-family="Verdana" font-size="11.4583" lengthAdjust="spacing" textLength="45.7718" x="199.426" y="379.2088">Outputs</text><text fill="#FFFFFF" font-family="Verdana" font-size="11.4583" lengthAdjust="spacing" textLength="118.3263" x="156.2396" y="413.3804">Set GVL Alarmstatus</text><text fill="#FFFFFF" font-family="Verdana" font-size="11.4583" lengthAdjust="spacing" textLength="121.728" x="156.2396" y="426.7186">Set GVL Objectstatus</text></g><!--link *start* to ReadInputs--><g id="link_*start*_ReadInputs"><path d="M416.3125,409.3021 C410.6042,427.0729 396.75,466.9167 378.5625,497.1354 C372.2188,507.6563 368.335,513.4121 360.5225,523.1204 " fill="none" id="*start*-to-ReadInputs" style="stroke:#446E9B;stroke-width:3.125;"/><polygon fill="#446E9B" points="356.6042,527.9896,365.7278,523.298,359.8695,523.9319,359.2356,518.0736,356.6042,527.9896" style="stroke:#446E9B;stroke-width:3.125;"/><text fill="#FFFFFF" font-family="Verdana" font-size="12.5" lengthAdjust="spacing" textLength="96.7468" x="398.3021" y="488.9465">System Started</text></g><!--link ReadInputs to PRG1_IDLE--><g id="link_ReadInputs_PRG1_IDLE"><path d="M333.6146,528.0104 C358.0417,447.1146 401.1354,261.1771 330.6458,130.6458 C322.1458,114.9062 313.6288,105.6355 298.8163,95.448 " fill="none" id="ReadInputs-to-PRG1_IDLE" style="stroke:#446E9B;stroke-width:3.125;"/><polygon fill="#446E9B" points="293.6667,91.9062,299.03,100.6519,297.958,94.8577,303.7523,93.7858,293.6667,91.9062" style="stroke:#446E9B;stroke-width:3.125;"/><text fill="#FFFFFF" font-family="Verdana" font-size="12.5" lengthAdjust="spacing" textLength="103.54" x="375.4375" y="318.7174">PRG1 in status 1</text></g><!--link PRG1_IDLE to ObjectDetected--><g id="link_PRG1_IDLE_ObjectDetected"><path d="M220.2292,99.7917 C219.7917,109.8646 219.4063,120.6458 219.1875,130.6458 C218.7708,149.3542 219.038,163.8493 219.7776,181.3389 " fill="none" id="PRG1_IDLE-to-ObjectDetected" style="stroke:#446E9B;stroke-width:3.125;"/><polygon fill="#446E9B" points="220.0417,187.5833,223.8085,178.0407,219.8216,182.3797,215.4826,178.3927,220.0417,187.5833" style="stroke:#446E9B;stroke-width:3.125;"/><text fill="#FFFFFF" font-family="Verdana" font-size="12.5" lengthAdjust="spacing" textLength="95.1111" x="225.4375" y="148.4986">LS_001 is HIGH</text></g><!--link PRG1_IDLE to ALARM--><g id="link_PRG1_IDLE_ALARM"><path d="M150.8125,84.6458 C128.0208,95.6771 104.4583,110.75 87.9375,130.6458 C71.3542,150.6042 64.8402,173.4845 61.4652,194.6095 " fill="none" id="PRG1_IDLE-to-ALARM" style="stroke:#446E9B;stroke-width:3.125;"/><polygon fill="#446E9B" points="60.4792,200.7812,66.0727,192.181,61.3008,195.6381,57.8437,190.8663,60.4792,200.7812" style="stroke:#446E9B;stroke-width:3.125;"/><text fill="#FFFFFF" font-family="Verdana" font-size="12.5" lengthAdjust="spacing" textLength="110.4187" x="94.1875" y="148.4986">Wait time expires</text></g><!--link ALARM to ReadInputs--><g id="link_ALARM_ReadInputs"><path d="M48.3438,256.4896 C35.1979,298.9375 16.6667,382.8958 52.5208,439.8438 C93.8438,505.4792 173.0427,536.7787 236.2927,552.6746 " fill="none" id="ALARM-to-ReadInputs" style="stroke:#446E9B;stroke-width:3.125;"/><polygon fill="#446E9B" points="242.3542,554.1979,234.2775,547.8719,237.3029,552.9284,232.2463,555.9539,242.3542,554.1979" style="stroke:#446E9B;stroke-width:3.125;"/><text fill="#FFFFFF" font-family="Verdana" font-size="12.5" lengthAdjust="spacing" textLength="36.9995" x="71.6096" y="396.5403">Alarm</text><text fill="#FFFFFF" font-family="Verdana" font-size="12.5" lengthAdjust="spacing" textLength="62.677" x="58.7708" y="411.0911">resetknop</text></g><!--link ALARM to Outputs--><g id="link_ALARM_Outputs"><path d="M83.8021,256.4583 C110.4479,283.6875 147.795,321.8354 178.4825,353.1896 " fill="none" id="ALARM-to-Outputs" style="stroke:#446E9B;stroke-width:3.125;"/><polygon fill="#446E9B" points="182.8542,357.6563,179.2744,348.0418,179.2111,353.934,173.3189,353.8707,182.8542,357.6563" style="stroke:#446E9B;stroke-width:3.125;"/></g><!--link ObjectDetected to Outputs--><g id="link_ObjectDetected_Outputs"><path d="M222.3125,270.0938 C222.3125,296.6146 222.3125,324.9583 222.3125,351.4688 " fill="none" id="ObjectDetected-to-Outputs" style="stroke:#446E9B;stroke-width:3.125;"/><polygon fill="#446E9B" points="222.3125,357.7188,226.4792,348.3438,222.3125,352.5104,218.1458,348.3438,222.3125,357.7188" style="stroke:#446E9B;stroke-width:3.125;"/></g><!--link Outputs to ReadInputs--><g id="link_Outputs_ReadInputs"><path d="M245.7604,440.3125 C261.2083,466.8333 278.21,496.0255 293.6475,522.5464 " fill="none" id="Outputs-to-ReadInputs" style="stroke:#446E9B;stroke-width:3.125;"/><polygon fill="#446E9B" points="296.7917,527.9479,295.6764,517.7495,294.1715,523.4466,288.4744,521.9417,296.7917,527.9479" style="stroke:#446E9B;stroke-width:3.125;"/></g><!--SRC=[TP5RQy9048NVvrTCNmk2lXOKf1OLKbfYQH_Q8ciorjLa4tOds2B-z-x5opRMF6mIphSpSyxSy8fAGbEBZ0gnw6nNaWdCHgfQQ57YGcIRBrqrAi-gejB8MYWBQr8Cy7xxYPtE05CI-LJL3HkymzcFOIfnna8pvH1f3drEnxtvT9GyMD9zerHeM71Zi0TdqQ5FYpLbF2As9-MMJsRpRjVUC3YPZYSnFS1XCamVBVCc92DBQuc-Qwd9043GsdCE2w7B3sKHuesgwYFcEZVi86XDy4SAxvPz06kRAMwq0yHMGCIXEIv5OUXVtTbuSIxws4L36UoFfK-kVM7qHnog3s1fDrNvuI_qUxjBngP6cHVaazBduYt3eOLxBdQHkjXmAx8Lirpdrq7lzB3X_i7ngL-8V1SDS8WrT3x-XKp6hqbSxGeH1eWGdzB-5m00]--></g></svg>