<svg xmlns="http://www.w3.org/2000/svg" xmlns:xlink="http://www.w3.org/1999/xlink" contentStyleType="text/css" height="620.8333px" preserveAspectRatio="none" style="width:592px;height:620px;" version="1.1" viewBox="0 0 592 620" width="592.7083px" zoomAndPan="magnify"><defs><linearGradient id="g12bkexwt4bfbg0" x1="50%" x2="50%" y1="0%" y2="100%"><stop offset="0%" stop-color="#7C9AB9"/><stop offset="100%" stop-color="#304D6D"/></linearGradient></defs><g><ellipse cx="496.6042" cy="399" fill="#3399F3" rx="10.4167" ry="10.4167" style="stroke:#304D6D;stroke-width:1.0416666666666667;"/><g id="ReadInputs"><rect fill="url(#g12bkexwt4bfbg0)" height="81.6813" rx="4.1667" ry="4.1667" style="stroke:#304D6D;stroke-width:1.0416666666666667;" width="155.2663" x="279.3958" y="528.3854"/><line style="stroke:#304D6D;stroke-width:1.0416666666666667;" x1="279.3958" x2="434.6622" y1="562.557" y2="562.557"/><text fill="#FFFFFF" font-family="Verdana" font-size="11.4583" lengthAdjust="spacing" textLength="64.9455" x="324.5563" y="549.438">ReadInputs</text><text fill="#FFFFFF" font-family="Verdana" font-size="11.4583" lengthAdjust="spacing" textLength="87.2747" x="289.8125" y="583.6095">Set Alarm false</text><text fill="#FFFFFF" font-family="Verdana" font-size="11.4583" lengthAdjust="spacing" textLength="124.0163" x="289.8125" y="596.9477">Set WaitTime = 0 sec</text></g><g id="PRG1_IDLE"><rect fill="url(#g12bkexwt4bfbg0)" height="81.6813" rx="4.1667" ry="4.1667" style="stroke:#304D6D;stroke-width:1.0416666666666667;" width="142.0288" x="228.7188" y="17.7083"/><line style="stroke:#304D6D;stroke-width:1.0416666666666667;" x1="228.7188" x2="370.7476" y1="51.8799" y2="51.8799"/><text fill="#FFFFFF" font-family="Verdana" font-size="11.4583" lengthAdjust="spacing" textLength="62.5956" x="268.4353" y="38.7609">PRG1_IDLE</text><text fill="#FFFFFF" font-family="Verdana" font-size="11.4583" lengthAdjust="spacing" textLength="84.3765" x="239.1354" y="72.9324">Wait for object</text><text fill="#FFFFFF" font-family="Verdana" font-size="11.4583" lengthAdjust="spacing" textLength="110.7788" x="239.1354" y="86.2707">Count up idle timer</text></g><g id="ObjectDetected"><rect fill="url(#g12bkexwt4bfbg0)" height="81.6813" rx="4.1667" ry="4.1667" style="stroke:#304D6D;stroke-width:1.0416666666666667;" width="144.5185" x="227.4688" y="187.9375"/><line style="stroke:#304D6D;stroke-width:1.0416666666666667;" x1="227.4688" x2="371.9873" y1="222.109" y2="222.109"/><text fill="#FFFFFF" font-family="Verdana" font-size="11.4583" lengthAdjust="spacing" textLength="89.8483" x="254.8039" y="208.9901">ObjectDetected</text><text fill="#FFFFFF" font-family="Verdana" font-size="11.4583" lengthAdjust="spacing" textLength="88.7461" x="237.8854" y="243.1616">Reset wachttijd</text><text fill="#FFFFFF" font-family="Verdana" font-size="11.4583" lengthAdjust="spacing" textLength="113.2685" x="237.8854" y="256.4998">Alarmstatus = false</text></g><g id="ALARM"><rect fill="url(#g12bkexwt4bfbg0)" height="55.0049" rx="4.1667" ry="4.1667" style="stroke:#304D6D;stroke-width:1.0416666666666667;" width="71.1583" x="99.5729" y="201.2708"/><line style="stroke:#304D6D;stroke-width:1.0416666666666667;" x1="99.5729" x2="170.7313" y1="235.4424" y2="235.4424"/><text fill="#FFFFFF" font-family="Verdana" font-size="11.4583" lengthAdjust="spacing" textLength="39.9083" x="115.1979" y="222.3234">ALARM</text></g><g id="Outputs"><rect fill="url(#g12bkexwt4bfbg0)" height="81.6813" rx="4.1667" ry="4.1667" style="stroke:#304D6D;stroke-width:1.0416666666666667;" width="152.978" x="149.2813" y="358.1562"/><line style="stroke:#304D6D;stroke-width:1.0416666666666667;" x1="149.2813" x2="302.2593" y1="392.3278" y2="392.3278"/><text fill="#FFFFFF" font-family="Verdana" font-size="11.4583" lengthAdjust="spacing" textLength="45.7718" x="202.8844" y="379.2088">Outputs</text><text fill="#FFFFFF" font-family="Verdana" font-size="11.4583" lengthAdjust="spacing" textLength="118.3263" x="159.6979" y="413.3804">Set GVL Alarmstatus</text><text fill="#FFFFFF" font-family="Verdana" font-size="11.4583" lengthAdjust="spacing" textLength="121.728" x="159.6979" y="426.7186">Set GVL Objectstatus</text></g><!--link *start* to ReadInputs--><g id="link_*start*_ReadInputs"><path d="M494.5,409.4896 C490,427.9375 478.0521,469.3958 455.9792,497.1354 C446.8958,508.5521 440.4599,515.1493 428.6787,524.2847 " fill="none" id="*start*-to-ReadInputs" style="stroke:#446E9B;stroke-width:3.125;"/><polygon fill="#446E9B" points="423.7396,528.1146,433.7015,525.6625,427.8555,524.923,428.595,519.0771,423.7396,528.1146" style="stroke:#446E9B;stroke-width:3.125;"/><text fill="#FFFFFF" font-family="Verdana" font-size="12.5" lengthAdjust="spacing" textLength="96.7468" x="477.6458" y="488.9465">System Started</text></g><!--link ReadInputs to PRG1_IDLE--><g id="link_ReadInputs_PRG1_IDLE"><path d="M376.2708,528.1563 C412.0521,447.5208 479.0208,262.0312 408.0625,130.6458 C399.5729,114.9062 391.0559,105.6355 376.2434,95.448 " fill="none" id="ReadInputs-to-PRG1_IDLE" style="stroke:#446E9B;stroke-width:3.125;"/><polygon fill="#446E9B" points="371.0938,91.9062,376.457,100.6519,375.3851,94.8577,381.1793,93.7858,371.0938,91.9062" style="stroke:#446E9B;stroke-width:3.125;"/><text fill="#FFFFFF" font-family="Verdana" font-size="12.5" lengthAdjust="spacing" textLength="103.54" x="444.3125" y="318.7174">PRG1 in status 1</text></g><!--link PRG1_IDLE to ObjectDetected--><g id="link_PRG1_IDLE_ObjectDetected"><path d="M297.6563,99.7917 C297.2188,109.8646 296.8229,120.6458 296.6042,130.6458 C296.1979,149.3542 296.4651,163.8493 297.2047,181.3389 " fill="none" id="PRG1_IDLE-to-ObjectDetected" style="stroke:#446E9B;stroke-width:3.125;"/><polygon fill="#446E9B" points="297.4688,187.5833,301.2356,178.0407,297.2487,182.3797,292.9097,178.3927,297.4688,187.5833" style="stroke:#446E9B;stroke-width:3.125;"/><text fill="#FFFFFF" font-family="Verdana" font-size="12.5" lengthAdjust="spacing" textLength="95.1111" x="302.8542" y="148.4986">LS_001 is HIGH</text></g><!--link PRG1_IDLE to ALARM--><g id="link_PRG1_IDLE_ALARM"><path d="M228.2396,84.6458 C205.4479,95.6771 181.8854,110.75 165.3542,130.6458 C148.7813,150.6042 142.2702,173.485 138.8848,194.61 " fill="none" id="PRG1_IDLE-to-ALARM" style="stroke:#446E9B;stroke-width:3.125;"/><polygon fill="#446E9B" points="137.8958,200.7812,143.4935,192.1837,138.72,195.6385,135.2651,190.865,137.8958,200.7812" style="stroke:#446E9B;stroke-width:3.125;"/><text fill="#FFFFFF" font-family="Verdana" font-size="12.5" lengthAdjust="spacing" textLength="110.4187" x="171.6042" y="148.4986">Wait time expires</text></g><!--link ObjectDetected to ReadInputs--><g id="link_ObjectDetected_ReadInputs"><path d="M306.5313,269.9583 C317.5521,335.0833 338.1754,456.8377 349.1963,521.9314 " fill="none" id="ObjectDetected-to-ReadInputs" style="stroke:#446E9B;stroke-width:3.125;"/><polygon fill="#446E9B" points="350.2396,528.0938,352.7828,518.1547,349.3701,522.9585,344.5664,519.5458,350.2396,528.0938" style="stroke:#446E9B;stroke-width:3.125;"/></g><!--link ALARM to ReadInputs--><g id="link_ALARM_ReadInputs"><path d="M109.9167,256.8021 C74.0208,298.5833 16.6667,380.3438 55.9792,439.8438 C105.2396,514.375 201.4253,544.6441 273.0399,557.7691 " fill="none" id="ALARM-to-ReadInputs" style="stroke:#446E9B;stroke-width:3.125;"/><polygon fill="#446E9B" points="279.1875,558.8958,270.7172,553.1074,274.0645,557.9569,269.215,561.3042,279.1875,558.8958" style="stroke:#446E9B;stroke-width:3.125;"/><text fill="#FFFFFF" font-family="Verdana" font-size="12.5" lengthAdjust="spacing" textLength="36.9995" x="75.0679" y="396.5403">Alarm</text><text fill="#FFFFFF" font-family="Verdana" font-size="12.5" lengthAdjust="spacing" textLength="62.677" x="62.2292" y="411.0911">resetknop</text></g><!--link ALARM to Outputs--><g id="link_ALARM_Outputs"><path d="M149.5104,256.4583 C164.1875,283.6875 184.1914,320.8001 201.0872,352.1542 " fill="none" id="ALARM-to-Outputs" style="stroke:#446E9B;stroke-width:3.125;"/><polygon fill="#446E9B" points="204.0521,357.6563,203.2728,347.4267,201.5814,353.0712,195.9368,351.3798,204.0521,357.6563" style="stroke:#446E9B;stroke-width:3.125;"/></g><!--link ObjectDetected to Outputs--><g id="link_ObjectDetected_Outputs"><path d="M282.0208,270.0938 C270.3542,296.6146 257.6529,325.4878 245.9862,351.9982 " fill="none" id="ObjectDetected-to-Outputs" style="stroke:#446E9B;stroke-width:3.125;"/><polygon fill="#446E9B" points="243.4688,357.7188,251.0587,350.8162,245.5667,352.9516,243.4313,347.4596,243.4688,357.7188" style="stroke:#446E9B;stroke-width:3.125;"/></g><!--link Outputs to ReadInputs--><g id="link_Outputs_ReadInputs"><path d="M257.2083,440.3125 C277.9167,466.8333 301.0714,496.5 321.7693,523.0208 " fill="none" id="Outputs-to-ReadInputs" style="stroke:#446E9B;stroke-width:3.125;"/><polygon fill="#446E9B" points="325.6146,527.9479,323.1314,517.9938,322.4102,523.842,316.5619,523.1208,325.6146,527.9479" style="stroke:#446E9B;stroke-width:3.125;"/></g><!--SRC=[TL5DQy904BtlhvXU2u9U2mfIYmefBR6qXxQKCHdhQh89knDi4VzxzyEFRTGzx2RCc_VclRdX9PK4fiQC2fntDal99CnQgXerbZ37RFsjgqRbMLLK6bYZic1DYeLul_s4JcS0AM4-LNN31kvWzckOIfWnQgPSH3K7VKx7lQ_fA7cmIFSDKe5XvCP0JvoA3leqNr768s9xKsxnoUohsxKT1YRJyIH63s2O3DD7Ytb3oS3IMgAVMceoeaNpVruXGcFRnB10NNuesq-yLbLzWBcn6lQT5tYFfV2UQTbCc6AXhG1efKSSn661XQ6BTUVnnLdiGnSCPM9te3v6ued1Nt7YFfs5NMFbXp-htzj5CpGroBmW7wC-aRSC1mbtpXQLkjXWWzcIMQxowq3lTB_-_jxnKIz4leq6sCSQb0z_8PFnQnApNK640IA8Jsdt1m00]--></g></svg>