<svg xmlns="http://www.w3.org/2000/svg" xmlns:xlink="http://www.w3.org/1999/xlink" contentStyleType="text/css" height="413px" preserveAspectRatio="none" style="width:393px;height:413px;background:#FFFFFF;" version="1.1" viewBox="0 0 393 413" width="393px" zoomAndPan="magnify"><defs/><g><ellipse cx="149.15" cy="16" fill="#222222" rx="10" ry="10" style="stroke:#222222;stroke-width:1.0;"/><g id="Idle"><rect fill="#F1F1F1" height="50" rx="12.5" ry="12.5" style="stroke:#181818;stroke-width:0.5;" width="50" x="124.15" y="103"/><line style="stroke:#181818;stroke-width:0.5;" x1="124.15" x2="174.15" y1="129.2969" y2="129.2969"/><text fill="#000000" font-family="sans-serif" font-size="14" lengthAdjust="spacing" textLength="25.5186" x="136.3907" y="120.9951">Idle</text></g><g id="DetectObject"><rect fill="#F1F1F1" height="50" rx="12.5" ry="12.5" style="stroke:#181818;stroke-width:0.5;" width="112.2783" x="93.01" y="230"/><line style="stroke:#181818;stroke-width:0.5;" x1="93.01" x2="205.2883" y1="256.2969" y2="256.2969"/><text fill="#000000" font-family="sans-serif" font-size="14" lengthAdjust="spacing" textLength="92.2783" x="103.01" y="247.9951">DetectObject</text></g><g id="Alarm"><rect fill="#F1F1F1" height="50" rx="12.5" ry="12.5" style="stroke:#181818;stroke-width:0.5;" width="61.4395" x="183.43" y="357"/><line style="stroke:#181818;stroke-width:0.5;" x1="183.43" x2="244.8695" y1="383.2969" y2="383.2969"/><text fill="#000000" font-family="sans-serif" font-size="14" lengthAdjust="spacing" textLength="41.4395" x="193.43" y="374.9951">Alarm</text></g><!--link *start* to Idle--><g id="link_*start*_Idle"><path d="M149.15,26.38 C149.15,43.11 149.15,72.59 149.15,96.63 " fill="none" id="*start*-to-Idle" style="stroke:#181818;stroke-width:1.0;"/><polygon fill="#181818" points="149.15,102.63,153.15,93.63,149.15,97.63,145.15,93.63,149.15,102.63" style="stroke:#181818;stroke-width:1.0;"/><text fill="#000000" font-family="sans-serif" font-size="13" lengthAdjust="spacing" textLength="100.6167" x="150.15" y="69.0669">System Started</text></g><!--link Idle to DetectObject--><g id="link_Idle_DetectObject"><path d="M123.66,132.04 C94.41,137.04 47.71,150 26.15,183 C6,213.86 45.5154,231.4099 86.7254,241.8999 " fill="none" id="Idle-to-DetectObject" style="stroke:#181818;stroke-width:1.0;"/><polygon fill="#181818" points="92.54,243.38,84.8049,237.2835,87.6945,242.1466,82.8314,245.0362,92.54,243.38" style="stroke:#181818;stroke-width:1.0;"/><text fill="#000000" font-family="sans-serif" font-size="13" lengthAdjust="spacing" textLength="78.9331" x="27.15" y="196.0669">Timer Event</text></g><!--link DetectObject to Idle--><g id="link_DetectObject_Idle"><path d="M147.28,229.69 C146.44,215.98 145.72,198.54 146.15,183 C146.42,173.33 146.6039,168.6894 147.1539,159.4394 " fill="none" id="DetectObject-to-Idle" style="stroke:#181818;stroke-width:1.0;"/><polygon fill="#181818" points="147.51,153.45,142.9829,162.1967,147.2132,158.4412,150.9688,162.6716,147.51,153.45" style="stroke:#181818;stroke-width:1.0;"/><text fill="#000000" font-family="sans-serif" font-size="13" lengthAdjust="spacing" textLength="106.0693" x="147.15" y="196.0669">Object Detected</text></g><!--link DetectObject to Alarm--><g id="link_DetectObject_Alarm"><path d="M148.29,280.17 C148.71,294.48 150.91,312.56 158.15,327 C164.03,338.71 169.0533,345.2607 178.5433,353.9007 " fill="none" id="DetectObject-to-Alarm" style="stroke:#181818;stroke-width:1.0;"/><polygon fill="#181818" points="182.98,357.94,179.0178,348.9233,179.2828,354.5739,173.6321,354.8388,182.98,357.94" style="stroke:#181818;stroke-width:1.0;"/><text fill="#000000" font-family="sans-serif" font-size="13" lengthAdjust="spacing" textLength="94.9482" x="159.15" y="323.0669">Object Missing</text></g><!--link Alarm to Idle--><g id="link_Alarm_Idle"><path d="M239.9,356.63 C247.25,348.05 254.3,337.82 258.15,327 C279.61,266.7 291.9,237.38 258.15,183 C239.89,153.57 206.1286,141.0725 180.0286,134.8925 " fill="none" id="Alarm-to-Idle" style="stroke:#181818;stroke-width:1.0;"/><polygon fill="#181818" points="174.19,133.51,182.0262,139.4761,179.0555,134.6621,183.8695,131.6913,174.19,133.51" style="stroke:#181818;stroke-width:1.0;"/><text fill="#000000" font-family="sans-serif" font-size="13" lengthAdjust="spacing" textLength="104.9204" x="280.1" y="259.5669">Object Restored</text></g><!--SRC=[YzQALT3LjLFmJCb9LR1I2AuiBadDLGWkIImgIKtXuW8BW-HTKajIaqlyaxA0951TI6PkQf62QrbgNWaNYXH8hMDEOb4kK15Ko3Upk3WpBnrJ7THEg0X46cWfH3kcWg3KufByejGK0000]--></g></svg>