<svg xmlns="http://www.w3.org/2000/svg" xmlns:xlink="http://www.w3.org/1999/xlink" contentStyleType="text/css" height="1125px" preserveAspectRatio="none" style="width:1314px;height:1125px;" version="1.1" viewBox="0 0 1314 1125" width="1314.5833px" zoomAndPan="magnify"><defs><linearGradient id="grbeyl1fqlzy70" x1="50%" x2="50%" y1="0%" y2="100%"><stop offset="0%" stop-color="#B8B8B8"/><stop offset="100%" stop-color="#6B6B6B"/></linearGradient><linearGradient id="grbeyl1fqlzy71" x1="50%" x2="50%" y1="0%" y2="100%"><stop offset="0%" stop-color="#7C9AB9"/><stop offset="100%" stop-color="#304D6D"/></linearGradient><linearGradient id="grbeyl1fqlzy72" x1="50%" x2="50%" y1="0%" y2="100%"><stop offset="0%" stop-color="#6B6B6B"/><stop offset="100%" stop-color="#6B6B6B"/></linearGradient></defs><g><rect fill="url(#grbeyl1fqlzy70)" height="734.7656" rx="4.1667" ry="4.1667" style="stroke:#446E9B;stroke-width:2.0833333333333335;" width="1281.957" x="20.8333" y="235.2865"/><rect fill="url(#grbeyl1fqlzy70)" height="234.1471" rx="4.1667" ry="4.1667" style="stroke:#446E9B;stroke-width:2.0833333333333335;" width="1032.783" x="31.25" y="318.5221"/><path d="M20.8333,559.9609 L1302.7903,559.9609 L1302.7903,965.8854 A4.1667,4.1667 0 0 1 1298.6237,970.0521 L25,970.0521 A4.1667,4.1667 0 0 1 20.8333,965.8854 L20.8333,559.9609 " fill="url(#grbeyl1fqlzy70)" style="stroke:none;stroke-width:1.0416666666666667;"/><line style="stroke:#999999;stroke-width:1.0416666666666667;stroke-dasharray:5.0,5.0;" x1="77.0833" x2="77.0833" y1="98.9258" y2="1027.3112"/><line style="stroke:#999999;stroke-width:1.0416666666666667;stroke-dasharray:5.0,5.0;" x1="335.5347" x2="335.5347" y1="98.9258" y2="1027.3112"/><line style="stroke:#999999;stroke-width:1.0416666666666667;stroke-dasharray:5.0,5.0;" x1="699.1079" x2="699.1079" y1="98.9258" y2="1027.3112"/><line style="stroke:#999999;stroke-width:1.0416666666666667;stroke-dasharray:5.0,5.0;" x1="947.5087" x2="947.5087" y1="98.9258" y2="1027.3112"/><line style="stroke:#999999;stroke-width:1.0416666666666667;stroke-dasharray:5.0,5.0;" x1="1177.5747" x2="1177.5747" y1="98.9258" y2="1027.3112"/><text fill="#FFFFFF" font-family="Verdana" font-size="12.5" lengthAdjust="spacing" textLength="55.9509" x="46.875" y="90.7694">Operator</text><ellipse cx="77.9755" cy="19.7917" fill="url(#grbeyl1fqlzy71)" rx="8.3333" ry="8.3333" style="stroke:#304D6D;stroke-width:1.0416666666666667;"/><path d="M77.9755,28.125 L77.9755,56.25 M64.4338,36.4583 L91.5171,36.4583 M77.9755,56.25 L64.4338,71.875 M77.9755,56.25 L91.5171,71.875 " fill="none" style="stroke:#304D6D;stroke-width:1.0416666666666667;"/><text fill="#FFFFFF" font-family="Verdana" font-size="12.5" lengthAdjust="spacing" textLength="55.9509" x="46.875" y="1043.0806">Operator</text><ellipse cx="77.9755" cy="1060.612" fill="url(#grbeyl1fqlzy71)" rx="8.3333" ry="8.3333" style="stroke:#304D6D;stroke-width:1.0416666666666667;"/><path d="M77.9755,1068.9453 L77.9755,1097.0703 M64.4338,1077.2786 L91.5171,1077.2786 M77.9755,1097.0703 L64.4338,1112.6953 M77.9755,1097.0703 L91.5171,1112.6953 " fill="none" style="stroke:#304D6D;stroke-width:1.0416666666666667;"/><rect fill="url(#grbeyl1fqlzy71)" height="39.5508" rx="4.1667" ry="4.1667" style="stroke:#304D6D;stroke-width:1.0416666666666667;" width="193.1824" x="239.7013" y="58.3333"/><text fill="#FFFFFF" font-family="Verdana" font-size="12.5" lengthAdjust="spacing" textLength="168.1824" x="252.2013" y="82.4361">PRG1_Conveyer_Operation</text><rect fill="url(#grbeyl1fqlzy71)" height="39.5508" rx="4.1667" ry="4.1667" style="stroke:#304D6D;stroke-width:1.0416666666666667;" width="193.1824" x="239.7013" y="1026.2695"/><text fill="#FFFFFF" font-family="Verdana" font-size="12.5" lengthAdjust="spacing" textLength="168.1824" x="252.2013" y="1050.3723">PRG1_Conveyer_Operation</text><rect fill="url(#grbeyl1fqlzy71)" height="39.5508" rx="4.1667" ry="4.1667" style="stroke:#304D6D;stroke-width:1.0416666666666667;" width="164.917" x="616.8162" y="58.3333"/><text fill="#FFFFFF" font-family="Verdana" font-size="12.5" lengthAdjust="spacing" textLength="139.917" x="629.3162" y="82.4361">PRG2_Object_Detectie</text><rect fill="url(#grbeyl1fqlzy71)" height="39.5508" rx="4.1667" ry="4.1667" style="stroke:#304D6D;stroke-width:1.0416666666666667;" width="164.917" x="616.8162" y="1026.2695"/><text fill="#FFFFFF" font-family="Verdana" font-size="12.5" lengthAdjust="spacing" textLength="139.917" x="629.3162" y="1050.3723">PRG2_Object_Detectie</text><rect fill="url(#grbeyl1fqlzy71)" height="39.5508" rx="4.1667" ry="4.1667" style="stroke:#304D6D;stroke-width:1.0416666666666667;" width="126.9409" x="885.0087" y="58.3333"/><text fill="#FFFFFF" font-family="Verdana" font-size="12.5" lengthAdjust="spacing" textLength="101.9409" x="897.5087" y="82.4361">Global Variables</text><rect fill="url(#grbeyl1fqlzy71)" height="39.5508" rx="4.1667" ry="4.1667" style="stroke:#304D6D;stroke-width:1.0416666666666667;" width="126.9409" x="885.0087" y="1026.2695"/><text fill="#FFFFFF" font-family="Verdana" font-size="12.5" lengthAdjust="spacing" textLength="101.9409" x="897.5087" y="1050.3723">Global Variables</text><rect fill="url(#grbeyl1fqlzy71)" height="39.5508" rx="4.1667" ry="4.1667" style="stroke:#304D6D;stroke-width:1.0416666666666667;" width="145.0073" x="1105.6997" y="58.3333"/><text fill="#FFFFFF" font-family="Verdana" font-size="12.5" lengthAdjust="spacing" textLength="120.0073" x="1118.1997" y="82.4361">FC Calculate speed</text><rect fill="url(#grbeyl1fqlzy71)" height="39.5508" rx="4.1667" ry="4.1667" style="stroke:#304D6D;stroke-width:1.0416666666666667;" width="145.0073" x="1105.6997" y="1026.2695"/><text fill="#FFFFFF" font-family="Verdana" font-size="12.5" lengthAdjust="spacing" textLength="120.0073" x="1118.1997" y="1050.3723">FC Calculate speed</text><polygon fill="#ADD8E6" points="323.7925,136.3932,334.2092,140.5599,323.7925,144.7266,327.9592,140.5599" style="stroke:#ADD8E6;stroke-width:1.0416666666666667;"/><line style="stroke:#ADD8E6;stroke-width:3.125;" x1="77.9755" x2="330.0425" y1="140.5599" y2="140.5599"/><text fill="#FFFFFF" font-family="Verdana" font-size="12.5" lengthAdjust="spacing" textLength="127.8625" x="90.4755" y="130.3202">Press KN_001 (start)</text><polygon fill="#ADD8E6" points="935.9792,175.944,946.3959,180.1107,935.9792,184.2773,940.1459,180.1107" style="stroke:#ADD8E6;stroke-width:1.0416666666666667;"/><line style="stroke:#ADD8E6;stroke-width:3.125;" x1="336.2925" x2="942.2292" y1="180.1107" y2="180.1107"/><text fill="#FFFFFF" font-family="Verdana" font-size="12.5" lengthAdjust="spacing" textLength="153.1128" x="348.7925" y="169.871">Set PRG1_Status to IDLE</text><polygon fill="#ADD8E6" points="935.9792,215.4948,946.3959,219.6615,935.9792,223.8281,940.1459,219.6615" style="stroke:#ADD8E6;stroke-width:1.0416666666666667;"/><line style="stroke:#ADD8E6;stroke-width:3.125;" x1="699.2747" x2="942.2292" y1="219.6615" y2="219.6615"/><text fill="#FFFFFF" font-family="Verdana" font-size="12.5" lengthAdjust="spacing" textLength="213.7878" x="711.7747" y="209.4218">Wait for LS_001 (object detection)</text><path d="M25,235.2865 L96.8201,235.2865 L96.8201,251.9206 L86.4034,262.3372 L20.8333,262.3372 L20.8333,239.4531 A4.1667,4.1667 0 0 1 25,235.2865 " fill="url(#grbeyl1fqlzy72)" style="stroke:#333333;stroke-width:1.0416666666666667;"/><rect fill="none" height="734.7656" rx="4.1667" ry="4.1667" style="stroke:#446E9B;stroke-width:2.0833333333333335;" width="1281.957" x="20.8333" y="235.2865"/><text fill="#3399F3" font-family="Verdana" font-size="12.5" font-weight="bold" lengthAdjust="spacing" textLength="18.6951" x="41.6667" y="253.1392">alt</text><text fill="#333333" font-family="Verdana" font-size="12.5" font-weight="bold" lengthAdjust="spacing" textLength="145.5505" x="117.6534" y="254.1809">[No object detected]</text><polygon fill="#ADD8E6" points="935.9792,298.7305,946.3959,302.8971,935.9792,307.0638,940.1459,302.8971" style="stroke:#ADD8E6;stroke-width:1.0416666666666667;"/><line style="stroke:#ADD8E6;stroke-width:3.125;" x1="699.2747" x2="942.2292" y1="302.8971" y2="302.8971"/><text fill="#FFFFFF" font-family="Verdana" font-size="12.5" lengthAdjust="spacing" textLength="116.449" x="711.7747" y="292.6575">Countup Wachttijd</text><path d="M35.4167,318.5221 L107.2367,318.5221 L107.2367,335.1563 L96.8201,345.5729 L31.25,345.5729 L31.25,322.6888 A4.1667,4.1667 0 0 1 35.4167,318.5221 " fill="url(#grbeyl1fqlzy72)" style="stroke:#333333;stroke-width:1.0416666666666667;"/><rect fill="none" height="234.1471" rx="4.1667" ry="4.1667" style="stroke:#446E9B;stroke-width:2.0833333333333335;" width="1032.783" x="31.25" y="318.5221"/><text fill="#3399F3" font-family="Verdana" font-size="12.5" font-weight="bold" lengthAdjust="spacing" textLength="18.6951" x="52.0833" y="336.3749">alt</text><text fill="#333333" font-family="Verdana" font-size="12.5" font-weight="bold" lengthAdjust="spacing" textLength="206.012" x="128.0701" y="337.4166">[Wachttijd &gt;= MaxWachttijd]</text><polygon fill="#ADD8E6" points="935.9792,381.9661,946.3959,386.1328,935.9792,390.2995,940.1459,386.1328" style="stroke:#ADD8E6;stroke-width:1.0416666666666667;"/><line style="stroke:#ADD8E6;stroke-width:3.125;" x1="699.2747" x2="942.2292" y1="386.1328" y2="386.1328"/><text fill="#FFFFFF" font-family="Verdana" font-size="12.5" lengthAdjust="spacing" textLength="155.1941" x="711.7747" y="375.8931">Set AlarmStatus to TRUE</text><polygon fill="#ADD8E6" points="347.7509,421.5169,337.3342,425.6836,347.7509,429.8503,343.5842,425.6836" style="stroke:#ADD8E6;stroke-width:1.0416666666666667;"/><line style="stroke:#ADD8E6;stroke-width:3.125;" x1="341.5009" x2="947.4375" y1="425.6836" y2="425.6836"/><text fill="#FFFFFF" font-family="Verdana" font-size="12.5" lengthAdjust="spacing" textLength="164.4287" x="359.2092" y="415.4439">Set PRG1_Status to FAULT</text><polygon fill="#ADD8E6" points="323.7925,461.0677,334.2092,465.2344,323.7925,469.401,327.9592,465.2344" style="stroke:#ADD8E6;stroke-width:1.0416666666666667;"/><line style="stroke:#ADD8E6;stroke-width:3.125;" x1="77.9755" x2="330.0425" y1="465.2344" y2="465.2344"/><text fill="#FFFFFF" font-family="Verdana" font-size="12.5" lengthAdjust="spacing" textLength="222.9004" x="90.4755" y="454.9947">Press KN_002 (Acknowledge Alarm)</text><polygon fill="#ADD8E6" points="935.9792,500.6185,946.3959,504.7852,935.9792,508.9518,940.1459,504.7852" style="stroke:#ADD8E6;stroke-width:1.0416666666666667;"/><line style="stroke:#ADD8E6;stroke-width:3.125;" x1="336.2925" x2="942.2292" y1="504.7852" y2="504.7852"/><text fill="#FFFFFF" font-family="Verdana" font-size="12.5" lengthAdjust="spacing" textLength="116.2842" x="348.7925" y="494.5455">Reset AlarmStatus</text><polygon fill="#ADD8E6" points="935.9792,540.1693,946.3959,544.3359,935.9792,548.5026,940.1459,544.3359" style="stroke:#ADD8E6;stroke-width:1.0416666666666667;"/><line style="stroke:#ADD8E6;stroke-width:3.125;" x1="336.2925" x2="942.2292" y1="544.3359" y2="544.3359"/><text fill="#FFFFFF" font-family="Verdana" font-size="12.5" lengthAdjust="spacing" textLength="153.1128" x="348.7925" y="534.0963">Set PRG1_Status to IDLE</text><line style="stroke:#446E9B;stroke-width:1.0416666666666667;stroke-dasharray:2.0,2.0;" x1="20.8333" x2="1302.7903" y1="561.0026" y2="561.0026"/><text fill="#333333" font-family="Verdana" font-size="12.5" font-weight="bold" lengthAdjust="spacing" textLength="189.2761" x="31.25" y="577.8137">[Object detected (LS_001)]</text><polygon fill="#ADD8E6" points="935.9792,614.0625,946.3959,618.2292,935.9792,622.3958,940.1459,618.2292" style="stroke:#ADD8E6;stroke-width:1.0416666666666667;"/><line style="stroke:#ADD8E6;stroke-width:3.125;" x1="699.2747" x2="942.2292" y1="618.2292" y2="618.2292"/><text fill="#FFFFFF" font-family="Verdana" font-size="12.5" lengthAdjust="spacing" textLength="98.9502" x="711.7747" y="607.9895">Reset Wachttijd</text><polygon fill="#ADD8E6" points="935.9792,653.6133,946.3959,657.7799,935.9792,661.9466,940.1459,657.7799" style="stroke:#ADD8E6;stroke-width:1.0416666666666667;"/><line style="stroke:#ADD8E6;stroke-width:3.125;" x1="699.2747" x2="942.2292" y1="657.7799" y2="657.7799"/><text fill="#FFFFFF" font-family="Verdana" font-size="12.5" lengthAdjust="spacing" textLength="181.8848" x="711.7747" y="647.5403">Continue conveyor operation</text><polygon fill="#ADD8E6" points="347.7509,693.1641,337.3342,697.3307,347.7509,701.4974,343.5842,697.3307" style="stroke:#ADD8E6;stroke-width:1.0416666666666667;"/><line style="stroke:#ADD8E6;stroke-width:3.125;" x1="341.5009" x2="947.4375" y1="697.3307" y2="697.3307"/><text fill="#FFFFFF" font-family="Verdana" font-size="12.5" lengthAdjust="spacing" textLength="184.198" x="359.2092" y="687.0911">Set PRG1_Status to RUNNING</text><polygon fill="#ADD8E6" points="323.7925,732.7148,334.2092,736.8815,323.7925,741.0482,327.9592,736.8815" style="stroke:#ADD8E6;stroke-width:1.0416666666666667;"/><line style="stroke:#ADD8E6;stroke-width:3.125;" x1="77.9755" x2="330.0425" y1="736.8815" y2="736.8815"/><text fill="#FFFFFF" font-family="Verdana" font-size="12.5" lengthAdjust="spacing" textLength="215.7837" x="90.4755" y="726.6418">Manually set weight for simulation</text><polygon fill="#ADD8E6" points="1165.7033,772.2656,1176.12,776.4323,1165.7033,780.599,1169.87,776.4323" style="stroke:#ADD8E6;stroke-width:1.0416666666666667;"/><line style="stroke:#ADD8E6;stroke-width:3.125;" x1="336.2925" x2="1171.9533" y1="776.4323" y2="776.4323"/><text fill="#FFFFFF" font-family="Verdana" font-size="12.5" lengthAdjust="spacing" textLength="188.916" x="348.7925" y="766.1926">Function call speedcalculation</text><polygon fill="#ADD8E6" points="347.7509,811.8164,337.3342,815.9831,347.7509,820.1497,343.5842,815.9831" style="stroke:#ADD8E6;stroke-width:1.0416666666666667;"/><line style="stroke:#ADD8E6;stroke-width:3.125;" x1="341.5009" x2="1177.1617" y1="815.9831" y2="815.9831"/><text fill="#FFFFFF" font-family="Verdana" font-size="12.5" lengthAdjust="spacing" textLength="148.8831" x="359.2092" y="805.7434">return calculated speed</text><line style="stroke:#ADD8E6;stroke-width:3.125;stroke-dasharray:2.0,2.0;" x1="336.2925" x2="380.0425" y1="855.5339" y2="855.5339"/><line style="stroke:#ADD8E6;stroke-width:3.125;stroke-dasharray:2.0,2.0;" x1="380.0425" x2="380.0425" y1="855.5339" y2="869.0755"/><line style="stroke:#ADD8E6;stroke-width:3.125;stroke-dasharray:2.0,2.0;" x1="337.3342" x2="380.0425" y1="869.0755" y2="869.0755"/><polygon fill="#ADD8E6" points="347.7509,864.9089,337.3342,869.0755,347.7509,873.2422,343.5842,869.0755" style="stroke:#ADD8E6;stroke-width:1.0416666666666667;"/><text fill="#FFFFFF" font-family="Verdana" font-size="12.5" lengthAdjust="spacing" textLength="337.9822" x="348.7925" y="845.2942">Calculate total runtime based on speed and end point</text><line style="stroke:#ADD8E6;stroke-width:3.125;stroke-dasharray:2.0,2.0;" x1="336.2925" x2="380.0425" y1="908.6263" y2="908.6263"/><line style="stroke:#ADD8E6;stroke-width:3.125;stroke-dasharray:2.0,2.0;" x1="380.0425" x2="380.0425" y1="908.6263" y2="922.168"/><line style="stroke:#ADD8E6;stroke-width:3.125;stroke-dasharray:2.0,2.0;" x1="337.3342" x2="380.0425" y1="922.168" y2="922.168"/><polygon fill="#ADD8E6" points="347.7509,918.0013,337.3342,922.168,347.7509,926.3346,343.5842,922.168" style="stroke:#ADD8E6;stroke-width:1.0416666666666667;"/><text fill="#FFFFFF" font-family="Verdana" font-size="12.5" lengthAdjust="spacing" textLength="231.5125" x="348.7925" y="898.3866">Run until progress reaches end point</text><polygon fill="#ADD8E6" points="347.7509,957.5521,337.3342,961.7188,347.7509,965.8854,343.5842,961.7188" style="stroke:#ADD8E6;stroke-width:1.0416666666666667;"/><line style="stroke:#ADD8E6;stroke-width:3.125;" x1="341.5009" x2="947.4375" y1="961.7188" y2="961.7188"/><text fill="#FFFFFF" font-family="Verdana" font-size="12.5" lengthAdjust="spacing" textLength="153.1128" x="359.2092" y="951.4791">Set PRG1_Status to IDLE</text><polygon fill="#ADD8E6" points="323.7925,1004.3945,334.2092,1008.5612,323.7925,1012.7279,327.9592,1008.5612" style="stroke:#ADD8E6;stroke-width:1.0416666666666667;"/><line style="stroke:#ADD8E6;stroke-width:3.125;" x1="77.9755" x2="330.0425" y1="1008.5612" y2="1008.5612"/><text fill="#FFFFFF" font-family="Verdana" font-size="12.5" lengthAdjust="spacing" textLength="127.832" x="90.4755" y="998.3215">Reset KN_001 (stop)</text><!--SRC=[XPH1Rnen48Nl_XNJdE0GAN2Cr4Y811ILG0GXFQ9PxnGSZBsoPqlpxsjxkomBsvOBiFxUpFZvUR_mZWu4la196hFRuqun2RzNfa271yXGxhVEbYQNLbi7xD04s97XCmgTiySAq6gxuqoN90HA3Wzk5WKv3Bzk03tKVq049Ikf2ZGCDw_BwM0pjkOdVPBRL92o9adYsXKzt2oo3vAyUIGENufgTDX6fzfcgE4TdS9Caq_Oz7tMfYPZ6AEMfKQENX3bYPkC1qAS9hvzIAFSmwiZx-7RV7DtDu2Uvr2fB-9IH4BjUrWH9tQpOkJI0rjuVfmz2H6nuGdxZehXHoWzMrMrRDeJvDMUhEaBr0np2wq5oWM4JwlKE1mHbqKeANVCwgD2elhq11w-mWl-QXDNXUBe8utkq8p-jbm_dU00DKvqx7CoMi_UJlG_pHj2RoJtnXurvLkgklRFfseCNP9lpzMD_Stt29B91MbFi6Xx2RtA_VwrgLNNjc4NhXjMfYIGARfXdxQEhhWm2pgdMwxdy-VvL7Hv5HGlQ4hK-XFY74UALolbnQj3p6hTflOWv3M89gL9uG4Pf5MQvPzmru88DbqSSUaINjs0l1ATbMxOvfgmvN2nN8YT2Y-G37tGXQP92cZoQ3WKLeKNHLUXPMaWQZKKpcvJA1m5fybV2F_hOJhXUBeT1bOds5nLM_H_0m00]--></g></svg>