<svg xmlns="http://www.w3.org/2000/svg" xmlns:xlink="http://www.w3.org/1999/xlink" contentStyleType="text/css" height="588.5417px" preserveAspectRatio="none" style="width:534px;height:588px;" version="1.1" viewBox="0 0 534 588" width="534.375px" zoomAndPan="magnify"><defs><linearGradient id="gi7ai5t1rrhat0" x1="50%" x2="50%" y1="0%" y2="100%"><stop offset="0%" stop-color="#7C9AB9"/><stop offset="100%" stop-color="#304D6D"/></linearGradient></defs><g><ellipse cx="134.5104" cy="27.0833" fill="#3399F3" rx="10.4167" ry="10.4167" style="stroke:#304D6D;stroke-width:1.0416666666666667;"/><g id="OFF"><rect fill="url(#gi7ai5t1rrhat0)" height="68.3431" rx="4.1667" ry="4.1667" style="stroke:#304D6D;stroke-width:1.0416666666666667;" width="105.4942" x="81.7604" y="126.0417"/><line style="stroke:#304D6D;stroke-width:1.0416666666666667;" x1="81.7604" x2="187.2546" y1="160.2132" y2="160.2132"/><text fill="#FFFFFF" font-family="Verdana" font-size="11.4583" lengthAdjust="spacing" textLength="22.2005" x="123.4072" y="147.0942">OFF</text><text fill="#FFFFFF" font-family="Verdana" font-size="11.4583" lengthAdjust="spacing" textLength="74.2442" x="92.1771" y="181.2658">System is off</text></g><g id="IDLE"><rect fill="url(#gi7ai5t1rrhat0)" height="81.6813" rx="4.1667" ry="4.1667" style="stroke:#304D6D;stroke-width:1.0416666666666667;" width="191.1016" x="38.9583" y="282.9271"/><line style="stroke:#304D6D;stroke-width:1.0416666666666667;" x1="38.9583" x2="230.0599" y1="317.0986" y2="317.0986"/><text fill="#FFFFFF" font-family="Verdana" font-size="11.4583" lengthAdjust="spacing" textLength="25.826" x="121.5961" y="303.9796">IDLE</text><text fill="#FFFFFF" font-family="Verdana" font-size="11.4583" lengthAdjust="spacing" textLength="79.8559" x="49.375" y="338.1512">System is idle</text><text fill="#FFFFFF" font-family="Verdana" font-size="11.4583" lengthAdjust="spacing" textLength="159.8516" x="49.375" y="351.4894">Waiting for object detection</text></g><g id="RUNNING"><rect fill="url(#gi7ai5t1rrhat0)" height="95.0195" rx="4.1667" ry="4.1667" style="stroke:#304D6D;stroke-width:1.0416666666666667;" width="233.5948" x="17.7083" y="482.3125"/><line style="stroke:#304D6D;stroke-width:1.0416666666666667;" x1="17.7083" x2="251.3031" y1="516.484" y2="516.484"/><text fill="#FFFFFF" font-family="Verdana" font-size="11.4583" lengthAdjust="spacing" textLength="54.3208" x="107.3453" y="503.3651">RUNNING</text><text fill="#FFFFFF" font-family="Verdana" font-size="11.4583" lengthAdjust="spacing" textLength="115.2995" x="28.125" y="537.5366">Conveyer is running</text><text fill="#FFFFFF" font-family="Verdana" font-size="11.4583" lengthAdjust="spacing" textLength="202.3448" x="28.125" y="550.8748">Measures total runtime from speed</text><text fill="#FFFFFF" font-family="Verdana" font-size="11.4583" lengthAdjust="spacing" textLength="181.9122" x="28.125" y="564.213">Calculates progress from speed</text></g><g id="FAULT"><rect fill="url(#gi7ai5t1rrhat0)" height="81.6813" rx="4.1667" ry="4.1667" style="stroke:#304D6D;stroke-width:1.0416666666666667;" width="153.8396" x="369.0417" y="282.9271"/><line style="stroke:#304D6D;stroke-width:1.0416666666666667;" x1="369.0417" x2="522.8813" y1="317.0986" y2="317.0986"/><text fill="#FFFFFF" font-family="Verdana" font-size="11.4583" lengthAdjust="spacing" textLength="36.1989" x="427.862" y="303.9796">FAULT</text><text fill="#FFFFFF" font-family="Verdana" font-size="11.4583" lengthAdjust="spacing" textLength="122.5896" x="379.4583" y="338.1512">System in fault mode</text><text fill="#FFFFFF" font-family="Verdana" font-size="11.4583" lengthAdjust="spacing" textLength="90.5757" x="379.4583" y="351.4894">Alarm triggered</text></g><!--link *start* to OFF--><g id="link_*start*_OFF"><path d="M134.5104,37.9688 C134.5104,56.3646 134.5104,90.4479 134.5104,119.5417 " fill="none" id="*start*-to-OFF" style="stroke:#446E9B;stroke-width:3.125;"/><polygon fill="#446E9B" points="134.5104,125.7917,138.6771,116.4167,134.5104,120.5833,130.3438,116.4167,134.5104,125.7917" style="stroke:#446E9B;stroke-width:3.125;"/><text fill="#FFFFFF" font-family="Verdana" font-size="12.5" lengthAdjust="spacing" textLength="85.8093" x="140.7604" y="86.6028">PLC Power-up</text></g><!--link OFF to IDLE--><g id="link_OFF_IDLE"><path d="M134.5104,194.7083 C134.5104,220.2083 134.5104,249.1667 134.5104,276.1979 " fill="none" id="OFF-to-IDLE" style="stroke:#446E9B;stroke-width:3.125;"/><polygon fill="#446E9B" points="134.5104,282.4479,138.6771,273.0729,134.5104,277.2396,130.3438,273.0729,134.5104,282.4479" style="stroke:#446E9B;stroke-width:3.125;"/><text fill="#FFFFFF" font-family="Verdana" font-size="12.5" lengthAdjust="spacing" textLength="129.3701" x="140.7604" y="243.4882">Start Button Pressed</text></g><!--link IDLE to RUNNING--><g id="link_IDLE_RUNNING"><path d="M76.6667,364.8125 C67.5833,373.8958 59.4896,384.3229 54.3021,395.8542 C44.2292,418.2292 44.7292,428.4688 54.3021,451.0625 C59.0625,462.3125 62.1856,468.0538 70.4564,477.3767 " fill="none" id="IDLE-to-RUNNING" style="stroke:#446E9B;stroke-width:3.125;"/><polygon fill="#446E9B" points="74.6042,482.0521,71.4995,472.2739,71.1477,478.156,65.2657,477.8042,74.6042,482.0521" style="stroke:#446E9B;stroke-width:3.125;"/><text fill="#FFFFFF" font-family="Verdana" font-size="12.5" lengthAdjust="spacing" textLength="101.9897" x="60.5521" y="413.7069">Object Detected</text><text fill="#FFFFFF" font-family="Verdana" font-size="12.5" lengthAdjust="spacing" textLength="86.4685" x="68.3127" y="428.2577">and Weighed.</text><text fill="#FFFFFF" font-family="Verdana" font-size="12.5" lengthAdjust="spacing" textLength="100.116" x="61.489" y="442.8085">Calculate speed</text></g><!--link RUNNING to IDLE--><g id="link_RUNNING_IDLE"><path d="M161.2396,481.9271 C165.6979,472.0313 169.6354,461.4375 172.0104,451.0625 C177.4792,427.1458 177.9063,419.6771 172.0104,395.8542 C169.3854,385.2917 167.7254,380.1404 162.7254,370.3383 " fill="none" id="RUNNING-to-IDLE" style="stroke:#446E9B;stroke-width:3.125;"/><polygon fill="#446E9B" points="159.8854,364.7708,160.4337,375.0154,162.2521,369.4104,167.857,371.2288,159.8854,364.7708" style="stroke:#446E9B;stroke-width:3.125;"/><text fill="#FFFFFF" font-family="Verdana" font-size="12.5" lengthAdjust="spacing" textLength="105.1758" x="182.5208" y="420.9986">Object Transport</text><text fill="#FFFFFF" font-family="Verdana" font-size="12.5" lengthAdjust="spacing" textLength="60.2417" x="204.9879" y="435.5494">Complete</text></g><!--link IDLE to FAULT--><g id="link_IDLE_FAULT"><path d="M230.5208,360.2083 C241.3854,363.1979 252.3854,365.7396 263.0938,367.5104 C295.0625,372.8021 304.1771,373.6146 336.0104,367.5104 C346.8021,365.4479 351.9625,364.3286 362.7541,360.6932 " fill="none" id="IDLE-to-FAULT" style="stroke:#446E9B;stroke-width:3.125;"/><polygon fill="#446E9B" points="368.6771,358.6979,358.4625,357.7422,363.7413,360.3607,361.1228,365.6395,368.6771,358.6979" style="stroke:#446E9B;stroke-width:3.125;"/><text fill="#FFFFFF" font-family="Verdana" font-size="12.5" lengthAdjust="spacing" textLength="36.9995" x="281.1296" y="344.7382">Alarm</text><text fill="#FFFFFF" font-family="Verdana" font-size="12.5" lengthAdjust="spacing" textLength="60.5713" x="269.3438" y="359.289">Triggered</text></g><!--link FAULT to IDLE--><g id="link_FAULT_IDLE"><path d="M368.5417,323.7604 C326.7604,323.7604 281.0729,323.7604 236.75,323.7604 " fill="none" id="FAULT-to-IDLE" style="stroke:#446E9B;stroke-width:3.125;"/><polygon fill="#446E9B" points="230.5,323.7604,239.875,327.9271,235.7083,323.7604,239.875,319.5938,230.5,323.7604" style="stroke:#446E9B;stroke-width:3.125;"/><text fill="#FFFFFF" font-family="Verdana" font-size="12.5" lengthAdjust="spacing" textLength="36.9995" x="281.2965" y="297.8632">Alarm</text><text fill="#FFFFFF" font-family="Verdana" font-size="12.5" lengthAdjust="spacing" textLength="91.1133" x="254.2396" y="312.414">Acknowledged</text></g><!--SRC=[NP9DRi8m48NtFiLqMoazG1T854g5H04L48lIXOadmSNnHFQa25NSlNP-82MBHChx_6RcZH_uW0M2BsMAHkwJqq4p2d_KjfHE5h2NwJ5tL5cLaY47xAGDi4FBGdm-Va6I360ncS0pB6SZMD89NLAL8lwAqdGyUmtQYgLZUAcOoSBIeVUeHAr5w6Cpdq_dRu5RxBynPHWZXm-gdPLMmHPrVa3rjBCZQTBAI8uDOt3e3lOgjGxhkazo70vHKPfWsDORm6IucQq3EZJI5JkxTZhFqGMxHhXvjS0mFLew6LHvO8JdM3_EzoiWFFMhIM1rzem5Q0-KPUBIiRLR3-uokT9Q6UmhMwbPsnoo43WrywWw4KssiRbwTmdqx6zfZiZ-u1bThE4gQuFd7V6EqbTX7S34qaI8TRWEcQEYZVZEiLk0Xz9H7XVPXwzjDKasJNLnT_DQo6Hb60fI-0-eumuth5l7vGy0]--></g></svg>