<svg xmlns="http://www.w3.org/2000/svg" xmlns:xlink="http://www.w3.org/1999/xlink" contentStyleType="text/css" height="691.6667px" preserveAspectRatio="none" style="width:404px;height:691px;" version="1.1" viewBox="0 0 404 691" width="404.1667px" zoomAndPan="magnify"><defs><linearGradient id="g13dvxkohduu860" x1="50%" x2="50%" y1="0%" y2="100%"><stop offset="0%" stop-color="#7C9AB9"/><stop offset="100%" stop-color="#304D6D"/></linearGradient></defs><g><ellipse cx="27.0833" cy="58.5521" fill="#3399F3" rx="10.4167" ry="10.4167" style="stroke:#304D6D;stroke-width:1.0416666666666667;"/><g id="ReadInputs"><rect fill="url(#g13dvxkohduu860)" height="81.6813" rx="4.1667" ry="4.1667" style="stroke:#304D6D;stroke-width:1.0416666666666667;" width="155.2663" x="181.7396" y="17.7083"/><line style="stroke:#304D6D;stroke-width:1.0416666666666667;" x1="181.7396" x2="337.0059" y1="51.8799" y2="51.8799"/><text fill="#FFFFFF" font-family="Verdana" font-size="11.4583" lengthAdjust="spacing" textLength="64.9455" x="226.9" y="38.7609">ReadInputs</text><text fill="#FFFFFF" font-family="Verdana" font-size="11.4583" lengthAdjust="spacing" textLength="87.2747" x="192.1563" y="72.9324">Set Alarm false</text><text fill="#FFFFFF" font-family="Verdana" font-size="11.4583" lengthAdjust="spacing" textLength="124.0163" x="192.1563" y="86.2707">Set WaitTime = 0 sec</text></g><g id="PRG1_IDLE"><rect fill="url(#g13dvxkohduu860)" height="81.6813" rx="4.1667" ry="4.1667" style="stroke:#304D6D;stroke-width:1.0416666666666667;" width="142.0288" x="118.5729" y="187.9271"/><line style="stroke:#304D6D;stroke-width:1.0416666666666667;" x1="118.5729" x2="260.6017" y1="222.0986" y2="222.0986"/><text fill="#FFFFFF" font-family="Verdana" font-size="11.4583" lengthAdjust="spacing" textLength="62.5956" x="158.2895" y="208.9796">PRG1_IDLE</text><text fill="#FFFFFF" font-family="Verdana" font-size="11.4583" lengthAdjust="spacing" textLength="84.3765" x="128.9896" y="243.1512">Wait for object</text><text fill="#FFFFFF" font-family="Verdana" font-size="11.4583" lengthAdjust="spacing" textLength="110.7788" x="128.9896" y="256.4894">Count up idle timer</text></g><g id="ObjectDetected"><rect fill="url(#g13dvxkohduu860)" height="81.6813" rx="4.1667" ry="4.1667" style="stroke:#304D6D;stroke-width:1.0416666666666667;" width="144.5185" x="129.8229" y="372.7396"/><line style="stroke:#304D6D;stroke-width:1.0416666666666667;" x1="129.8229" x2="274.3415" y1="406.9111" y2="406.9111"/><text fill="#FFFFFF" font-family="Verdana" font-size="11.4583" lengthAdjust="spacing" textLength="89.8483" x="157.158" y="393.7921">ObjectDetected</text><text fill="#FFFFFF" font-family="Verdana" font-size="11.4583" lengthAdjust="spacing" textLength="88.7461" x="140.2396" y="427.9637">Reset wachttijd</text><text fill="#FFFFFF" font-family="Verdana" font-size="11.4583" lengthAdjust="spacing" textLength="113.2685" x="140.2396" y="441.3019">Alarmstatus = false</text></g><g id="ALARM"><rect fill="url(#g13dvxkohduu860)" height="81.6813" rx="4.1667" ry="4.1667" style="stroke:#304D6D;stroke-width:1.0416666666666667;" width="140.7756" x="21.2813" y="485.6667"/><line style="stroke:#304D6D;stroke-width:1.0416666666666667;" x1="21.2813" x2="162.0568" y1="519.8382" y2="519.8382"/><text fill="#FFFFFF" font-family="Verdana" font-size="11.4583" lengthAdjust="spacing" textLength="39.9083" x="71.7149" y="506.7192">ALARM</text><text fill="#FFFFFF" font-family="Verdana" font-size="11.4583" lengthAdjust="spacing" textLength="88.7461" x="31.6979" y="540.8908">Reset wachttijd</text><text fill="#FFFFFF" font-family="Verdana" font-size="11.4583" lengthAdjust="spacing" textLength="109.5256" x="31.6979" y="554.229">Alarmstatus = true</text></g><g id="Outputs"><rect fill="url(#g13dvxkohduu860)" height="81.6813" rx="4.1667" ry="4.1667" style="stroke:#304D6D;stroke-width:1.0416666666666667;" width="164.9287" x="119.6146" y="598.6042"/><line style="stroke:#304D6D;stroke-width:1.0416666666666667;" x1="119.6146" x2="284.5433" y1="632.7757" y2="632.7757"/><text fill="#FFFFFF" font-family="Verdana" font-size="11.4583" lengthAdjust="spacing" textLength="45.7718" x="179.193" y="619.6567">Outputs</text><text fill="#FFFFFF" font-family="Verdana" font-size="11.4583" lengthAdjust="spacing" textLength="130.277" x="130.0313" y="653.8283">Write GVL Alarmstatus</text><text fill="#FFFFFF" font-family="Verdana" font-size="11.4583" lengthAdjust="spacing" textLength="133.6787" x="130.0313" y="667.1665">Write GVL Objectstatus</text></g><!--link *start* to ReadInputs--><g id="link_*start*_ReadInputs"><path d="M37.9792,58.5521 C63.3646,58.5521 122.0729,58.5521 175.1042,58.5521 " fill="none" id="*start*-to-ReadInputs" style="stroke:#446E9B;stroke-width:3.125;"/><polygon fill="#446E9B" points="181.3542,58.5521,171.9792,54.3854,176.1458,58.5521,171.9792,62.7188,181.3542,58.5521" style="stroke:#446E9B;stroke-width:3.125;"/><text fill="#FFFFFF" font-family="Verdana" font-size="12.5" lengthAdjust="spacing" textLength="96.7468" x="61.7083" y="47.2382">System Started</text></g><!--link ReadInputs to PRG1_IDLE--><g id="link_ReadInputs_PRG1_IDLE"><path d="M207.4479,99.5521 C198.8958,108.7604 191.2708,119.2396 186.4583,130.6354 C178.9896,148.3542 178.0791,163.3324 180.152,181.3949 " fill="none" id="ReadInputs-to-PRG1_IDLE" style="stroke:#446E9B;stroke-width:3.125;"/><polygon fill="#446E9B" points="180.8646,187.6042,183.9352,177.8152,180.2708,182.4298,175.6562,178.7654,180.8646,187.6042" style="stroke:#446E9B;stroke-width:3.125;"/><text fill="#FFFFFF" font-family="Verdana" font-size="12.5" lengthAdjust="spacing" textLength="103.54" x="192.7083" y="148.4882">PRG1 in status 1</text></g><!--link PRG1_IDLE to ObjectDetected--><g id="link_PRG1_IDLE_ObjectDetected"><path d="M192.3229,269.9167 C194.4063,300.375 196.8338,335.8479 198.9171,366.2958 " fill="none" id="PRG1_IDLE-to-ObjectDetected" style="stroke:#446E9B;stroke-width:3.125;"/><polygon fill="#446E9B" points="199.3438,372.5313,202.8607,362.8937,198.9882,367.3351,194.5468,363.4625,199.3438,372.5313" style="stroke:#446E9B;stroke-width:3.125;"/><text fill="#FFFFFF" font-family="Verdana" font-size="12.5" lengthAdjust="spacing" textLength="45.0073" x="203.7594" y="318.7174">LS_001</text><text fill="#FFFFFF" font-family="Verdana" font-size="12.5" lengthAdjust="spacing" textLength="46.1304" x="203.1979" y="333.2681">is HIGH</text></g><!--link PRG1_IDLE to ALARM--><g id="link_PRG1_IDLE_ALARM"><path d="M139.7708,269.9479 C131.125,279.2083 123.1667,289.6667 117.7083,300.8646 C88.7396,360.3229 86.366,432.5783 88.3035,479.2866 " fill="none" id="PRG1_IDLE-to-ALARM" style="stroke:#446E9B;stroke-width:3.125;"/><polygon fill="#446E9B" points="88.5625,485.5313,92.337,475.9916,88.3466,480.3274,84.0109,476.337,88.5625,485.5313" style="stroke:#446E9B;stroke-width:3.125;"/><text fill="#FFFFFF" font-family="Verdana" font-size="12.5" lengthAdjust="spacing" textLength="56.6345" x="123.9583" y="318.7174">Waittime</text><text fill="#FFFFFF" font-family="Verdana" font-size="12.5" lengthAdjust="spacing" textLength="45.8374" x="129.3569" y="333.2681">expires</text></g><!--link ALARM to Outputs--><g id="link_ALARM_Outputs"><path d="M131.5313,567.5729 C141.5417,577.6146 147.8583,583.9695 157.8687,594.0112 " fill="none" id="ALARM-to-Outputs" style="stroke:#446E9B;stroke-width:3.125;"/><polygon fill="#446E9B" points="162.2813,598.4375,158.6133,588.8564,158.6041,594.7489,152.7116,594.7397,162.2813,598.4375" style="stroke:#446E9B;stroke-width:3.125;"/></g><!--link ObjectDetected to Outputs--><g id="link_ObjectDetected_Outputs"><path d="M202.0833,454.625 C202.0833,495.2292 202.0833,551.4896 202.0833,592.1146 " fill="none" id="ObjectDetected-to-Outputs" style="stroke:#446E9B;stroke-width:3.125;"/><polygon fill="#446E9B" points="202.0833,598.3646,206.25,588.9896,202.0833,593.1563,197.9167,588.9896,202.0833,598.3646" style="stroke:#446E9B;stroke-width:3.125;"/></g><!--link Outputs to ReadInputs--><g id="link_Outputs_ReadInputs"><path d="M227.9167,598.2813 C249.6146,562.2292 279.1875,507.0104 292.7083,454.4167 C392.6042,65.7396 315.7917,162.4271 306.25,130.6354 C303.0208,119.8854 300.9117,114.54 294.8492,104.9046 " fill="none" id="Outputs-to-ReadInputs" style="stroke:#446E9B;stroke-width:3.125;"/><polygon fill="#446E9B" points="291.5208,99.6146,292.9868,109.7685,294.2945,104.0229,300.0401,105.3306,291.5208,99.6146" style="stroke:#446E9B;stroke-width:3.125;"/></g><!--SRC=[TL9TQy8m57tFhxXx7HJqTU10vb2XOwEE-J27nEPgesrQablS6Fxt9OrTurSVGk6Sd7lFERcZ30i4K_4KSxwAzfaaP6OdLSKrBs35qzr6bxKIQPcN6aXpPSaQ5J7sUVy5aPQRZA97I92BgQfgCl00inz3MC2Ck2OKBC0YORbloRY_d8xYPqjr_o0L6E9K6-Yp3emizNMrnPH6IFP4OVdnRDdhzHTA6fXCnvEGxgI7yJ1viRGvbqIom8N2xqfgDCmZJhAcuvh3dEjYeIoAj5DbnSwcHHsRjRUY4w-CMO-4eVjV1d2M1f8V1MkU6xoAkttVxRumW1uOJDcXbVuts0X3SuG1kfkmjjsKpV8N-9DjZw2kG8eSmMMYE_4pmtw4-ovoJrn8iETfPdFTYjl4nkcnpS7HyVyyNu8VqrPrJRd5JiL8ru5MsuXNwrgTQ_k6OVmHXxTlSlp-0Qa9-V07]--></g></svg>