<svg xmlns="http://www.w3.org/2000/svg" xmlns:xlink="http://www.w3.org/1999/xlink" contentStyleType="text/css" height="356px" preserveAspectRatio="none" style="width:517px;height:356px;background:#FFFFFF;" version="1.1" viewBox="0 0 517 356" width="517px" zoomAndPan="magnify"><defs/><g><line style="stroke:#181818;stroke-width:0.5;stroke-dasharray:5.0,5.0;" x1="39" x2="39" y1="81.2969" y2="276.0938"/><line style="stroke:#181818;stroke-width:0.5;stroke-dasharray:5.0,5.0;" x1="160.7549" x2="160.7549" y1="81.2969" y2="276.0938"/><line style="stroke:#181818;stroke-width:0.5;stroke-dasharray:5.0,5.0;" x1="322.8848" x2="322.8848" y1="81.2969" y2="276.0938"/><line style="stroke:#181818;stroke-width:0.5;stroke-dasharray:5.0,5.0;" x1="489.9907" x2="489.9907" y1="81.2969" y2="276.0938"/><text fill="#000000" font-family="sans-serif" font-size="14" lengthAdjust="spacing" textLength="62.665" x="5" y="77.9951">Operator</text><ellipse cx="39.3325" cy="13.5" fill="#E2E2F0" rx="8" ry="8" style="stroke:#181818;stroke-width:0.5;"/><path d="M39.3325,21.5 L39.3325,48.5 M26.3325,29.5 L52.3325,29.5 M39.3325,48.5 L26.3325,63.5 M39.3325,48.5 L52.3325,63.5 " fill="none" style="stroke:#181818;stroke-width:0.5;"/><text fill="#000000" font-family="sans-serif" font-size="14" lengthAdjust="spacing" textLength="62.665" x="5" y="288.0889">Operator</text><ellipse cx="39.3325" cy="299.8906" fill="#E2E2F0" rx="8" ry="8" style="stroke:#181818;stroke-width:0.5;"/><path d="M39.3325,307.8906 L39.3325,334.8906 M26.3325,315.8906 L52.3325,315.8906 M39.3325,334.8906 L26.3325,349.8906 M39.3325,334.8906 L52.3325,349.8906 " fill="none" style="stroke:#181818;stroke-width:0.5;"/><rect fill="#E2E2F0" height="30.2969" rx="2.5" ry="2.5" style="stroke:#181818;stroke-width:0.5;" width="154.8408" x="83.7549" y="50"/><text fill="#000000" font-family="sans-serif" font-size="14" lengthAdjust="spacing" textLength="140.8408" x="90.7549" y="69.9951">Conveyor Operation</text><rect fill="#E2E2F0" height="30.2969" rx="2.5" ry="2.5" style="stroke:#181818;stroke-width:0.5;" width="154.8408" x="83.7549" y="275.0938"/><text fill="#000000" font-family="sans-serif" font-size="14" lengthAdjust="spacing" textLength="140.8408" x="90.7549" y="295.0889">Conveyor Operation</text><rect fill="#E2E2F0" height="30.2969" rx="2.5" ry="2.5" style="stroke:#181818;stroke-width:0.5;" width="132.0566" x="256.8848" y="50"/><text fill="#000000" font-family="sans-serif" font-size="14" lengthAdjust="spacing" textLength="118.0566" x="263.8848" y="69.9951">Object Detection</text><rect fill="#E2E2F0" height="30.2969" rx="2.5" ry="2.5" style="stroke:#181818;stroke-width:0.5;" width="132.0566" x="256.8848" y="275.0938"/><text fill="#000000" font-family="sans-serif" font-size="14" lengthAdjust="spacing" textLength="118.0566" x="263.8848" y="295.0889">Object Detection</text><rect fill="#E2E2F0" height="30.2969" rx="2.5" ry="2.5" style="stroke:#181818;stroke-width:0.5;" width="42.2256" x="468.9907" y="50"/><text fill="#000000" font-family="sans-serif" font-size="14" lengthAdjust="spacing" textLength="28.2256" x="475.9907" y="69.9951">GVL</text><rect fill="#E2E2F0" height="30.2969" rx="2.5" ry="2.5" style="stroke:#181818;stroke-width:0.5;" width="42.2256" x="468.9907" y="275.0938"/><text fill="#000000" font-family="sans-serif" font-size="14" lengthAdjust="spacing" textLength="28.2256" x="475.9907" y="295.0889">GVL</text><polygon fill="#181818" points="149.1753,108.4297,159.1753,112.4297,149.1753,116.4297,153.1753,112.4297" style="stroke:#181818;stroke-width:1.0;"/><line style="stroke:#181818;stroke-width:1.0;" x1="39.3325" x2="155.1753" y1="112.4297" y2="112.4297"/><text fill="#000000" font-family="sans-serif" font-size="13" lengthAdjust="spacing" textLength="97.8428" x="46.3325" y="107.3638">Start Conveyor</text><polygon fill="#181818" points="478.1035,137.5625,488.1035,141.5625,478.1035,145.5625,482.1035,141.5625" style="stroke:#181818;stroke-width:1.0;"/><line style="stroke:#181818;stroke-width:1.0;" x1="161.1753" x2="484.1035" y1="141.5625" y2="141.5625"/><text fill="#000000" font-family="sans-serif" font-size="13" lengthAdjust="spacing" textLength="194.105" x="168.1753" y="136.4966">Set Conveyor State (Running)</text><polygon fill="#181818" points="478.1035,166.6953,488.1035,170.6953,478.1035,174.6953,482.1035,170.6953" style="stroke:#181818;stroke-width:1.0;"/><line style="stroke:#181818;stroke-width:1.0;" x1="322.9131" x2="484.1035" y1="170.6953" y2="170.6953"/><text fill="#000000" font-family="sans-serif" font-size="13" lengthAdjust="spacing" textLength="143.1904" x="329.9131" y="165.6294">Read Object Presence</text><polygon fill="#181818" points="172.1753,195.8281,162.1753,199.8281,172.1753,203.8281,168.1753,199.8281" style="stroke:#181818;stroke-width:1.0;"/><line style="stroke:#181818;stroke-width:1.0;" x1="166.1753" x2="321.9131" y1="199.8281" y2="199.8281"/><text fill="#000000" font-family="sans-serif" font-size="13" lengthAdjust="spacing" textLength="137.7378" x="178.1753" y="194.7622">Notify Object Missing</text><polygon fill="#181818" points="478.1035,224.9609,488.1035,228.9609,478.1035,232.9609,482.1035,228.9609" style="stroke:#181818;stroke-width:1.0;"/><line style="stroke:#181818;stroke-width:1.0;" x1="161.1753" x2="484.1035" y1="228.9609" y2="228.9609"/><text fill="#000000" font-family="sans-serif" font-size="13" lengthAdjust="spacing" textLength="172.6436" x="168.1753" y="223.895">Set Conveyor State (Fault)</text><polygon fill="#181818" points="478.1035,254.0938,488.1035,258.0938,478.1035,262.0938,482.1035,258.0938" style="stroke:#181818;stroke-width:1.0;"/><line style="stroke:#181818;stroke-width:1.0;" x1="322.9131" x2="484.1035" y1="258.0938" y2="258.0938"/><text fill="#000000" font-family="sans-serif" font-size="13" lengthAdjust="spacing" textLength="63.959" x="329.9131" y="253.0278">Set Alarm</text><!--SRC=[ZSwn3i8W483XdQUuTDB1GKS74wFHHQsfnlt4qw3rQE1gqhUNsj8ENPmWt0S_gCKwI0jo63QgG2T6cm9Pu8p-DGNqaAmiVwZgdB6S3EJi9zFhaxJ0cYGi0xUzx9IABPWisiGSJX8Kn8ngZiCyNAYdrCzgAWIZh6Gs_1YhfjtPZF06xI-EZZonfjx4ti6AkLVHxOttuQr_iXiiSnb4QxdCqRs_]--></g></svg>