<svg xmlns="http://www.w3.org/2000/svg" xmlns:xlink="http://www.w3.org/1999/xlink" contentStyleType="text/css" height="208px" preserveAspectRatio="none" style="width:525px;height:208px;background:#FFFFFF;" version="1.1" viewBox="0 0 525 208" width="525px" zoomAndPan="magnify"><defs/><g><line style="stroke:#181818;stroke-width:0.5;stroke-dasharray:5.0,5.0;" x1="82" x2="82" y1="36.2969" y2="172.8281"/><line style="stroke:#181818;stroke-width:0.5;stroke-dasharray:5.0,5.0;" x1="355.7681" x2="355.7681" y1="36.2969" y2="172.8281"/><line style="stroke:#181818;stroke-width:0.5;stroke-dasharray:5.0,5.0;" x1="497.938" x2="497.938" y1="36.2969" y2="172.8281"/><rect fill="#E2E2F0" height="30.2969" rx="2.5" ry="2.5" style="stroke:#181818;stroke-width:0.5;" width="154.8408" x="5" y="5"/><text fill="#000000" font-family="sans-serif" font-size="14" lengthAdjust="spacing" textLength="140.8408" x="12" y="24.9951">Conveyor Operation</text><rect fill="#E2E2F0" height="30.2969" rx="2.5" ry="2.5" style="stroke:#181818;stroke-width:0.5;" width="154.8408" x="5" y="171.8281"/><text fill="#000000" font-family="sans-serif" font-size="14" lengthAdjust="spacing" textLength="140.8408" x="12" y="191.8232">Conveyor Operation</text><rect fill="#E2E2F0" height="30.2969" rx="2.5" ry="2.5" style="stroke:#181818;stroke-width:0.5;" width="221.1699" x="245.7681" y="5"/><text fill="#000000" font-family="sans-serif" font-size="14" lengthAdjust="spacing" textLength="207.1699" x="252.7681" y="24.9951">Calculate Conveyor Speed FC</text><rect fill="#E2E2F0" height="30.2969" rx="2.5" ry="2.5" style="stroke:#181818;stroke-width:0.5;" width="221.1699" x="245.7681" y="171.8281"/><text fill="#000000" font-family="sans-serif" font-size="14" lengthAdjust="spacing" textLength="207.1699" x="252.7681" y="191.8232">Calculate Conveyor Speed FC</text><rect fill="#E2E2F0" height="30.2969" rx="2.5" ry="2.5" style="stroke:#181818;stroke-width:0.5;" width="42.2256" x="476.938" y="5"/><text fill="#000000" font-family="sans-serif" font-size="14" lengthAdjust="spacing" textLength="28.2256" x="483.938" y="24.9951">GVL</text><rect fill="#E2E2F0" height="30.2969" rx="2.5" ry="2.5" style="stroke:#181818;stroke-width:0.5;" width="42.2256" x="476.938" y="171.8281"/><text fill="#000000" font-family="sans-serif" font-size="14" lengthAdjust="spacing" textLength="28.2256" x="483.938" y="191.8232">GVL</text><polygon fill="#181818" points="486.0508,63.4297,496.0508,67.4297,486.0508,71.4297,490.0508,67.4297" style="stroke:#181818;stroke-width:1.0;"/><line style="stroke:#181818;stroke-width:1.0;" x1="82.4204" x2="492.0508" y1="67.4297" y2="67.4297"/><text fill="#000000" font-family="sans-serif" font-size="13" lengthAdjust="spacing" textLength="155.2065" x="89.4204" y="62.3638">Read Load on Conveyor</text><polygon fill="#181818" points="344.353,92.5625,354.353,96.5625,344.353,100.5625,348.353,96.5625" style="stroke:#181818;stroke-width:1.0;"/><line style="stroke:#181818;stroke-width:1.0;" x1="82.4204" x2="350.353" y1="96.5625" y2="96.5625"/><text fill="#000000" font-family="sans-serif" font-size="13" lengthAdjust="spacing" textLength="249.9326" x="89.4204" y="91.4966">Call CalculateConveyorSpeedFC(Load)</text><polygon fill="#181818" points="93.4204,121.6953,83.4204,125.6953,93.4204,129.6953,89.4204,125.6953" style="stroke:#181818;stroke-width:1.0;"/><line style="stroke:#181818;stroke-width:1.0;stroke-dasharray:2.0,2.0;" x1="87.4204" x2="355.353" y1="125.6953" y2="125.6953"/><text fill="#000000" font-family="sans-serif" font-size="13" lengthAdjust="spacing" textLength="106.8374" x="99.4204" y="120.6294">Conveyor Speed</text><polygon fill="#181818" points="486.0508,150.8281,496.0508,154.8281,486.0508,158.8281,490.0508,154.8281" style="stroke:#181818;stroke-width:1.0;"/><line style="stroke:#181818;stroke-width:1.0;" x1="82.4204" x2="492.0508" y1="154.8281" y2="154.8281"/><text fill="#000000" font-family="sans-serif" font-size="13" lengthAdjust="spacing" textLength="132.3169" x="89.4204" y="149.7622">Set Conveyor Speed</text><!--SRC=[NOwn2iCW48Ptd-B8r0uPkZfq4UmIA3GX-s5ka8gACO6-VRKIsxeStF7z_tSUGzHAUxGH9boV5y0LEk7iJYyNuEufODJETip_a7ApAbyBZ4Pj1YD1ZOsUQ04f_bEtUM2iIFfhte33Wt21mQMHsexy5weY3abZeBeEz6EIufGhpgpYVSgM4jvyrJumKco8Dm00]--></g></svg>