<svg xmlns="http://www.w3.org/2000/svg" xmlns:xlink="http://www.w3.org/1999/xlink" contentStyleType="text/css" height="551.0417px" preserveAspectRatio="none" style="width:627px;height:551px;" version="1.1" viewBox="0 0 627 551" width="627.0833px" zoomAndPan="magnify"><defs><linearGradient id="g1fq4rjfdoscuq0" x1="50%" x2="50%" y1="0%" y2="100%"><stop offset="0%" stop-color="#7C9AB9"/><stop offset="100%" stop-color="#304D6D"/></linearGradient></defs><g><ellipse cx="27.0833" cy="51.875" fill="#3399F3" rx="10.4167" ry="10.4167" style="stroke:#304D6D;stroke-width:1.0416666666666667;"/><g id="OFF"><rect fill="url(#g1fq4rjfdoscuq0)" height="68.3431" rx="4.1667" ry="4.1667" style="stroke:#304D6D;stroke-width:1.0416666666666667;" width="105.4942" x="171.2083" y="17.7083"/><line style="stroke:#304D6D;stroke-width:1.0416666666666667;" x1="171.2083" x2="276.7025" y1="51.8799" y2="51.8799"/><text fill="#FFFFFF" font-family="Verdana" font-size="11.4583" lengthAdjust="spacing" textLength="22.2005" x="212.8552" y="38.7609">OFF</text><text fill="#FFFFFF" font-family="Verdana" font-size="11.4583" lengthAdjust="spacing" textLength="74.2442" x="181.625" y="72.9324">System is off</text></g><path d="M129.9688,174.5938 L317.9453,174.5938 A4.1667,4.1667 0 0 1 322.112,178.7604 L322.112,251.0667 L125.8021,251.0667 L125.8021,178.7604 A4.1667,4.1667 0 0 1 129.9688,174.5938 " fill="url(#g1fq4rjfdoscuq0)" style="stroke:url(#g1fq4rjfdoscuq0);stroke-width:1.0416666666666667;"/><path d="M125.8021,251.0667 L322.112,251.0667 L322.112,338.1598 A4.1667,4.1667 0 0 1 317.9453,342.3265 L129.9688,342.3265 A4.1667,4.1667 0 0 1 125.8021,338.1598 L125.8021,251.0667 " fill="#FFFFFF" style="stroke:#FFFFFF;stroke-width:1.0416666666666667;"/><rect fill="none" height="167.7327" rx="4.1667" ry="4.1667" style="stroke:#304D6D;stroke-width:1.0416666666666667;" width="196.3099" x="125.8021" y="174.5938"/><line style="stroke:#304D6D;stroke-width:1.0416666666666667;" x1="125.8021" x2="322.112" y1="251.0667" y2="251.0667"/><line style="stroke:#304D6D;stroke-width:1.0416666666666667;" x1="125.8021" x2="322.112" y1="208.7653" y2="208.7653"/><text fill="#FFFFFF" font-family="Verdana" font-size="11.4583" lengthAdjust="spacing" textLength="25.826" x="211.044" y="195.6463">IDLE</text><text fill="#FFFFFF" font-family="Verdana" font-size="11.4583" lengthAdjust="spacing" textLength="79.8559" x="136.2188" y="224.6095">System is idle</text><text fill="#FFFFFF" font-family="Verdana" font-size="11.4583" lengthAdjust="spacing" textLength="159.8516" x="136.2188" y="237.9477">Waiting for object detection</text><g id="IDLE.Detected"><rect fill="url(#g1fq4rjfdoscuq0)" height="68.3431" rx="4.1667" ry="4.1667" style="stroke:#304D6D;stroke-width:1.0416666666666667;" width="124.3266" x="138.3021" y="263.5667"/><line style="stroke:#304D6D;stroke-width:1.0416666666666667;" x1="138.3021" x2="262.6287" y1="297.7383" y2="297.7383"/><text fill="#FFFFFF" font-family="Verdana" font-size="11.4583" lengthAdjust="spacing" textLength="52.5304" x="174.2002" y="284.6193">Detected</text><text fill="#FFFFFF" font-family="Verdana" font-size="11.4583" lengthAdjust="spacing" textLength="93.0766" x="148.7188" y="318.7908">Calculate Speed</text></g><g id="RUNNING"><rect fill="url(#g1fq4rjfdoscuq0)" height="95.0195" rx="4.1667" ry="4.1667" style="stroke:#304D6D;stroke-width:1.0416666666666667;" width="238.1602" x="104.875" y="445.4479"/><line style="stroke:#304D6D;stroke-width:1.0416666666666667;" x1="104.875" x2="343.0352" y1="479.6195" y2="479.6195"/><text fill="#FFFFFF" font-family="Verdana" font-size="11.4583" lengthAdjust="spacing" textLength="54.3208" x="196.7947" y="466.5005">RUNNING</text><text fill="#FFFFFF" font-family="Verdana" font-size="11.4583" lengthAdjust="spacing" textLength="115.2995" x="115.2917" y="500.672">Conveyer is running</text><text fill="#FFFFFF" font-family="Verdana" font-size="11.4583" lengthAdjust="spacing" textLength="206.9102" x="115.2917" y="514.0102">Calculates total runtime from speed</text><text fill="#FFFFFF" font-family="Verdana" font-size="11.4583" lengthAdjust="spacing" textLength="181.9122" x="115.2917" y="527.3484">Calculates progress from speed</text></g><g id="FAULT"><rect fill="url(#g1fq4rjfdoscuq0)" height="81.6813" rx="4.1667" ry="4.1667" style="stroke:#304D6D;stroke-width:1.0416666666666667;" width="153.8396" x="461.625" y="217.6146"/><line style="stroke:#304D6D;stroke-width:1.0416666666666667;" x1="461.625" x2="615.4646" y1="251.7861" y2="251.7861"/><text fill="#FFFFFF" font-family="Verdana" font-size="11.4583" lengthAdjust="spacing" textLength="36.1989" x="520.4453" y="238.6671">FAULT</text><text fill="#FFFFFF" font-family="Verdana" font-size="11.4583" lengthAdjust="spacing" textLength="122.5896" x="472.0417" y="272.8387">System in fault mode</text><text fill="#FFFFFF" font-family="Verdana" font-size="11.4583" lengthAdjust="spacing" textLength="90.5757" x="472.0417" y="286.1769">Alarm triggered</text></g><!--link *start* to OFF--><g id="link_*start*_OFF"><path d="M37.9479,51.875 C62.7813,51.875 118.7917,51.875 164.4792,51.875 " fill="none" id="*start*-to-OFF" style="stroke:#446E9B;stroke-width:3.125;"/><polygon fill="#446E9B" points="170.7292,51.875,161.3542,47.7083,165.5208,51.875,161.3542,56.0417,170.7292,51.875" style="stroke:#446E9B;stroke-width:3.125;"/><text fill="#FFFFFF" font-family="Verdana" font-size="12.5" lengthAdjust="spacing" textLength="85.8093" x="61.6458" y="40.5611">PLC Power-up</text></g><!--link OFF to IDLE--><g id="link_OFF_IDLE"><path d="M223.9583,86.2292 C223.9583,110.1146 223.9583,137.1354 223.9583,168 " fill="none" id="OFF-to-IDLE" style="stroke:#446E9B;stroke-width:3.125;"/><polygon fill="#446E9B" points="223.9583,174.25,228.125,164.875,223.9583,169.0417,219.7917,164.875,223.9583,174.25" style="stroke:#446E9B;stroke-width:3.125;"/><text fill="#FFFFFF" font-family="Verdana" font-size="12.5" lengthAdjust="spacing" textLength="129.3701" x="230.2083" y="135.1549">Start Button Pressed</text></g><!--link IDLE to RUNNING--><g id="link_IDLE_RUNNING"><path d="M149.0521,342.75 C143.1354,352.625 138.0313,362.9792 134.375,373.5729 C128.4792,390.6354 126.875,397.7708 134.375,414.1979 C139.5938,425.625 143.0665,431.5232 151.9415,440.7211 " fill="none" id="IDLE-to-RUNNING" style="stroke:#446E9B;stroke-width:3.125;"/><polygon fill="#446E9B" points="156.2813,445.2188,152.7701,435.5791,152.6648,441.4707,146.7732,441.3654,156.2813,445.2188" style="stroke:#446E9B;stroke-width:3.125;"/><text fill="#FFFFFF" font-family="Verdana" font-size="12.5" lengthAdjust="spacing" textLength="115.7104" x="142.1967" y="391.4257">Object Detected &amp;</text><text fill="#FFFFFF" font-family="Verdana" font-size="12.5" lengthAdjust="spacing" textLength="118.8538" x="140.625" y="405.9765">Weightime expired</text></g><!--link RUNNING to IDLE--><g id="link_RUNNING_IDLE"><path d="M256.8125,445.2083 C262.1667,435.3854 266.9063,424.7813 269.7917,414.1979 C276.1354,390.9583 274.8346,371.8623 267.9284,348.7998 " fill="none" id="RUNNING-to-IDLE" style="stroke:#446E9B;stroke-width:3.125;"/><polygon fill="#446E9B" points="266.1354,342.8125,264.8333,352.9888,267.6295,347.8019,272.8164,350.5982,266.1354,342.8125" style="stroke:#446E9B;stroke-width:3.125;"/><text fill="#FFFFFF" font-family="Verdana" font-size="12.5" lengthAdjust="spacing" textLength="105.1758" x="279.4792" y="391.4257">Object Transport</text><text fill="#FFFFFF" font-family="Verdana" font-size="12.5" lengthAdjust="spacing" textLength="60.2417" x="301.9462" y="405.9765">Complete</text></g><!--link IDLE to FAULT--><g id="link_IDLE_FAULT"><path d="M322.5313,295.7708 C356.0417,304.1354 393.7604,308.8229 428.3229,302.2083 C439.25,300.125 444.5359,298.9655 455.4421,295.2884 " fill="none" id="IDLE-to-FAULT" style="stroke:#446E9B;stroke-width:3.125;"/><polygon fill="#446E9B" points="461.3646,293.2917,451.1497,292.3385,456.4292,294.9556,453.8121,300.2351,461.3646,293.2917" style="stroke:#446E9B;stroke-width:3.125;"/><text fill="#FFFFFF" font-family="Verdana" font-size="12.5" lengthAdjust="spacing" textLength="36.9995" x="373.4421" y="279.4361">Alarm</text><text fill="#FFFFFF" font-family="Verdana" font-size="12.5" lengthAdjust="spacing" textLength="60.5713" x="361.6563" y="293.9869">Triggered</text></g><!--link FAULT to IDLE--><g id="link_FAULT_IDLE"><path d="M461.1667,258.4583 C419.375,258.4583 373.5729,258.4583 328.8854,258.4583 " fill="none" id="FAULT-to-IDLE" style="stroke:#446E9B;stroke-width:3.125;"/><polygon fill="#446E9B" points="322.6354,258.4583,332.0104,262.625,327.8438,258.4583,332.0104,254.2917,322.6354,258.4583" style="stroke:#446E9B;stroke-width:3.125;"/><text fill="#FFFFFF" font-family="Verdana" font-size="12.5" lengthAdjust="spacing" textLength="36.9995" x="373.609" y="232.5611">Alarm</text><text fill="#FFFFFF" font-family="Verdana" font-size="12.5" lengthAdjust="spacing" textLength="91.1133" x="346.5521" y="247.1119">Acknowledged</text></g><!--SRC=[RPB1Ri8m38RlVGhliiEali0EIAoC2Ga1Ma4SnWwXTKj6cbIfEuOctdrEIaetBOUcYZ___cFdZWvO8JIro529VNmwICAeEKfT2oigs8liM5hJwZmpobWWApJ35ZL5qTl3EyHMbWUAHx2SJk4HLlC4LkQ4Dcxho1t579fDviySIqbOWgUMo6XOMMmQp2CVSz3hPh6OBLwOM-u_C2EO8F66ETplz1PT5SbEyQkMblC2Fj2_vgszHMDffnDJrOfbhbL6C1rlvcj6nqhOQgVNRBv49zS5RbfNO9mTjJafp4jceeO4eR_eTmIy_AUxTtfk22kG3PYYY2w1zMe3E7IYfsMkS1ZP2abIbr1mhqrtdzptGHfzaqczUD-Whe1R_T4Z949bhN9SMYEx3uZ_kNJRpMXevy3hRI29qPzuHkiCsrPhDlYN2CKQ84D2ESoFgx2cujSL3FoRKLjJkjSmX7jZtM0wMs5weNqQ2j4gWiha-0lmq-Et6gPx-G40]--></g></svg>