<svg xmlns="http://www.w3.org/2000/svg" xmlns:xlink="http://www.w3.org/1999/xlink" contentStyleType="text/css" height="610.4167px" preserveAspectRatio="none" style="width:491px;height:610px;" version="1.1" viewBox="0 0 491 610" width="491.6667px" zoomAndPan="magnify"><defs><linearGradient id="gylor5li5yjjn0" x1="50%" x2="50%" y1="0%" y2="100%"><stop offset="0%" stop-color="#7C9AB9"/><stop offset="100%" stop-color="#304D6D"/></linearGradient></defs><g><ellipse cx="113.7188" cy="58.5521" fill="#3399F3" rx="10.4167" ry="10.4167" style="stroke:#304D6D;stroke-width:1.0416666666666667;"/><g id="ReadInputs"><rect fill="url(#gylor5li5yjjn0)" height="81.6813" rx="4.1667" ry="4.1667" style="stroke:#304D6D;stroke-width:1.0416666666666667;" width="155.2663" x="268.3854" y="17.7083"/><line style="stroke:#304D6D;stroke-width:1.0416666666666667;" x1="268.3854" x2="423.6517" y1="51.8799" y2="51.8799"/><text fill="#FFFFFF" font-family="Verdana" font-size="11.4583" lengthAdjust="spacing" textLength="64.9455" x="313.5458" y="38.7609">ReadInputs</text><text fill="#FFFFFF" font-family="Verdana" font-size="11.4583" lengthAdjust="spacing" textLength="87.2747" x="278.8021" y="72.9324">Set Alarm false</text><text fill="#FFFFFF" font-family="Verdana" font-size="11.4583" lengthAdjust="spacing" textLength="124.0163" x="278.8021" y="86.2707">Set WaitTime = 0 sec</text></g><g id="PRG1_IDLE"><rect fill="url(#gylor5li5yjjn0)" height="81.6813" rx="4.1667" ry="4.1667" style="stroke:#304D6D;stroke-width:1.0416666666666667;" width="142.0288" x="17.7083" y="202.5208"/><line style="stroke:#304D6D;stroke-width:1.0416666666666667;" x1="17.7083" x2="159.7371" y1="236.6924" y2="236.6924"/><text fill="#FFFFFF" font-family="Verdana" font-size="11.4583" lengthAdjust="spacing" textLength="62.5956" x="57.4249" y="223.5734">PRG1_IDLE</text><text fill="#FFFFFF" font-family="Verdana" font-size="11.4583" lengthAdjust="spacing" textLength="84.3765" x="28.125" y="257.7449">Wait for object</text><text fill="#FFFFFF" font-family="Verdana" font-size="11.4583" lengthAdjust="spacing" textLength="110.7788" x="28.125" y="271.0832">Count up idle timer</text></g><g id="ObjectDetected"><rect fill="url(#gylor5li5yjjn0)" height="81.6813" rx="4.1667" ry="4.1667" style="stroke:#304D6D;stroke-width:1.0416666666666667;" width="144.5185" x="119.5833" y="372.7396"/><line style="stroke:#304D6D;stroke-width:1.0416666666666667;" x1="119.5833" x2="264.1019" y1="406.9111" y2="406.9111"/><text fill="#FFFFFF" font-family="Verdana" font-size="11.4583" lengthAdjust="spacing" textLength="89.8483" x="146.9184" y="393.7921">ObjectDetected</text><text fill="#FFFFFF" font-family="Verdana" font-size="11.4583" lengthAdjust="spacing" textLength="88.7461" x="130" y="427.9637">Reset wachttijd</text><text fill="#FFFFFF" font-family="Verdana" font-size="11.4583" lengthAdjust="spacing" textLength="113.2685" x="130" y="441.3019">Alarmstatus = false</text></g><g id="ALARM"><rect fill="url(#gylor5li5yjjn0)" height="55.0049" rx="4.1667" ry="4.1667" style="stroke:#304D6D;stroke-width:1.0416666666666667;" width="71.1583" x="318.7708" y="215.8542"/><line style="stroke:#304D6D;stroke-width:1.0416666666666667;" x1="318.7708" x2="389.9292" y1="250.0257" y2="250.0257"/><text fill="#FFFFFF" font-family="Verdana" font-size="11.4583" lengthAdjust="spacing" textLength="39.9083" x="334.3958" y="236.9067">ALARM</text></g><g id="Outputs"><rect fill="url(#gylor5li5yjjn0)" height="81.6813" rx="4.1667" ry="4.1667" style="stroke:#304D6D;stroke-width:1.0416666666666667;" width="164.9287" x="271.8854" y="517.9688"/><line style="stroke:#304D6D;stroke-width:1.0416666666666667;" x1="271.8854" x2="436.8141" y1="552.1403" y2="552.1403"/><text fill="#FFFFFF" font-family="Verdana" font-size="11.4583" lengthAdjust="spacing" textLength="45.7718" x="331.4639" y="539.0213">Outputs</text><text fill="#FFFFFF" font-family="Verdana" font-size="11.4583" lengthAdjust="spacing" textLength="130.277" x="282.3021" y="573.1929">Write GVL Alarmstatus</text><text fill="#FFFFFF" font-family="Verdana" font-size="11.4583" lengthAdjust="spacing" textLength="133.6787" x="282.3021" y="586.5311">Write GVL Objectstatus</text></g><!--link *start* to ReadInputs--><g id="link_*start*_ReadInputs"><path d="M124.6146,58.5521 C150,58.5521 208.7083,58.5521 261.75,58.5521 " fill="none" id="*start*-to-ReadInputs" style="stroke:#446E9B;stroke-width:3.125;"/><polygon fill="#446E9B" points="268,58.5521,258.625,54.3854,262.7917,58.5521,258.625,62.7187,268,58.5521" style="stroke:#446E9B;stroke-width:3.125;"/><text fill="#FFFFFF" font-family="Verdana" font-size="12.5" lengthAdjust="spacing" textLength="96.7468" x="148.3438" y="47.2382">System Started</text></g><!--link ReadInputs to PRG1_IDLE--><g id="link_ReadInputs_PRG1_IDLE"><path d="M267.8958,99.5417 C251,109.1042 233.5313,119.7187 217.8854,130.6458 C187.0208,152.1979 159.5973,175.6314 135.1598,198.0273 " fill="none" id="ReadInputs-to-PRG1_IDLE" style="stroke:#446E9B;stroke-width:3.125;"/><polygon fill="#446E9B" points="130.5521,202.25,140.2788,198.9877,134.3918,198.731,134.6485,192.8441,130.5521,202.25" style="stroke:#446E9B;stroke-width:3.125;"/><text fill="#FFFFFF" font-family="Verdana" font-size="12.5" lengthAdjust="spacing" textLength="103.54" x="224.1354" y="155.7903">PRG1 in status 1</text></g><!--link PRG1_IDLE to ObjectDetected--><g id="link_PRG1_IDLE_ObjectDetected"><path d="M113.4271,284.6771 C129.6875,311.1979 147.6385,340.464 163.8989,366.9744 " fill="none" id="PRG1_IDLE-to-ObjectDetected" style="stroke:#446E9B;stroke-width:3.125;"/><polygon fill="#446E9B" points="167.1667,372.3021,165.8168,362.1321,164.4435,367.8624,158.7132,366.4891,167.1667,372.3021" style="stroke:#446E9B;stroke-width:3.125;"/><text fill="#FFFFFF" font-family="Verdana" font-size="12.5" lengthAdjust="spacing" textLength="95.1111" x="152.7083" y="333.3007">LS_001 is HIGH</text></g><!--link PRG1_IDLE to ALARM--><g id="link_PRG1_IDLE_ALARM"><path d="M160.25,243.3542 C211.4271,243.3542 271.8854,243.3542 312.2813,243.3542 " fill="none" id="PRG1_IDLE-to-ALARM" style="stroke:#446E9B;stroke-width:3.125;"/><polygon fill="#446E9B" points="318.5313,243.3542,309.1563,239.1875,313.3229,243.3542,309.1563,247.5208,318.5313,243.3542" style="stroke:#446E9B;stroke-width:3.125;"/><text fill="#FFFFFF" font-family="Verdana" font-size="12.5" lengthAdjust="spacing" textLength="110.4187" x="184.0417" y="232.0403">Wait time expires</text></g><!--link ALARM to ReadInputs--><g id="link_ALARM_ReadInputs"><path d="M348.9792,215.4479 C346.5938,202.2083 344.0625,185.9687 342.8854,171.2708 C340.9896,147.5833 341.28,127.2405 342.4571,105.9488 " fill="none" id="ALARM-to-ReadInputs" style="stroke:#446E9B;stroke-width:3.125;"/><polygon fill="#446E9B" points="342.8021,99.7083,338.1243,108.839,342.5146,104.9087,346.4449,109.299,342.8021,99.7083" style="stroke:#446E9B;stroke-width:3.125;"/><text fill="#FFFFFF" font-family="Verdana" font-size="12.5" lengthAdjust="spacing" textLength="36.9995" x="361.9742" y="148.4986">Alarm</text><text fill="#FFFFFF" font-family="Verdana" font-size="12.5" lengthAdjust="spacing" textLength="62.677" x="349.1354" y="163.0494">resetknop</text></g><!--link ALARM to Outputs--><g id="link_ALARM_Outputs"><path d="M354.3438,271.1146 C354.3438,326.1771 354.3438,446.2917 354.3438,511.2917 " fill="none" id="ALARM-to-Outputs" style="stroke:#446E9B;stroke-width:3.125;"/><polygon fill="#446E9B" points="354.3438,517.5417,358.5104,508.1667,354.3438,512.3333,350.1771,508.1667,354.3438,517.5417" style="stroke:#446E9B;stroke-width:3.125;"/></g><!--link ObjectDetected to Outputs--><g id="link_ObjectDetected_Outputs"><path d="M237.5417,454.875 C259.7917,474.4792 281.7781,493.8488 304.0177,513.4321 " fill="none" id="ObjectDetected-to-Outputs" style="stroke:#446E9B;stroke-width:3.125;"/><polygon fill="#446E9B" points="308.7083,517.5625,304.426,508.2398,304.7995,514.1205,298.9187,514.494,308.7083,517.5625" style="stroke:#446E9B;stroke-width:3.125;"/></g><!--link Outputs to ReadInputs--><g id="link_Outputs_ReadInputs"><path d="M374.8333,517.6458 C411.625,439.7292 479.9167,263.8958 422.0521,130.6458 C417.0938,119.2083 413.6072,113.2922 404.8364,104.1463 " fill="none" id="Outputs-to-ReadInputs" style="stroke:#446E9B;stroke-width:3.125;"/><polygon fill="#446E9B" points="400.5104,99.6354,403.9921,109.2858,404.1154,103.3945,410.0067,103.5178,400.5104,99.6354" style="stroke:#446E9B;stroke-width:3.125;"/></g><!--SRC=[TP9RQy9048NVzrTCNmi1VIqeI2qgf5XYQH_Q8ciocjLa4tOds2B-z-v5pH8r3xcTBpDppkI1SYmHTCrJBFWgskU2aEcTa3LNl8GLJtSRLJKoIwkYKa2AImChbCJOr-CFH4fiSeg6a23FPh9kICCJBFuqOGaBueemOu4M6VGjcVINit7yOaXx3qA29awDXZvhHOlELrjCQOnapfWPFbuiUptpXORfR38DwI6Cub7oQfXFBWX865_uMmk5cZ7cjUwSeuAhybiQ16adgxh5vWrPXdK6Y4B9NzsxjYfZnZLXsEV003hv8FdUiEQ5nfkwTV5kJGoW1nfJTZoNlfXsXS6TmaoT_xNPLkM6lzAVpJu9cXf4Lg0BIhN5EuPz2tjShIAngS6UfpcHs6RtGUVqjE31oV6bdq_y40nmYjLtFZyPLyhycZ3vYCDwTna_H02vf8x_]--></g></svg>