<svg xmlns="http://www.w3.org/2000/svg" xmlns:xlink="http://www.w3.org/1999/xlink" contentStyleType="text/css" height="608px" preserveAspectRatio="none" style="width:853px;height:608px;background:#FFFFFF;" version="1.1" viewBox="0 0 853 608" width="853px" zoomAndPan="magnify"><defs/><g><rect fill="none" height="208.7344" style="stroke:#000000;stroke-width:1.5;" width="672.1509" x="173.9668" y="214.8281"/><rect fill="none" height="75.3984" style="stroke:#000000;stroke-width:1.5;" width="652.1509" x="183.9668" y="341.1641"/><line style="stroke:#181818;stroke-width:0.5;stroke-dasharray:5.0,5.0;" x1="39" x2="39" y1="81.2969" y2="527.9609"/><line style="stroke:#181818;stroke-width:0.5;stroke-dasharray:5.0,5.0;" x1="294.9668" x2="294.9668" y1="81.2969" y2="527.9609"/><line style="stroke:#181818;stroke-width:0.5;stroke-dasharray:5.0,5.0;" x1="533.6255" x2="533.6255" y1="81.2969" y2="527.9609"/><line style="stroke:#181818;stroke-width:0.5;stroke-dasharray:5.0,5.0;" x1="761.9438" x2="761.9438" y1="81.2969" y2="527.9609"/><text fill="#000000" font-family="sans-serif" font-size="14" lengthAdjust="spacing" textLength="62.665" x="5" y="77.9951">Operator</text><ellipse cx="39.3325" cy="13.5" fill="#E2E2F0" rx="8" ry="8" style="stroke:#181818;stroke-width:0.5;"/><path d="M39.3325,21.5 L39.3325,48.5 M26.3325,29.5 L52.3325,29.5 M39.3325,48.5 L26.3325,63.5 M39.3325,48.5 L52.3325,63.5 " fill="none" style="stroke:#181818;stroke-width:0.5;"/><text fill="#000000" font-family="sans-serif" font-size="14" lengthAdjust="spacing" textLength="62.665" x="5" y="539.9561">Operator</text><ellipse cx="39.3325" cy="551.7578" fill="#E2E2F0" rx="8" ry="8" style="stroke:#181818;stroke-width:0.5;"/><path d="M39.3325,559.7578 L39.3325,586.7578 M26.3325,567.7578 L52.3325,567.7578 M39.3325,586.7578 L26.3325,601.7578 M39.3325,586.7578 L52.3325,601.7578 " fill="none" style="stroke:#181818;stroke-width:0.5;"/><rect fill="#E2E2F0" height="30.2969" rx="2.5" ry="2.5" style="stroke:#181818;stroke-width:0.5;" width="202.3643" x="193.9668" y="50"/><text fill="#000000" font-family="sans-serif" font-size="14" lengthAdjust="spacing" textLength="188.3643" x="200.9668" y="69.9951">PRG1_Conveyer_Operation</text><rect fill="#E2E2F0" height="30.2969" rx="2.5" ry="2.5" style="stroke:#181818;stroke-width:0.5;" width="202.3643" x="193.9668" y="526.9609"/><text fill="#000000" font-family="sans-serif" font-size="14" lengthAdjust="spacing" textLength="188.3643" x="200.9668" y="546.9561">PRG1_Conveyer_Operation</text><rect fill="#E2E2F0" height="30.2969" rx="2.5" ry="2.5" style="stroke:#181818;stroke-width:0.5;" width="170.707" x="448.6255" y="50"/><text fill="#000000" font-family="sans-serif" font-size="14" lengthAdjust="spacing" textLength="156.707" x="455.6255" y="69.9951">PRG2_Object_Detectie</text><rect fill="#E2E2F0" height="30.2969" rx="2.5" ry="2.5" style="stroke:#181818;stroke-width:0.5;" width="170.707" x="448.6255" y="526.9609"/><text fill="#000000" font-family="sans-serif" font-size="14" lengthAdjust="spacing" textLength="156.707" x="455.6255" y="546.9561">PRG2_Object_Detectie</text><rect fill="#E2E2F0" height="30.2969" rx="2.5" ry="2.5" style="stroke:#181818;stroke-width:0.5;" width="128.1738" x="697.9438" y="50"/><text fill="#000000" font-family="sans-serif" font-size="14" lengthAdjust="spacing" textLength="114.1738" x="704.9438" y="69.9951">Global Variables</text><rect fill="#E2E2F0" height="30.2969" rx="2.5" ry="2.5" style="stroke:#181818;stroke-width:0.5;" width="128.1738" x="697.9438" y="526.9609"/><text fill="#000000" font-family="sans-serif" font-size="14" lengthAdjust="spacing" textLength="114.1738" x="704.9438" y="546.9561">Global Variables</text><polygon fill="#181818" points="283.1489,108.4297,293.1489,112.4297,283.1489,116.4297,287.1489,112.4297" style="stroke:#181818;stroke-width:1.0;"/><line style="stroke:#181818;stroke-width:1.0;" x1="39.3325" x2="289.1489" y1="112.4297" y2="112.4297"/><text fill="#000000" font-family="sans-serif" font-size="13" lengthAdjust="spacing" textLength="132.9771" x="46.3325" y="107.3638">Press KN_001 (start)</text><polygon fill="#181818" points="750.0308,137.5625,760.0308,141.5625,750.0308,145.5625,754.0308,141.5625" style="stroke:#181818;stroke-width:1.0;"/><line style="stroke:#181818;stroke-width:1.0;" x1="295.1489" x2="756.0308" y1="141.5625" y2="141.5625"/><text fill="#000000" font-family="sans-serif" font-size="13" lengthAdjust="spacing" textLength="159.2373" x="302.1489" y="136.4966">Set PRG1_Status to IDLE</text><polygon fill="#181818" points="521.979,166.6953,531.979,170.6953,521.979,174.6953,525.979,170.6953" style="stroke:#181818;stroke-width:1.0;"/><line style="stroke:#181818;stroke-width:1.0;" x1="295.1489" x2="527.979" y1="170.6953" y2="170.6953"/><text fill="#000000" font-family="sans-serif" font-size="13" lengthAdjust="spacing" textLength="214.8301" x="302.1489" y="165.6294">Check Object Detection (LS_001)</text><polygon fill="#181818" points="750.0308,195.8281,760.0308,199.8281,750.0308,203.8281,754.0308,199.8281" style="stroke:#181818;stroke-width:1.0;"/><line style="stroke:#181818;stroke-width:1.0;" x1="533.979" x2="756.0308" y1="199.8281" y2="199.8281"/><text fill="#000000" font-family="sans-serif" font-size="13" lengthAdjust="spacing" textLength="204.0518" x="540.979" y="194.7622">Read LS_001 (object detection)</text><path d="M173.9668,214.8281 L238.4097,214.8281 L238.4097,221.9609 L228.4097,231.9609 L173.9668,231.9609 L173.9668,214.8281 " fill="#EEEEEE" style="stroke:#000000;stroke-width:1.5;"/><rect fill="none" height="208.7344" style="stroke:#000000;stroke-width:1.5;" width="672.1509" x="173.9668" y="214.8281"/><text fill="#000000" font-family="sans-serif" font-size="13" font-weight="bold" lengthAdjust="spacing" textLength="19.4429" x="188.9668" y="227.895">alt</text><text fill="#000000" font-family="sans-serif" font-size="11" font-weight="bold" lengthAdjust="spacing" textLength="109.2856" x="253.4097" y="227.0386">[Object detected]</text><polygon fill="#181818" points="750.0308,249.0938,760.0308,253.0938,750.0308,257.0938,754.0308,253.0938" style="stroke:#181818;stroke-width:1.0;"/><line style="stroke:#181818;stroke-width:1.0;" x1="533.979" x2="756.0308" y1="253.0938" y2="253.0938"/><text fill="#000000" font-family="sans-serif" font-size="13" lengthAdjust="spacing" textLength="102.9082" x="540.979" y="248.0278">Reset Wachttijd</text><polygon fill="#181818" points="306.1489,278.2266,296.1489,282.2266,306.1489,286.2266,302.1489,282.2266" style="stroke:#181818;stroke-width:1.0;"/><line style="stroke:#181818;stroke-width:1.0;" x1="300.1489" x2="532.979" y1="282.2266" y2="282.2266"/><text fill="#000000" font-family="sans-serif" font-size="13" lengthAdjust="spacing" textLength="189.1602" x="312.1489" y="277.1606">Continue conveyor operation</text><line style="stroke:#000000;stroke-width:1.0;stroke-dasharray:2.0,2.0;" x1="173.9668" x2="846.1177" y1="291.2266" y2="291.2266"/><text fill="#000000" font-family="sans-serif" font-size="11" font-weight="bold" lengthAdjust="spacing" textLength="69.0884" x="178.9668" y="301.437">[No object]</text><polygon fill="#181818" points="750.0308,322.1641,760.0308,326.1641,750.0308,330.1641,754.0308,326.1641" style="stroke:#181818;stroke-width:1.0;"/><line style="stroke:#181818;stroke-width:1.0;" x1="533.979" x2="756.0308" y1="326.1641" y2="326.1641"/><text fill="#000000" font-family="sans-serif" font-size="13" lengthAdjust="spacing" textLength="121.3101" x="540.979" y="321.0981">Increase Wachttijd</text><path d="M183.9668,341.1641 L248.4097,341.1641 L248.4097,348.2969 L238.4097,358.2969 L183.9668,358.2969 L183.9668,341.1641 " fill="#EEEEEE" style="stroke:#000000;stroke-width:1.5;"/><rect fill="none" height="75.3984" style="stroke:#000000;stroke-width:1.5;" width="652.1509" x="183.9668" y="341.1641"/><text fill="#000000" font-family="sans-serif" font-size="13" font-weight="bold" lengthAdjust="spacing" textLength="19.4429" x="198.9668" y="354.231">alt</text><text fill="#000000" font-family="sans-serif" font-size="11" font-weight="bold" lengthAdjust="spacing" textLength="181.2905" x="263.4097" y="353.3745">[Wachttijd &gt;= MaxWachttijd]</text><polygon fill="#181818" points="750.0308,375.4297,760.0308,379.4297,750.0308,383.4297,754.0308,379.4297" style="stroke:#181818;stroke-width:1.0;"/><line style="stroke:#181818;stroke-width:1.0;" x1="533.979" x2="756.0308" y1="379.4297" y2="379.4297"/><text fill="#000000" font-family="sans-serif" font-size="13" lengthAdjust="spacing" textLength="161.4019" x="540.979" y="374.3638">Set AlarmStatus to TRUE</text><polygon fill="#181818" points="306.1489,404.5625,296.1489,408.5625,306.1489,412.5625,302.1489,408.5625" style="stroke:#181818;stroke-width:1.0;"/><line style="stroke:#181818;stroke-width:1.0;" x1="300.1489" x2="532.979" y1="408.5625" y2="408.5625"/><text fill="#000000" font-family="sans-serif" font-size="13" lengthAdjust="spacing" textLength="171.0059" x="312.1489" y="403.4966">Set PRG1_Status to FAULT</text><polygon fill="#181818" points="283.1489,447.6953,293.1489,451.6953,283.1489,455.6953,287.1489,451.6953" style="stroke:#181818;stroke-width:1.0;"/><line style="stroke:#181818;stroke-width:1.0;" x1="39.3325" x2="289.1489" y1="451.6953" y2="451.6953"/><text fill="#000000" font-family="sans-serif" font-size="13" lengthAdjust="spacing" textLength="231.8164" x="46.3325" y="446.6294">Press KN_002 (Acknowledge Alarm)</text><polygon fill="#181818" points="750.0308,476.8281,760.0308,480.8281,750.0308,484.8281,754.0308,480.8281" style="stroke:#181818;stroke-width:1.0;"/><line style="stroke:#181818;stroke-width:1.0;" x1="295.1489" x2="756.0308" y1="480.8281" y2="480.8281"/><text fill="#000000" font-family="sans-serif" font-size="13" lengthAdjust="spacing" textLength="120.9355" x="302.1489" y="475.7622">Reset AlarmStatus</text><polygon fill="#181818" points="750.0308,505.9609,760.0308,509.9609,750.0308,513.9609,754.0308,509.9609" style="stroke:#181818;stroke-width:1.0;"/><line style="stroke:#181818;stroke-width:1.0;" x1="295.1489" x2="756.0308" y1="509.9609" y2="509.9609"/><text fill="#000000" font-family="sans-serif" font-size="13" lengthAdjust="spacing" textLength="159.2373" x="302.1489" y="504.895">Set PRG1_Status to IDLE</text><!--SRC=[ZP7BRi8m44Nt_eeHgx2e15aY5Ga1HQWf85vTHeCpAWRNHhRfu-zhnmqqfAeQAOfZdxbpVGUvqmPQynCPzAiMe8NgXvtGEC752PM3rc8vwUP3hTxeaqmU6Q5LMH7E6dIQptS7uYuVaVCVGHMQrj69r3kKi4KZS2V9bjXacp5M6O6xVjcY1mj3riBZBEzqkf1OvtNQB1m5nDVqO4MkPFELGtUsu3HCHzdu0eN-FHZkYHyX-eDlVrf1ags2Sfi5FBreBWaBY4UGw5XKL4LjXj9LKd6N2WR-kT6mtjapyhrpub07ujryjaweCm4lG_RNrbN8ZAGbc6c8pPlgKyKDeMVg3OApomxqx-49F-f4GodaDv1eNg_vhPURSGEEddz9-s6moTObJgfWuVrxZYaa0tvK-brIyKAnzyrCOtO_NFrhv5y0]--></g></svg>