<svg xmlns="http://www.w3.org/2000/svg" xmlns:xlink="http://www.w3.org/1999/xlink" contentStyleType="text/css" height="620.8333px" preserveAspectRatio="none" style="width:615px;height:620px;" version="1.1" viewBox="0 0 615 620" width="615.625px" zoomAndPan="magnify"><defs><linearGradient id="g174vcz9maxmnq0" x1="50%" x2="50%" y1="0%" y2="100%"><stop offset="0%" stop-color="#7C9AB9"/><stop offset="100%" stop-color="#304D6D"/></linearGradient></defs><g><ellipse cx="519.4688" cy="399" fill="#3399F3" rx="10.4167" ry="10.4167" style="stroke:#304D6D;stroke-width:1.0416666666666667;"/><g id="Inputs"><rect fill="url(#g174vcz9maxmnq0)" height="81.6813" rx="4.1667" ry="4.1667" style="stroke:#304D6D;stroke-width:1.0416666666666667;" width="155.2663" x="302.2604" y="528.3854"/><line style="stroke:#304D6D;stroke-width:1.0416666666666667;" x1="302.2604" x2="457.5267" y1="562.557" y2="562.557"/><text fill="#FFFFFF" font-family="Verdana" font-size="11.4583" lengthAdjust="spacing" textLength="35.6394" x="362.0739" y="549.438">Inputs</text><text fill="#FFFFFF" font-family="Verdana" font-size="11.4583" lengthAdjust="spacing" textLength="87.2747" x="312.6771" y="583.6095">Set Alarm false</text><text fill="#FFFFFF" font-family="Verdana" font-size="11.4583" lengthAdjust="spacing" textLength="124.0163" x="312.6771" y="596.9477">Set WaitTime = 0 sec</text></g><g id="PRG1_IDLE"><rect fill="url(#g174vcz9maxmnq0)" height="81.6813" rx="4.1667" ry="4.1667" style="stroke:#304D6D;stroke-width:1.0416666666666667;" width="142.0288" x="251.5833" y="17.7083"/><line style="stroke:#304D6D;stroke-width:1.0416666666666667;" x1="251.5833" x2="393.6121" y1="51.8799" y2="51.8799"/><text fill="#FFFFFF" font-family="Verdana" font-size="11.4583" lengthAdjust="spacing" textLength="62.5956" x="291.2999" y="38.7609">PRG1_IDLE</text><text fill="#FFFFFF" font-family="Verdana" font-size="11.4583" lengthAdjust="spacing" textLength="84.3765" x="262" y="72.9324">Wait for object</text><text fill="#FFFFFF" font-family="Verdana" font-size="11.4583" lengthAdjust="spacing" textLength="110.7788" x="262" y="86.2707">Count up idle timer</text></g><g id="ObjectDetected"><rect fill="url(#g174vcz9maxmnq0)" height="81.6813" rx="4.1667" ry="4.1667" style="stroke:#304D6D;stroke-width:1.0416666666666667;" width="144.5185" x="250.3438" y="187.9375"/><line style="stroke:#304D6D;stroke-width:1.0416666666666667;" x1="250.3438" x2="394.8623" y1="222.109" y2="222.109"/><text fill="#FFFFFF" font-family="Verdana" font-size="11.4583" lengthAdjust="spacing" textLength="89.8483" x="277.6789" y="208.9901">ObjectDetected</text><text fill="#FFFFFF" font-family="Verdana" font-size="11.4583" lengthAdjust="spacing" textLength="88.7461" x="260.7604" y="243.1616">Reset wachttijd</text><text fill="#FFFFFF" font-family="Verdana" font-size="11.4583" lengthAdjust="spacing" textLength="113.2685" x="260.7604" y="256.4998">Alarmstatus = false</text></g><g id="ALARM"><rect fill="url(#g174vcz9maxmnq0)" height="55.0049" rx="4.1667" ry="4.1667" style="stroke:#304D6D;stroke-width:1.0416666666666667;" width="71.1583" x="122.4375" y="201.2708"/><line style="stroke:#304D6D;stroke-width:1.0416666666666667;" x1="122.4375" x2="193.5958" y1="235.4424" y2="235.4424"/><text fill="#FFFFFF" font-family="Verdana" font-size="11.4583" lengthAdjust="spacing" textLength="39.9083" x="138.0625" y="222.3234">ALARM</text></g><g id="Outputs"><rect fill="url(#g174vcz9maxmnq0)" height="81.6813" rx="4.1667" ry="4.1667" style="stroke:#304D6D;stroke-width:1.0416666666666667;" width="152.978" x="172.1458" y="358.1562"/><line style="stroke:#304D6D;stroke-width:1.0416666666666667;" x1="172.1458" x2="325.1238" y1="392.3278" y2="392.3278"/><text fill="#FFFFFF" font-family="Verdana" font-size="11.4583" lengthAdjust="spacing" textLength="45.7718" x="225.7489" y="379.2088">Outputs</text><text fill="#FFFFFF" font-family="Verdana" font-size="11.4583" lengthAdjust="spacing" textLength="118.3263" x="182.5625" y="413.3804">Set GVL Alarmstatus</text><text fill="#FFFFFF" font-family="Verdana" font-size="11.4583" lengthAdjust="spacing" textLength="121.728" x="182.5625" y="426.7186">Set GVL Objectstatus</text></g><!--link *start* to Inputs--><g id="link_*start*_Inputs"><path d="M517.3646,409.4896 C512.875,427.9375 500.9167,469.3958 478.8438,497.1354 C469.7604,508.5521 463.3229,515.1472 451.552,524.2826 " fill="none" id="*start*-to-Inputs" style="stroke:#446E9B;stroke-width:3.125;"/><polygon fill="#446E9B" points="446.6146,528.1146,456.5754,525.6582,450.7291,524.9213,451.4661,519.075,446.6146,528.1146" style="stroke:#446E9B;stroke-width:3.125;"/><text fill="#FFFFFF" font-family="Verdana" font-size="12.5" lengthAdjust="spacing" textLength="96.7468" x="500.5104" y="488.9465">System Started</text></g><!--link Inputs to PRG1_IDLE--><g id="link_Inputs_PRG1_IDLE"><path d="M399.1354,528.1563 C434.9167,447.5208 501.8854,262.0312 430.9271,130.6458 C422.4375,114.9062 413.9205,105.6355 399.108,95.448 " fill="none" id="Inputs-to-PRG1_IDLE" style="stroke:#446E9B;stroke-width:3.125;"/><polygon fill="#446E9B" points="393.9583,91.9062,399.3216,100.6519,398.2497,94.8577,404.0439,93.7858,393.9583,91.9062" style="stroke:#446E9B;stroke-width:3.125;"/><text fill="#FFFFFF" font-family="Verdana" font-size="12.5" lengthAdjust="spacing" textLength="103.54" x="467.1875" y="318.7174">PRG1 in status 1</text></g><!--link PRG1_IDLE to ObjectDetected--><g id="link_PRG1_IDLE_ObjectDetected"><path d="M320.5208,99.7917 C320.0833,109.8646 319.6979,120.6458 319.4688,130.6458 C319.0625,149.3542 319.3297,163.8493 320.0693,181.3389 " fill="none" id="PRG1_IDLE-to-ObjectDetected" style="stroke:#446E9B;stroke-width:3.125;"/><polygon fill="#446E9B" points="320.3333,187.5833,324.1002,178.0407,320.1133,182.3797,315.7743,178.3927,320.3333,187.5833" style="stroke:#446E9B;stroke-width:3.125;"/><text fill="#FFFFFF" font-family="Verdana" font-size="12.5" lengthAdjust="spacing" textLength="95.1111" x="325.7188" y="148.4986">LS_001 is HIGH</text></g><!--link PRG1_IDLE to ALARM--><g id="link_PRG1_IDLE_ALARM"><path d="M251.1042,84.6458 C228.3125,95.6771 204.75,110.75 188.2188,130.6458 C171.6458,150.6042 165.1348,173.485 161.7494,194.61 " fill="none" id="PRG1_IDLE-to-ALARM" style="stroke:#446E9B;stroke-width:3.125;"/><polygon fill="#446E9B" points="160.7604,200.7812,166.3581,192.1837,161.5846,195.6385,158.1297,190.865,160.7604,200.7812" style="stroke:#446E9B;stroke-width:3.125;"/><text fill="#FFFFFF" font-family="Verdana" font-size="12.5" lengthAdjust="spacing" textLength="110.4187" x="194.4688" y="148.4986">Wait time expires</text></g><!--link ObjectDetected to Inputs--><g id="link_ObjectDetected_Inputs"><path d="M329.3958,269.9583 C340.4167,335.0833 361.04,456.8377 372.0608,521.9314 " fill="none" id="ObjectDetected-to-Inputs" style="stroke:#446E9B;stroke-width:3.125;"/><polygon fill="#446E9B" points="373.1042,528.0938,375.6474,518.1547,372.2347,522.9585,367.431,519.5458,373.1042,528.0938" style="stroke:#446E9B;stroke-width:3.125;"/></g><!--link ALARM to Inputs--><g id="link_ALARM_Inputs"><path d="M127.7917,256.7292 C85.0938,298.0729 16.6667,378.8333 58.0104,439.8438 C112.2708,519.8854 219.1194,549.0957 295.7235,560.429 " fill="none" id="ALARM-to-Inputs" style="stroke:#446E9B;stroke-width:3.125;"/><polygon fill="#446E9B" points="301.9063,561.3438,293.242,555.8499,296.754,560.5815,292.0224,564.0935,301.9063,561.3438" style="stroke:#446E9B;stroke-width:3.125;"/><text fill="#FFFFFF" font-family="Verdana" font-size="12.5" lengthAdjust="spacing" textLength="83.5632" x="64.2604" y="403.8319">KN_001 reset</text></g><!--link ALARM to Outputs--><g id="link_ALARM_Outputs"><path d="M172.375,256.4583 C187.0521,283.6875 207.056,320.8001 223.9518,352.1542 " fill="none" id="ALARM-to-Outputs" style="stroke:#446E9B;stroke-width:3.125;"/><polygon fill="#446E9B" points="226.9167,357.6563,226.1374,347.4267,224.4459,353.0712,218.8014,351.3798,226.9167,357.6563" style="stroke:#446E9B;stroke-width:3.125;"/></g><!--link ObjectDetected to Outputs--><g id="link_ObjectDetected_Outputs"><path d="M304.8854,270.0938 C293.2188,296.6146 280.5175,325.4878 268.8508,351.9982 " fill="none" id="ObjectDetected-to-Outputs" style="stroke:#446E9B;stroke-width:3.125;"/><polygon fill="#446E9B" points="266.3333,357.7188,273.9233,350.8162,268.4312,352.9516,266.2959,347.4596,266.3333,357.7188" style="stroke:#446E9B;stroke-width:3.125;"/></g><!--link Outputs to Inputs--><g id="link_Outputs_Inputs"><path d="M280.0729,440.3125 C300.7813,466.8333 323.936,496.5 344.6339,523.0208 " fill="none" id="Outputs-to-Inputs" style="stroke:#446E9B;stroke-width:3.125;"/><polygon fill="#446E9B" points="348.4792,527.9479,345.9959,517.9938,345.2748,523.842,339.4265,523.1208,348.4792,527.9479" style="stroke:#446E9B;stroke-width:3.125;"/></g><!--SRC=[TL7RQi9047tVhvY-5WBnjQ0GQj7Gz8AMzg4KsIHZNSsDtGcsYF_UlIGccfg7JR9pvimvPsveWpc2gdY26O-z_KOGChKJHSKbpo7coUvRbdMH9cLMIY392msMM11ZdxTVu7aJ28kg9WLtiFnLX3aiYKl2b3Nt1lAwc8rMuJHwq2Zp3Q80HPng1IFM5Gtq9TvYGbCaVMAgyT5ovVkwGy4ydCtxw0a4KR1uqfWFBWX8Q2luKmc9YbtGT3ePSqrzuO_FTeJkGshBHafDjkCVhbF9lS_ujN_2blp007e98K6GSPd3ccSA1pNZuytO68CF2XDsREbEjYqXsAEVgarWhLTKMh63-hrU8a5TWKWpj579Zlp2e1jXdi4o5YOYsFDaGoIswNMWTTciUDouFSrp4H-Olca4D36woUsVosJs7lNPhY2SW1x4fdJy0m00]--></g></svg>