<svg xmlns="http://www.w3.org/2000/svg" xmlns:xlink="http://www.w3.org/1999/xlink" contentStyleType="text/css" height="485px" preserveAspectRatio="none" style="width:502px;height:485px;background:#FFFFFF;" version="1.1" viewBox="0 0 502 485" width="502px" zoomAndPan="magnify"><defs/><g><ellipse cx="122.96" cy="16" fill="#222222" rx="10" ry="10" style="stroke:#222222;stroke-width:1.0;"/><g id="OFF"><rect fill="#F1F1F1" height="50.2656" rx="12.5" ry="12.5" style="stroke:#181818;stroke-width:0.5;" width="97.7539" x="74.08" y="103"/><line style="stroke:#181818;stroke-width:0.5;" x1="74.08" x2="171.8339" y1="129.2969" y2="129.2969"/><text fill="#000000" font-family="sans-serif" font-size="14" lengthAdjust="spacing" textLength="27.125" x="109.3945" y="120.9951">OFF</text><text fill="#000000" font-family="sans-serif" font-size="12" lengthAdjust="spacing" textLength="77.7539" x="79.08" y="145.4355">System is off</text></g><g id="IDLE"><rect fill="#F1F1F1" height="64.2344" rx="12.5" ry="12.5" style="stroke:#181818;stroke-width:0.5;" width="187.4082" x="29.25" y="230.26"/><line style="stroke:#181818;stroke-width:0.5;" x1="29.25" x2="216.6582" y1="256.5569" y2="256.5569"/><text fill="#000000" font-family="sans-serif" font-size="14" lengthAdjust="spacing" textLength="31.5547" x="107.1768" y="248.2551">IDLE</text><text fill="#000000" font-family="sans-serif" font-size="12" lengthAdjust="spacing" textLength="83.6309" x="34.25" y="272.6955">System is idle</text><text fill="#000000" font-family="sans-serif" font-size="12" lengthAdjust="spacing" textLength="167.4082" x="34.25" y="286.6643">Waiting for object detection</text></g><g id="RUNNING"><rect fill="#F1F1F1" height="78.2031" rx="12.5" ry="12.5" style="stroke:#181818;stroke-width:0.5;" width="231.9102" x="7" y="401.5"/><line style="stroke:#181818;stroke-width:0.5;" x1="7" x2="238.9102" y1="427.7969" y2="427.7969"/><text fill="#000000" font-family="sans-serif" font-size="14" lengthAdjust="spacing" textLength="66.3701" x="89.77" y="419.4951">RUNNING</text><text fill="#000000" font-family="sans-serif" font-size="12" lengthAdjust="spacing" textLength="120.75" x="12" y="443.9355">Conveyer is running</text><text fill="#000000" font-family="sans-serif" font-size="12" lengthAdjust="spacing" textLength="211.9102" x="12" y="457.9043">Measures total runtime from speed</text><text fill="#000000" font-family="sans-serif" font-size="12" lengthAdjust="spacing" textLength="190.5117" x="12" y="471.873">Calculates progress from speed</text></g><g id="FAULT"><rect fill="#F1F1F1" height="64.2344" rx="12.5" ry="12.5" style="stroke:#181818;stroke-width:0.5;" width="148.3848" x="346.76" y="230.26"/><line style="stroke:#181818;stroke-width:0.5;" x1="346.76" x2="495.1448" y1="256.5569" y2="256.5569"/><text fill="#000000" font-family="sans-serif" font-size="14" lengthAdjust="spacing" textLength="44.2285" x="398.8381" y="248.2551">FAULT</text><text fill="#000000" font-family="sans-serif" font-size="12" lengthAdjust="spacing" textLength="128.3848" x="351.76" y="272.6955">System in fault mode</text><text fill="#000000" font-family="sans-serif" font-size="12" lengthAdjust="spacing" textLength="94.8574" x="351.76" y="286.6643">Alarm triggered</text></g><!--link *start* to OFF--><g id="link_*start*_OFF"><path d="M122.96,26.39 C122.96,43.14 122.96,72.66 122.96,96.73 " fill="none" id="*start*-to-OFF" style="stroke:#181818;stroke-width:1.0;"/><polygon fill="#181818" points="122.96,102.73,126.96,93.73,122.96,97.73,118.96,93.73,122.96,102.73" style="stroke:#181818;stroke-width:1.0;"/><text fill="#000000" font-family="sans-serif" font-size="13" lengthAdjust="spacing" textLength="89.2417" x="123.96" y="69.0669">PLC Power-up</text></g><!--link OFF to IDLE--><g id="link_OFF_IDLE"><path d="M122.96,153.69 C122.96,175.21 122.96,200.59 122.96,223.93 " fill="none" id="OFF-to-IDLE" style="stroke:#181818;stroke-width:1.0;"/><polygon fill="#181818" points="122.96,229.93,126.96,220.93,122.96,224.93,118.96,220.93,122.96,229.93" style="stroke:#181818;stroke-width:1.0;"/><text fill="#000000" font-family="sans-serif" font-size="13" lengthAdjust="spacing" textLength="134.5449" x="123.96" y="196.3269">Start Button Pressed</text></g><!--link IDLE to RUNNING--><g id="link_IDLE_RUNNING"><path d="M69.87,294.88 C60.2,303.22 51.45,313.12 45.96,324.5 C36.87,343.31 37.37,352.45 45.96,371.5 C50.94,382.56 54.4649,388.3098 63.1849,397.0198 " fill="none" id="IDLE-to-RUNNING" style="stroke:#181818;stroke-width:1.0;"/><polygon fill="#181818" points="67.43,401.26,63.8892,392.0696,63.8924,397.7265,58.2356,397.7297,67.43,401.26" style="stroke:#181818;stroke-width:1.0;"/><text fill="#000000" font-family="sans-serif" font-size="13" lengthAdjust="spacing" textLength="106.0693" x="46.96" y="337.5669">Object Detected</text><text fill="#000000" font-family="sans-serif" font-size="13" lengthAdjust="spacing" textLength="89.9272" x="55.031" y="352.6997">and Weighed.</text><text fill="#000000" font-family="sans-serif" font-size="13" lengthAdjust="spacing" textLength="104.1206" x="47.9344" y="367.8325">Calculate speed</text></g><!--link RUNNING to IDLE--><g id="link_RUNNING_IDLE"><path d="M146.65,401.23 C151.32,391.83 155.52,381.57 157.96,371.5 C162.87,351.19 163.33,344.68 157.96,324.5 C155.25,314.33 153.3998,309.3021 148.1698,300.2021 " fill="none" id="RUNNING-to-IDLE" style="stroke:#181818;stroke-width:1.0;"/><polygon fill="#181818" points="145.18,295,146.1966,304.7963,147.6715,299.335,153.1327,300.8099,145.18,295" style="stroke:#181818;stroke-width:1.0;"/><text fill="#000000" font-family="sans-serif" font-size="13" lengthAdjust="spacing" textLength="109.3828" x="162.81" y="345.0669">Object Transport</text><text fill="#000000" font-family="sans-serif" font-size="13" lengthAdjust="spacing" textLength="62.6514" x="186.1757" y="360.1997">Complete</text></g><!--link IDLE to FAULT--><g id="link_IDLE_FAULT"><path d="M216.92,292.46 C247.71,298.88 282.12,302.4 313.71,297.38 C324.45,295.67 329.7933,294.6815 340.6233,291.6415 " fill="none" id="IDLE-to-FAULT" style="stroke:#181818;stroke-width:1.0;"/><polygon fill="#181818" points="346.4,290.02,336.6539,288.6012,341.5861,291.3713,338.8159,296.3035,346.4,290.02" style="stroke:#181818;stroke-width:1.0;"/><text fill="#000000" font-family="sans-serif" font-size="13" lengthAdjust="spacing" textLength="38.4795" x="262.9673" y="278.4469">Alarm</text><text fill="#000000" font-family="sans-serif" font-size="13" lengthAdjust="spacing" textLength="62.9941" x="250.71" y="293.5797">Triggered</text></g><!--link FAULT to IDLE--><g id="link_FAULT_IDLE"><path d="M346.42,262.38 C307.17,262.38 264.63,262.38 222.84,262.38 " fill="none" id="FAULT-to-IDLE" style="stroke:#181818;stroke-width:1.0;"/><polygon fill="#181818" points="216.84,262.38,225.84,266.38,221.84,262.38,225.84,258.38,216.84,262.38" style="stroke:#181818;stroke-width:1.0;"/><text fill="#000000" font-family="sans-serif" font-size="13" lengthAdjust="spacing" textLength="38.4795" x="262.8492" y="240.4469">Alarm</text><text fill="#000000" font-family="sans-serif" font-size="13" lengthAdjust="spacing" textLength="94.7578" x="234.71" y="255.5797">Acknowledged</text></g><!--SRC=[NP71Ri8m38RlVGgV9x47s06fAsD2Ob0D48UnGqRSBbiQLuaxX2RUVKdRb8uUMgd-yZd-_NRt3fF95DRpEJn0limWfnFQILCduLSeBMRB9r_RiB0CZmqp6SWjEeSoQMi1UjsjLelLi-VM7rzuP9WX-m_AWn56mXvL-Odo_c0oeO-D5epWQlI6U73KgJTihJ2k9il-45MrziA-tnJcwMwvzMYgXQqEPcjLMQBrkgvmTVL0UlmsTD8eIyyaZaF_CDzl0lvfNrq2cxDZh40veA98Bf5jRICuPZBGIceSL_P2iJ8b56I1kdbacuWYqsa6TqnWfB-ccP7vmJFQqCCsndZd3V62mZL-7S34GWU8LOLGMAhwY6-CSG4EQajbMEGO7gxL9TbTAiOTvpLGY4OpL2Jn7z363Joiu_87]--></g></svg>