<svg xmlns="http://www.w3.org/2000/svg" xmlns:xlink="http://www.w3.org/1999/xlink" contentStyleType="text/css" height="564.5833px" preserveAspectRatio="none" style="width:627px;height:564px;" version="1.1" viewBox="0 0 627 564" width="627.0833px" zoomAndPan="magnify"><defs><linearGradient id="gg9mjs33dmzb80" x1="50%" x2="50%" y1="0%" y2="100%"><stop offset="0%" stop-color="#7C9AB9"/><stop offset="100%" stop-color="#304D6D"/></linearGradient></defs><g><ellipse cx="27.0833" cy="51.8854" fill="#3399F3" rx="10.4167" ry="10.4167" style="stroke:#304D6D;stroke-width:1.0416666666666667;"/><g id="OFF"><rect fill="url(#gg9mjs33dmzb80)" height="68.3431" rx="4.1667" ry="4.1667" style="stroke:#304D6D;stroke-width:1.0416666666666667;" width="105.4942" x="171.2083" y="17.7083"/><line style="stroke:#304D6D;stroke-width:1.0416666666666667;" x1="171.2083" x2="276.7025" y1="51.8799" y2="51.8799"/><text fill="#FFFFFF" font-family="Verdana" font-size="11.4583" lengthAdjust="spacing" textLength="22.2005" x="212.8552" y="38.7609">OFF</text><text fill="#FFFFFF" font-family="Verdana" font-size="11.4583" lengthAdjust="spacing" textLength="74.2442" x="181.625" y="72.9324">System is off</text></g><path d="M129.9688,174.5937 L317.9453,174.5937 A4.1667,4.1667 0 0 1 322.112,178.7604 L322.112,264.4049 L125.8021,264.4049 L125.8021,178.7604 A4.1667,4.1667 0 0 1 129.9688,174.5937 " fill="url(#gg9mjs33dmzb80)" style="stroke:url(#gg9mjs33dmzb80);stroke-width:1.0416666666666667;"/><path d="M125.8021,264.4049 L322.112,264.4049 L322.112,351.498 A4.1667,4.1667 0 0 1 317.9453,355.6647 L129.9688,355.6647 A4.1667,4.1667 0 0 1 125.8021,351.498 L125.8021,264.4049 " fill="#FFFFFF" style="stroke:#FFFFFF;stroke-width:1.0416666666666667;"/><rect fill="none" height="181.071" rx="4.1667" ry="4.1667" style="stroke:#304D6D;stroke-width:1.0416666666666667;" width="196.3099" x="125.8021" y="174.5937"/><line style="stroke:#304D6D;stroke-width:1.0416666666666667;" x1="125.8021" x2="322.112" y1="264.4049" y2="264.4049"/><line style="stroke:#304D6D;stroke-width:1.0416666666666667;" x1="125.8021" x2="322.112" y1="208.7653" y2="208.7653"/><text fill="#FFFFFF" font-family="Verdana" font-size="11.4583" lengthAdjust="spacing" textLength="25.826" x="211.044" y="195.6463">IDLE</text><text fill="#FFFFFF" font-family="Verdana" font-size="11.4583" lengthAdjust="spacing" textLength="79.8559" x="136.2188" y="224.6095">System is idle</text><text fill="#FFFFFF" font-family="Verdana" font-size="11.4583" lengthAdjust="spacing" textLength="159.8516" x="136.2188" y="237.9477">Waiting for object detection</text><text fill="#FFFFFF" font-family="Verdana" font-size="11.4583" lengthAdjust="spacing" textLength="3.6423" x="136.2188" y="251.2859">&#160;</text><g id="IDLE.Detected"><rect fill="url(#gg9mjs33dmzb80)" height="68.3431" rx="4.1667" ry="4.1667" style="stroke:#304D6D;stroke-width:1.0416666666666667;" width="124.3266" x="138.3021" y="276.9049"/><line style="stroke:#304D6D;stroke-width:1.0416666666666667;" x1="138.3021" x2="262.6287" y1="311.0765" y2="311.0765"/><text fill="#FFFFFF" font-family="Verdana" font-size="11.4583" lengthAdjust="spacing" textLength="52.5304" x="174.2002" y="297.9575">Detected</text><text fill="#FFFFFF" font-family="Verdana" font-size="11.4583" lengthAdjust="spacing" textLength="93.0766" x="148.7188" y="332.129">Calculate Speed</text></g><g id="RUNNING"><rect fill="url(#gg9mjs33dmzb80)" height="95.0195" rx="4.1667" ry="4.1667" style="stroke:#304D6D;stroke-width:1.0416666666666667;" width="233.5948" x="107.1563" y="458.7917"/><line style="stroke:#304D6D;stroke-width:1.0416666666666667;" x1="107.1563" x2="340.751" y1="492.9632" y2="492.9632"/><text fill="#FFFFFF" font-family="Verdana" font-size="11.4583" lengthAdjust="spacing" textLength="54.3208" x="196.7932" y="479.8442">RUNNING</text><text fill="#FFFFFF" font-family="Verdana" font-size="11.4583" lengthAdjust="spacing" textLength="115.2995" x="117.5729" y="514.0158">Conveyer is running</text><text fill="#FFFFFF" font-family="Verdana" font-size="11.4583" lengthAdjust="spacing" textLength="202.3448" x="117.5729" y="527.354">Measures total runtime from speed</text><text fill="#FFFFFF" font-family="Verdana" font-size="11.4583" lengthAdjust="spacing" textLength="181.9122" x="117.5729" y="540.6922">Calculates progress from speed</text></g><g id="FAULT"><rect fill="url(#gg9mjs33dmzb80)" height="81.6813" rx="4.1667" ry="4.1667" style="stroke:#304D6D;stroke-width:1.0416666666666667;" width="153.8396" x="461.625" y="224.2917"/><line style="stroke:#304D6D;stroke-width:1.0416666666666667;" x1="461.625" x2="615.4646" y1="258.4632" y2="258.4632"/><text fill="#FFFFFF" font-family="Verdana" font-size="11.4583" lengthAdjust="spacing" textLength="36.1989" x="520.4453" y="245.3442">FAULT</text><text fill="#FFFFFF" font-family="Verdana" font-size="11.4583" lengthAdjust="spacing" textLength="122.5896" x="472.0417" y="279.5158">System in fault mode</text><text fill="#FFFFFF" font-family="Verdana" font-size="11.4583" lengthAdjust="spacing" textLength="90.5757" x="472.0417" y="292.854">Alarm triggered</text></g><!--link *start* to OFF--><g id="link_*start*_OFF"><path d="M37.9479,51.8854 C62.7813,51.8854 118.7917,51.8854 164.4792,51.8854 " fill="none" id="*start*-to-OFF" style="stroke:#446E9B;stroke-width:3.125;"/><polygon fill="#446E9B" points="170.7292,51.8854,161.3542,47.7187,165.5208,51.8854,161.3542,56.0521,170.7292,51.8854" style="stroke:#446E9B;stroke-width:3.125;"/><text fill="#FFFFFF" font-family="Verdana" font-size="12.5" lengthAdjust="spacing" textLength="85.8093" x="61.6458" y="40.5715">PLC Power-up</text></g><!--link OFF to IDLE--><g id="link_OFF_IDLE"><path d="M223.9583,86.3854 C223.9583,110.1042 223.9583,136.8854 223.9583,168.0417 " fill="none" id="OFF-to-IDLE" style="stroke:#446E9B;stroke-width:3.125;"/><polygon fill="#446E9B" points="223.9583,174.2917,228.125,164.9167,223.9583,169.0833,219.7917,164.9167,223.9583,174.2917" style="stroke:#446E9B;stroke-width:3.125;"/><text fill="#FFFFFF" font-family="Verdana" font-size="12.5" lengthAdjust="spacing" textLength="129.3701" x="230.2083" y="135.1549">Start Button Pressed</text></g><!--link IDLE to RUNNING--><g id="link_IDLE_RUNNING"><path d="M148.2292,356.0625 C142.6458,366.0208 137.8542,376.3854 134.375,386.9167 C128.7083,404.0625 126.875,411.1146 134.375,427.5417 C139.5938,438.9688 143.0665,444.8669 151.9415,454.0648 " fill="none" id="IDLE-to-RUNNING" style="stroke:#446E9B;stroke-width:3.125;"/><polygon fill="#446E9B" points="156.2813,458.5625,152.7701,448.9228,152.6648,454.8144,146.7732,454.7092,156.2813,458.5625" style="stroke:#446E9B;stroke-width:3.125;"/><text fill="#FFFFFF" font-family="Verdana" font-size="12.5" lengthAdjust="spacing" textLength="115.7104" x="142.1967" y="404.7694">Object Detected &amp;</text><text fill="#FFFFFF" font-family="Verdana" font-size="12.5" lengthAdjust="spacing" textLength="118.8538" x="140.625" y="419.3202">Weightime expired</text></g><!--link RUNNING to IDLE--><g id="link_RUNNING_IDLE"><path d="M256.8125,458.5521 C262.1667,448.7292 266.9063,438.125 269.7917,427.5417 C276.1146,404.3646 275.2425,385.396 268.93,362.1565 " fill="none" id="RUNNING-to-IDLE" style="stroke:#446E9B;stroke-width:3.125;"/><polygon fill="#446E9B" points="267.2917,356.125,265.7282,366.2644,268.6569,361.1512,273.7701,364.08,267.2917,356.125" style="stroke:#446E9B;stroke-width:3.125;"/><text fill="#FFFFFF" font-family="Verdana" font-size="12.5" lengthAdjust="spacing" textLength="105.1758" x="279.6979" y="404.7694">Object Transport</text><text fill="#FFFFFF" font-family="Verdana" font-size="12.5" lengthAdjust="spacing" textLength="60.2417" x="302.165" y="419.3202">Complete</text></g><!--link IDLE to FAULT--><g id="link_IDLE_FAULT"><path d="M322.5313,302.4479 C356.0417,310.8125 393.7604,315.4896 428.3229,308.8854 C439.25,306.7917 444.5359,305.6426 455.4421,301.9655 " fill="none" id="IDLE-to-FAULT" style="stroke:#446E9B;stroke-width:3.125;"/><polygon fill="#446E9B" points="461.3646,299.9688,451.1497,299.0156,456.4292,301.6327,453.8121,306.9122,461.3646,299.9688" style="stroke:#446E9B;stroke-width:3.125;"/><text fill="#FFFFFF" font-family="Verdana" font-size="12.5" lengthAdjust="spacing" textLength="36.9995" x="373.4421" y="286.1132">Alarm</text><text fill="#FFFFFF" font-family="Verdana" font-size="12.5" lengthAdjust="spacing" textLength="60.5713" x="361.6563" y="300.664">Triggered</text></g><!--link FAULT to IDLE--><g id="link_FAULT_IDLE"><path d="M461.1667,265.1354 C419.375,265.1354 373.5729,265.1354 328.8854,265.1354 " fill="none" id="FAULT-to-IDLE" style="stroke:#446E9B;stroke-width:3.125;"/><polygon fill="#446E9B" points="322.6354,265.1354,332.0104,269.3021,327.8438,265.1354,332.0104,260.9688,322.6354,265.1354" style="stroke:#446E9B;stroke-width:3.125;"/><text fill="#FFFFFF" font-family="Verdana" font-size="12.5" lengthAdjust="spacing" textLength="36.9995" x="373.609" y="239.2382">Alarm</text><text fill="#FFFFFF" font-family="Verdana" font-size="12.5" lengthAdjust="spacing" textLength="91.1133" x="346.5521" y="253.789">Acknowledged</text></g><!--SRC=[NPB1Ri8m38RlVGhliiEali0EI0p6XCG03H27iKDetPAH9bNYZg69Tv-Jaj8jXpQAlzY__UUE3bWXk5fagCG-FHqaOUAEKjV2YWhs8ZkMrZGwpumo5iWApR15JKdo_l01gPNbWT81B2OJU8JbR0HBSqARDdNYZr8EJSUpPuwjI5Y2fuR8Q5XQT0xp9CGyzBQPpwVp5-OM-q_C2CP8_CCSxdTwYxwAPANuNKlBzoBUot-zjmuIZQMT7fcgLfpcMcK0a-5cjcPqg8IjTdhDualqwTh0BTSL66P7RKuAyvAPn94W38t-9C0hVDg-LsT7M85qO8eYkKGsPEl1SH8TBNE5_SXMI9AwX89dRTf-yZ07QNIV2_jLgD7DgQtZLtVq22EXiaPvRbKZDn6HiBcqlvlUEDMUv9il8wE_y8pMwxQDrgpp7_6AmZLiB90XeJmKF2kigVY9nVAzZ56SWzgQqZ-9Fjp9QjrfHKKBummr5A9H19N9yGyGBEG76os-_080]--></g></svg>