<svg xmlns="http://www.w3.org/2000/svg" xmlns:xlink="http://www.w3.org/1999/xlink" contentStyleType="text/css" height="208px" preserveAspectRatio="none" style="width:497px;height:208px;background:#FFFFFF;" version="1.1" viewBox="0 0 497 208" width="497px" zoomAndPan="magnify"><defs/><g><line style="stroke:#181818;stroke-width:0.5;stroke-dasharray:5.0,5.0;" x1="82" x2="82" y1="36.2969" y2="172.8281"/><line style="stroke:#181818;stroke-width:0.5;stroke-dasharray:5.0,5.0;" x1="339.3525" x2="339.3525" y1="36.2969" y2="172.8281"/><line style="stroke:#181818;stroke-width:0.5;stroke-dasharray:5.0,5.0;" x1="470.2441" x2="470.2441" y1="36.2969" y2="172.8281"/><rect fill="#E2E2F0" height="30.2969" rx="2.5" ry="2.5" style="stroke:#181818;stroke-width:0.5;" width="154.8408" x="5" y="5"/><text fill="#000000" font-family="sans-serif" font-size="14" lengthAdjust="spacing" textLength="140.8408" x="12" y="24.9951">Conveyor Operation</text><rect fill="#E2E2F0" height="30.2969" rx="2.5" ry="2.5" style="stroke:#181818;stroke-width:0.5;" width="154.8408" x="5" y="171.8281"/><text fill="#000000" font-family="sans-serif" font-size="14" lengthAdjust="spacing" textLength="140.8408" x="12" y="191.8232">Conveyor Operation</text><rect fill="#E2E2F0" height="30.2969" rx="2.5" ry="2.5" style="stroke:#181818;stroke-width:0.5;" width="198.8916" x="240.3525" y="5"/><text fill="#000000" font-family="sans-serif" font-size="14" lengthAdjust="spacing" textLength="184.8916" x="247.3525" y="24.9951">Calculate Conveyor Speed</text><rect fill="#E2E2F0" height="30.2969" rx="2.5" ry="2.5" style="stroke:#181818;stroke-width:0.5;" width="198.8916" x="240.3525" y="171.8281"/><text fill="#000000" font-family="sans-serif" font-size="14" lengthAdjust="spacing" textLength="184.8916" x="247.3525" y="191.8232">Calculate Conveyor Speed</text><rect fill="#E2E2F0" height="30.2969" rx="2.5" ry="2.5" style="stroke:#181818;stroke-width:0.5;" width="42.2256" x="449.2441" y="5"/><text fill="#000000" font-family="sans-serif" font-size="14" lengthAdjust="spacing" textLength="28.2256" x="456.2441" y="24.9951">GVL</text><rect fill="#E2E2F0" height="30.2969" rx="2.5" ry="2.5" style="stroke:#181818;stroke-width:0.5;" width="42.2256" x="449.2441" y="171.8281"/><text fill="#000000" font-family="sans-serif" font-size="14" lengthAdjust="spacing" textLength="28.2256" x="456.2441" y="191.8232">GVL</text><polygon fill="#181818" points="458.3569,63.4297,468.3569,67.4297,458.3569,71.4297,462.3569,67.4297" style="stroke:#181818;stroke-width:1.0;"/><line style="stroke:#181818;stroke-width:1.0;" x1="82.4204" x2="464.3569" y1="67.4297" y2="67.4297"/><text fill="#000000" font-family="sans-serif" font-size="13" lengthAdjust="spacing" textLength="155.2065" x="89.4204" y="62.3638">Read Load on Conveyor</text><polygon fill="#181818" points="327.7983,92.5625,337.7983,96.5625,327.7983,100.5625,331.7983,96.5625" style="stroke:#181818;stroke-width:1.0;"/><line style="stroke:#181818;stroke-width:1.0;" x1="82.4204" x2="333.7983" y1="96.5625" y2="96.5625"/><text fill="#000000" font-family="sans-serif" font-size="13" lengthAdjust="spacing" textLength="233.3779" x="89.4204" y="91.4966">Call CalculateConveyorSpeed(Load)</text><polygon fill="#181818" points="93.4204,121.6953,83.4204,125.6953,93.4204,129.6953,89.4204,125.6953" style="stroke:#181818;stroke-width:1.0;"/><line style="stroke:#181818;stroke-width:1.0;stroke-dasharray:2.0,2.0;" x1="87.4204" x2="338.7983" y1="125.6953" y2="125.6953"/><text fill="#000000" font-family="sans-serif" font-size="13" lengthAdjust="spacing" textLength="106.8374" x="99.4204" y="120.6294">Conveyor Speed</text><polygon fill="#181818" points="458.3569,150.8281,468.3569,154.8281,458.3569,158.8281,462.3569,154.8281" style="stroke:#181818;stroke-width:1.0;"/><line style="stroke:#181818;stroke-width:1.0;" x1="82.4204" x2="464.3569" y1="154.8281" y2="154.8281"/><text fill="#000000" font-family="sans-serif" font-size="13" lengthAdjust="spacing" textLength="132.3169" x="89.4204" y="149.7622">Set Conveyor Speed</text><!--SRC=[NOwn2W8n38RtFaMuIOSRN3ku2BeS29wuXrw6Ocb3BtVWszjQhcgNGCBt_ryOerXZ6Rt07UVd0N26xXJyIgyGuSeKKMpmdU8Vyhnuawy5HcSMXq9GOoCJJV-HosDGgXZwOzv0murmWY6aaQgsy1Ug5Wt9uQ2ADlIZsUM2lQfmdvAbGZSFjVgHf27U]--></g></svg>