<svg xmlns="http://www.w3.org/2000/svg" xmlns:xlink="http://www.w3.org/1999/xlink" contentStyleType="text/css" height="538px" preserveAspectRatio="none" style="width:472px;height:538px;background:#FFFFFF;" version="1.1" viewBox="0 0 472 538" width="472px" zoomAndPan="magnify"><defs/><g><ellipse cx="327.96" cy="16" fill="#222222" rx="10" ry="10" style="stroke:#222222;stroke-width:1.0;"/><g id="Inputs"><rect fill="#F1F1F1" height="64.2344" rx="12.5" ry="12.5" style="stroke:#181818;stroke-width:0.5;" width="126.3594" x="264.78" y="103"/><line style="stroke:#181818;stroke-width:0.5;" x1="264.78" x2="391.1394" y1="129.2969" y2="129.2969"/><text fill="#000000" font-family="sans-serif" font-size="14" lengthAdjust="spacing" textLength="43.5449" x="306.1872" y="120.9951">Inputs</text><text fill="#000000" font-family="sans-serif" font-size="12" lengthAdjust="spacing" textLength="81.2813" x="269.78" y="145.4355">Alarm is false</text><text fill="#000000" font-family="sans-serif" font-size="12" lengthAdjust="spacing" textLength="106.3594" x="269.78" y="159.4043">WaitTime = 0 sec</text></g><g id="IDLE"><rect fill="#F1F1F1" height="50.2656" rx="12.5" ry="12.5" style="stroke:#181818;stroke-width:0.5;" width="51.5547" x="297.19" y="244.23"/><line style="stroke:#181818;stroke-width:0.5;" x1="297.19" x2="348.7447" y1="270.5269" y2="270.5269"/><text fill="#000000" font-family="sans-serif" font-size="14" lengthAdjust="spacing" textLength="31.5547" x="307.19" y="262.2251">IDLE</text><text fill="#000000" font-family="sans-serif" font-size="12" lengthAdjust="spacing" textLength="3.8145" x="302.19" y="286.6655">&#160;</text></g><g id="ObjectDetected"><rect fill="#F1F1F1" height="50" rx="12.5" ry="12.5" style="stroke:#181818;stroke-width:0.5;" width="129.7783" x="267.07" y="371.5"/><line style="stroke:#181818;stroke-width:0.5;" x1="267.07" x2="396.8483" y1="397.7969" y2="397.7969"/><text fill="#000000" font-family="sans-serif" font-size="14" lengthAdjust="spacing" textLength="109.7783" x="277.07" y="389.4951">ObjectDetected</text></g><g id="NoObject"><rect fill="#F1F1F1" height="50" rx="12.5" ry="12.5" style="stroke:#181818;stroke-width:0.5;" width="84.6338" x="103.65" y="371.5"/><line style="stroke:#181818;stroke-width:0.5;" x1="103.65" x2="188.2838" y1="397.7969" y2="397.7969"/><text fill="#000000" font-family="sans-serif" font-size="14" lengthAdjust="spacing" textLength="64.6338" x="113.65" y="389.4951">NoObject</text></g><g id="ALARM"><rect fill="#F1F1F1" height="50" rx="12.5" ry="12.5" style="stroke:#181818;stroke-width:0.5;" width="68.7607" x="73.58" y="110.12"/><line style="stroke:#181818;stroke-width:0.5;" x1="73.58" x2="142.3407" y1="136.4169" y2="136.4169"/><text fill="#000000" font-family="sans-serif" font-size="14" lengthAdjust="spacing" textLength="48.7607" x="83.58" y="128.1151">ALARM</text></g><g id="Outputs"><rect fill="#F1F1F1" height="50" rx="12.5" ry="12.5" style="stroke:#181818;stroke-width:0.5;" width="75.9248" x="7" y="482.5"/><line style="stroke:#181818;stroke-width:0.5;" x1="7" x2="82.9248" y1="508.7969" y2="508.7969"/><text fill="#000000" font-family="sans-serif" font-size="14" lengthAdjust="spacing" textLength="55.9248" x="17" y="500.4951">Outputs</text></g><!--link *start* to Inputs--><g id="link_*start*_Inputs"><path d="M327.96,26.19 C327.96,42.42 327.96,70.87 327.96,96.51 " fill="none" id="*start*-to-Inputs" style="stroke:#181818;stroke-width:1.0;"/><polygon fill="#181818" points="327.96,102.51,331.96,93.51,327.96,97.51,323.96,93.51,327.96,102.51" style="stroke:#181818;stroke-width:1.0;"/><text fill="#000000" font-family="sans-serif" font-size="13" lengthAdjust="spacing" textLength="100.6167" x="328.96" y="69.0669">System Started</text></g><!--link Inputs to IDLE--><g id="link_Inputs_IDLE"><path d="M323.07,167.45 C321.79,176.99 320.6,187.52 319.96,197.23 C319.47,204.77 319.75,206.68 319.96,214.23 C320.23,223.93 320.415,228.5905 320.965,237.8705 " fill="none" id="Inputs-to-IDLE" style="stroke:#181818;stroke-width:1.0;"/><polygon fill="#181818" points="321.32,243.86,324.7805,234.6391,321.0242,238.8688,316.7945,235.1124,321.32,243.86" style="stroke:#181818;stroke-width:1.0;"/><text fill="#000000" font-family="sans-serif" font-size="13" lengthAdjust="spacing" textLength="107.6816" x="320.96" y="210.2969">PRG1 in status 1</text></g><!--link IDLE to ObjectDetected--><g id="link_IDLE_ObjectDetected"><path d="M324.72,294.79 C326.3,316.84 328.2008,343.1254 329.7808,365.1554 " fill="none" id="IDLE-to-ObjectDetected" style="stroke:#181818;stroke-width:1.0;"/><polygon fill="#181818" points="330.21,371.14,333.5559,361.8769,329.8523,366.1528,325.5764,362.4492,330.21,371.14" style="stroke:#181818;stroke-width:1.0;"/><text fill="#000000" font-family="sans-serif" font-size="13" lengthAdjust="spacing" textLength="98.9155" x="329" y="337.5669">LS_001 is HIGH</text></g><!--link IDLE to NoObject--><g id="link_IDLE_NoObject"><path d="M296.89,277.24 C270.01,285.27 227.9,300.6 197.96,324.5 C181.96,337.27 171.5938,351.0134 162.3638,366.0834 " fill="none" id="IDLE-to-NoObject" style="stroke:#181818;stroke-width:1.0;"/><polygon fill="#181818" points="159.23,371.2,167.3417,365.6143,161.8415,366.9362,160.5196,361.4359,159.23,371.2" style="stroke:#181818;stroke-width:1.0;"/><text fill="#000000" font-family="sans-serif" font-size="13" lengthAdjust="spacing" textLength="119.7041" x="198.96" y="337.5669">LS_001 stays LOW</text></g><!--link ObjectDetected to Inputs--><g id="link_ObjectDetected_Inputs"><path d="M397.16,373.81 C411.37,365.92 424.63,355.4 432.96,341.5 C465.92,286.5 464.92,252.82 432.96,197.23 C423.55,180.87 413.1229,171.4155 396.7229,162.2155 " fill="none" id="ObjectDetected-to-Inputs" style="stroke:#181818;stroke-width:1.0;"/><polygon fill="#181818" points="391.49,159.28,397.3823,167.1718,395.8507,161.7263,401.2963,160.1947,391.49,159.28" style="stroke:#181818;stroke-width:1.0;"/></g><!--link NoObject to ALARM--><g id="link_NoObject_ALARM"><path d="M142.42,371.35 C135.19,322 119.6697,216.0166 112.4097,166.4566 " fill="none" id="NoObject-to-ALARM" style="stroke:#181818;stroke-width:1.0;"/><polygon fill="#181818" points="111.54,160.52,108.8867,170.0047,112.2647,165.4672,116.8022,168.8452,111.54,160.52" style="stroke:#181818;stroke-width:1.0;"/><text fill="#000000" font-family="sans-serif" font-size="13" lengthAdjust="spacing" textLength="84.0747" x="131.74" y="273.9369">Max Idletime</text></g><!--link ALARM to Inputs--><g id="link_ALARM_Inputs"><path d="M142.82,135.12 C175.41,135.12 218.86,135.12 258.46,135.12 " fill="none" id="ALARM-to-Inputs" style="stroke:#181818;stroke-width:1.0;"/><polygon fill="#181818" points="264.46,135.12,255.46,131.12,259.46,135.12,255.46,139.12,264.46,135.12" style="stroke:#181818;stroke-width:1.0;"/><text fill="#000000" font-family="sans-serif" font-size="13" lengthAdjust="spacing" textLength="86.9058" x="160.56" y="128.1869">KN_001 reset</text></g><!--link ALARM to Outputs--><g id="link_ALARM_Outputs"><path d="M103.83,160.42 C92.41,227.53 61.5458,408.9749 50.1158,476.1949 " fill="none" id="ALARM-to-Outputs" style="stroke:#181818;stroke-width:1.0;"/><polygon fill="#181818" points="49.11,482.11,54.5621,473.9079,49.9482,477.1808,46.6753,472.5668,49.11,482.11" style="stroke:#181818;stroke-width:1.0;"/></g><!--link ObjectDetected to Outputs--><g id="link_ObjectDetected_Outputs"><path d="M267.55,421.96 C210.87,443.49 135.8387,471.9786 88.7887,489.8586 " fill="none" id="ObjectDetected-to-Outputs" style="stroke:#181818;stroke-width:1.0;"/><polygon fill="#181818" points="83.18,491.99,93.0139,492.532,87.8539,490.2138,90.1721,485.0538,83.18,491.99" style="stroke:#181818;stroke-width:1.0;"/></g><!--SRC=[RP3DYi9048Jl_HHzNX3YTK4XuAB1HCK87aHaD2r44fLq1nJntNT-JCQ8SvX3rJSrNRtvsMAlDyJeVAs5yHVJEmkLc8ggX39uwHOPnNyQM2p7VSpFoAAaPko3rGqmtv_e82CIVLEcqJZT1O666IVHUEB1sSMX7j5XTyPuleQF43yRjA-C5iRXCj7l4tN3A2j8yf8GdFfUPpgp-HKnIMERKMkncLz-QopGAn1gaXw0w5F3GbMbwNLK1LF7MgjSLcQO0GR8T81dcwJhsvXcazxw6CDHvdYaRTyndUTwFQ0LNXqwx3y0]--></g></svg>