<svg xmlns="http://www.w3.org/2000/svg" xmlns:xlink="http://www.w3.org/1999/xlink" contentStyleType="text/css" height="413px" preserveAspectRatio="none" style="width:401px;height:413px;background:#FFFFFF;" version="1.1" viewBox="0 0 401 413" width="401px" zoomAndPan="magnify"><defs/><g><ellipse cx="182.12" cy="16" fill="#222222" rx="10" ry="10" style="stroke:#222222;stroke-width:1.0;"/><g id="Idle"><rect fill="#F1F1F1" height="50" rx="12.5" ry="12.5" style="stroke:#181818;stroke-width:0.5;" width="50" x="157.12" y="103"/><line style="stroke:#181818;stroke-width:0.5;" x1="157.12" x2="207.12" y1="129.2969" y2="129.2969"/><text fill="#000000" font-family="sans-serif" font-size="14" lengthAdjust="spacing" textLength="25.5186" x="169.3607" y="120.9951">Idle</text></g><g id="Running"><rect fill="#F1F1F1" height="50" rx="12.5" ry="12.5" style="stroke:#181818;stroke-width:0.5;" width="77.9961" x="143.12" y="230"/><line style="stroke:#181818;stroke-width:0.5;" x1="143.12" x2="221.1161" y1="256.2969" y2="256.2969"/><text fill="#000000" font-family="sans-serif" font-size="14" lengthAdjust="spacing" textLength="57.9961" x="153.12" y="247.9951">Running</text></g><g id="Fault"><rect fill="#F1F1F1" height="50" rx="12.5" ry="12.5" style="stroke:#181818;stroke-width:0.5;" width="54.8838" x="216.67" y="357"/><line style="stroke:#181818;stroke-width:0.5;" x1="216.67" x2="271.5538" y1="383.2969" y2="383.2969"/><text fill="#000000" font-family="sans-serif" font-size="14" lengthAdjust="spacing" textLength="34.8838" x="226.67" y="374.9951">Fault</text></g><!--link *start* to Idle--><g id="link_*start*_Idle"><path d="M182.12,26.38 C182.12,43.11 182.12,72.59 182.12,96.63 " fill="none" id="*start*-to-Idle" style="stroke:#181818;stroke-width:1.0;"/><polygon fill="#181818" points="182.12,102.63,186.12,93.63,182.12,97.63,178.12,93.63,182.12,102.63" style="stroke:#181818;stroke-width:1.0;"/><text fill="#000000" font-family="sans-serif" font-size="13" lengthAdjust="spacing" textLength="100.6167" x="183.12" y="69.0669">System Started</text></g><!--link Idle to Running--><g id="link_Idle_Running"><path d="M156.63,129.98 C122.39,132.83 62.66,143.54 35.12,183 C6,224.72 84.0435,242.0402 136.8335,249.1402 " fill="none" id="Idle-to-Running" style="stroke:#181818;stroke-width:1.0;"/><polygon fill="#181818" points="142.78,249.94,134.3935,244.776,137.8246,249.2735,133.3271,252.7047,142.78,249.94" style="stroke:#181818;stroke-width:1.0;"/><text fill="#000000" font-family="sans-serif" font-size="13" lengthAdjust="spacing" textLength="102.7051" x="36.12" y="196.0669">Start Command</text></g><!--link Running to Idle--><g id="link_Running_Idle"><path d="M180.25,229.69 C179.4,215.98 178.68,198.54 179.12,183 C179.38,173.33 179.5639,168.6894 180.1139,159.4394 " fill="none" id="Running-to-Idle" style="stroke:#181818;stroke-width:1.0;"/><polygon fill="#181818" points="180.47,153.45,175.9429,162.1967,180.1732,158.4412,183.9288,162.6716,180.47,153.45" style="stroke:#181818;stroke-width:1.0;"/><text fill="#000000" font-family="sans-serif" font-size="13" lengthAdjust="spacing" textLength="100.5024" x="180.12" y="196.0669">Stop Command</text></g><!--link Running to Fault--><g id="link_Running_Fault"><path d="M178.64,280.43 C177.69,294.66 178.4,312.57 185.12,327 C191.86,341.48 199.721,350.1472 211.541,359.3772 " fill="none" id="Running-to-Fault" style="stroke:#181818;stroke-width:1.0;"/><polygon fill="#181818" points="216.27,363.07,211.6384,354.3782,212.3292,359.9927,206.7147,360.6835,216.27,363.07" style="stroke:#181818;stroke-width:1.0;"/><text fill="#000000" font-family="sans-serif" font-size="13" lengthAdjust="spacing" textLength="94.9482" x="186.12" y="323.0669">Object Missing</text></g><!--link Fault to Idle--><g id="link_Fault_Idle"><path d="M267.92,356.64 C274.84,347.98 281.51,337.71 285.12,327 C305.53,266.34 318.24,237.76 285.12,183 C268.29,155.19 237.6807,142.5708 212.9807,135.8708 " fill="none" id="Fault-to-Idle" style="stroke:#181818;stroke-width:1.0;"/><polygon fill="#181818" points="207.19,134.3,214.8289,140.5166,212.0156,135.609,216.9233,132.7957,207.19,134.3" style="stroke:#181818;stroke-width:1.0;"/><text fill="#000000" font-family="sans-serif" font-size="13" lengthAdjust="spacing" textLength="86.7725" x="306.47" y="259.5669">Fault Cleared</text></g><!--SRC=[YzQALT3LjLFmJCb9LR1I2AuiBadDLGWkIImgIKtXuW8BW-I3IlFoClFIGKf0SWhE-RcvYNafN31nP3DAyWkmohibbkQK01Nu9sMb9fSe-6OM5mEbkBWWuaWcG0ISSr8JYr9J0000]--></g></svg>