<svg xmlns="http://www.w3.org/2000/svg" xmlns:xlink="http://www.w3.org/1999/xlink" contentStyleType="text/css" height="226px" preserveAspectRatio="none" style="width:196px;height:226px;background:#FFFFFF;" version="1.1" viewBox="0 0 196 226" width="196px" zoomAndPan="magnify"><defs/><g><ellipse cx="86.98" cy="16" fill="#222222" rx="10" ry="10" style="stroke:#222222;stroke-width:1.0;"/><path d="M19.5,103 L154.4654,103 A12.5,12.5 0 0 1 166.9654,115.5 L166.9654,148.2656 L7,148.2656 L7,115.5 A12.5,12.5 0 0 1 19.5,103 " fill="#F1F1F1" style="stroke:#F1F1F1;stroke-width:1.0;"/><rect fill="none" height="117.2656" rx="12.5" ry="12.5" style="stroke:#181818;stroke-width:0.5;" width="159.9654" x="7" y="103"/><line style="stroke:#181818;stroke-width:0.5;" x1="7" x2="166.9654" y1="148.2656" y2="148.2656"/><line style="stroke:#181818;stroke-width:0.5;" x1="7" x2="166.9654" y1="129.2969" y2="129.2969"/><text fill="#000000" font-family="sans-serif" font-size="14" lengthAdjust="spacing" textLength="25.5186" x="74.2234" y="120.9951">Idle</text><text fill="#000000" font-family="sans-serif" font-size="12" lengthAdjust="spacing" textLength="37.2656" x="12" y="140.4355">Idle af</text><g id="Idle.Timer"><rect fill="#F1F1F1" height="50" rx="12.5" ry="12.5" style="stroke:#181818;stroke-width:0.5;" width="60.4482" x="19" y="160.2656"/><line style="stroke:#181818;stroke-width:0.5;" x1="19" x2="79.4482" y1="186.5625" y2="186.5625"/><text fill="#000000" font-family="sans-serif" font-size="14" lengthAdjust="spacing" textLength="40.4482" x="29" y="178.2607">Timer</text></g><g id="Idle.Hello"><rect fill="#F1F1F1" height="50" rx="12.5" ry="12.5" style="stroke:#181818;stroke-width:0.5;" width="55.4854" x="97.48" y="160.2656"/><line style="stroke:#181818;stroke-width:0.5;" x1="97.48" x2="152.9654" y1="186.5625" y2="186.5625"/><text fill="#000000" font-family="sans-serif" font-size="14" lengthAdjust="spacing" textLength="35.4854" x="107.48" y="178.2607">Hello</text></g><!--link Timer to Hello--><g id="link_Timer_Hello"><path d="M79.8,185.2656 C85.6,185.2656 85.39,185.2656 91.19,185.2656 " fill="none" id="Timer-to-Hello" style="stroke:#181818;stroke-width:1.0;"/><polygon fill="#181818" points="97.19,185.2656,88.19,181.2656,92.19,185.2656,88.19,189.2656,97.19,185.2656" style="stroke:#181818;stroke-width:1.0;"/></g><!--link *start* to Idle--><g id="link_*start*_Idle"><path d="M86.98,26.43 C86.98,41.91 86.98,67.88 86.98,96.73 " fill="none" id="*start*-to-Idle" style="stroke:#181818;stroke-width:1.0;"/><polygon fill="#181818" points="86.98,102.73,90.98,93.73,86.98,97.73,82.98,93.73,86.98,102.73" style="stroke:#181818;stroke-width:1.0;"/><text fill="#000000" font-family="sans-serif" font-size="13" lengthAdjust="spacing" textLength="100.6167" x="87.98" y="69.0669">System Started</text></g><!--SRC=[YzQALT3LjLFmJCb9LR1I2AuiBadDLGWkIImgIKtXuW8oIb8XajLS2a00LGUc4jF0GY6PkQb52a0pF59pSlAvQW40]--></g></svg>