<svg xmlns="http://www.w3.org/2000/svg" xmlns:xlink="http://www.w3.org/1999/xlink" contentStyleType="text/css" height="596px" preserveAspectRatio="none" style="width:570px;height:596px;background:#FFFFFF;" version="1.1" viewBox="0 0 570 596" width="570px" zoomAndPan="magnify"><defs/><g><ellipse cx="138.98" cy="16" fill="#222222" rx="10" ry="10" style="stroke:#222222;stroke-width:1.0;"/><g id="OFF"><rect fill="#F1F1F1" height="50.2656" rx="12.5" ry="12.5" style="stroke:#181818;stroke-width:0.5;" width="97.7539" x="90.1" y="103"/><line style="stroke:#181818;stroke-width:0.5;" x1="90.1" x2="187.8539" y1="129.2969" y2="129.2969"/><text fill="#000000" font-family="sans-serif" font-size="14" lengthAdjust="spacing" textLength="27.125" x="125.4145" y="120.9951">OFF</text><text fill="#000000" font-family="sans-serif" font-size="12" lengthAdjust="spacing" textLength="77.7539" x="95.1" y="145.4355">System is off</text></g><g id="IDLE"><rect fill="#F1F1F1" height="64.2344" rx="12.5" ry="12.5" style="stroke:#181818;stroke-width:0.5;" width="187.4082" x="45.27" y="230.27"/><line style="stroke:#181818;stroke-width:0.5;" x1="45.27" x2="232.6782" y1="256.5669" y2="256.5669"/><text fill="#000000" font-family="sans-serif" font-size="14" lengthAdjust="spacing" textLength="31.5547" x="123.1968" y="248.2651">IDLE</text><text fill="#000000" font-family="sans-serif" font-size="12" lengthAdjust="spacing" textLength="83.6309" x="50.27" y="272.7055">System is idle</text><text fill="#000000" font-family="sans-serif" font-size="12" lengthAdjust="spacing" textLength="167.4082" x="50.27" y="286.6743">Waiting for object detection</text></g><g id="RUNNING"><rect fill="#F1F1F1" height="78.2031" rx="12.5" ry="12.5" style="stroke:#181818;stroke-width:0.5;" width="204.2598" x="36.85" y="371.5"/><line style="stroke:#181818;stroke-width:0.5;" x1="36.85" x2="241.1098" y1="397.7969" y2="397.7969"/><text fill="#000000" font-family="sans-serif" font-size="14" lengthAdjust="spacing" textLength="66.3701" x="105.7948" y="389.4951">RUNNING</text><text fill="#000000" font-family="sans-serif" font-size="12" lengthAdjust="spacing" textLength="120.75" x="41.85" y="413.9355">Conveyer is running</text><text fill="#000000" font-family="sans-serif" font-size="12" lengthAdjust="spacing" textLength="174.4043" x="41.85" y="427.9043">Measure runtime from speed</text><text fill="#000000" font-family="sans-serif" font-size="12" lengthAdjust="spacing" textLength="184.2598" x="41.85" y="441.873">Calculate progress from speed</text></g><g id="FAULT"><rect fill="#F1F1F1" height="64.2344" rx="12.5" ry="12.5" style="stroke:#181818;stroke-width:0.5;" width="148.3848" x="64.79" y="526.71"/><line style="stroke:#181818;stroke-width:0.5;" x1="64.79" x2="213.1748" y1="553.0069" y2="553.0069"/><text fill="#000000" font-family="sans-serif" font-size="14" lengthAdjust="spacing" textLength="44.2285" x="116.8681" y="544.7051">FAULT</text><text fill="#000000" font-family="sans-serif" font-size="12" lengthAdjust="spacing" textLength="128.3848" x="69.79" y="569.1455">System in fault mode</text><text fill="#000000" font-family="sans-serif" font-size="12" lengthAdjust="spacing" textLength="94.8574" x="69.79" y="583.1143">Alarm triggered</text></g><!--link *start* to OFF--><g id="link_*start*_OFF"><path d="M138.98,26.39 C138.98,43.14 138.98,72.67 138.98,96.73 " fill="none" id="*start*-to-OFF" style="stroke:#181818;stroke-width:1.0;"/><polygon fill="#181818" points="138.98,102.73,142.98,93.73,138.98,97.73,134.98,93.73,138.98,102.73" style="stroke:#181818;stroke-width:1.0;"/><text fill="#000000" font-family="sans-serif" font-size="13" lengthAdjust="spacing" textLength="89.2417" x="139.98" y="69.0669">PLC Power-up</text></g><!--link OFF to IDLE--><g id="link_OFF_IDLE"><path d="M138.98,153.7 C138.98,175.21 138.98,200.6 138.98,223.94 " fill="none" id="OFF-to-IDLE" style="stroke:#181818;stroke-width:1.0;"/><polygon fill="#181818" points="138.98,229.94,142.98,220.94,138.98,224.94,134.98,220.94,138.98,229.94" style="stroke:#181818;stroke-width:1.0;"/><text fill="#000000" font-family="sans-serif" font-size="13" lengthAdjust="spacing" textLength="134.5449" x="139.98" y="196.3369">Start Button Pressed</text></g><!--link IDLE to RUNNING--><g id="link_IDLE_RUNNING"><path d="M47.81,294.85 C35.95,302.73 25.38,312.48 17.98,324.5 C6,343.97 11.9794,356.8743 31.3894,369.7443 " fill="none" id="IDLE-to-RUNNING" style="stroke:#181818;stroke-width:1.0;"/><polygon fill="#181818" points="36.39,373.06,31.0996,364.7527,32.2228,370.2969,26.6786,371.4202,36.39,373.06" style="stroke:#181818;stroke-width:1.0;"/><text fill="#000000" font-family="sans-serif" font-size="13" lengthAdjust="spacing" textLength="195.9966" x="18.98" y="337.5669">Object Detected and Weighed</text></g><!--link RUNNING to IDLE--><g id="link_RUNNING_IDLE"><path d="M204.69,371.03 C218.88,357.6 227.43,341.59 218.98,324.5 C213.32,313.07 208.9883,307.0344 199.0983,298.7444 " fill="none" id="RUNNING-to-IDLE" style="stroke:#181818;stroke-width:1.0;"/><polygon fill="#181818" points="194.5,294.89,198.8278,303.737,198.3319,298.102,203.967,297.606,194.5,294.89" style="stroke:#181818;stroke-width:1.0;"/><text fill="#000000" font-family="sans-serif" font-size="13" lengthAdjust="spacing" textLength="176.1665" x="223.33" y="337.5669">Object Transport Complete</text></g><!--link RUNNING to FAULT--><g id="link_RUNNING_FAULT"><path d="M138.98,450.02 C138.98,473.88 138.98,498.16 138.98,520.55 " fill="none" id="RUNNING-to-FAULT" style="stroke:#181818;stroke-width:1.0;"/><polygon fill="#181818" points="138.98,526.55,142.98,517.55,138.98,521.55,134.98,517.55,138.98,526.55" style="stroke:#181818;stroke-width:1.0;"/><text fill="#000000" font-family="sans-serif" font-size="13" lengthAdjust="spacing" textLength="105.606" x="139.98" y="492.7769">Alarm Triggered</text></g><!--link FAULT to IDLE--><g id="link_FAULT_IDLE"><path d="M213.53,531.67 C315.31,491.93 477.59,411.71 407.98,324.5 C386.13,297.13 307.402,281.8476 238.812,273.1176 " fill="none" id="FAULT-to-IDLE" style="stroke:#181818;stroke-width:1.0;"/><polygon fill="#181818" points="232.86,272.36,241.2829,277.4643,237.82,272.9913,242.293,269.5283,232.86,272.36" style="stroke:#181818;stroke-width:1.0;"/><text fill="#000000" font-family="sans-serif" font-size="13" lengthAdjust="spacing" textLength="137.3696" x="425.57" y="415.1669">Alarm Acknowledged</text></g><!--SRC=[NP7DRi8m48JlUOezLyeBz529GgcG-5C1SK0SNBn9NHnlP6-AKCMxTnqt4F31bZoVnvxnxcaFUVu2Y_4Odc4v7SAIJkZpfixYLfGce-cRQ2jMdk6rOIO7IuyXeCvQBK8Vc_byCdyNRl7vZGU64R8ig44v3LiqvPVW7TMp_SVNNhbGazmmfAgsSlWE7WysqxNG0wjy9R0fI_HYcFRpdICvVzpVR1CuE1mTdIpgKjWii69ia_vc8AETKl3LEJ1MO09GKMINZctDUd1NnPKssc9VsIh3nfLGa0TAoNHRX25ti-sIzPnl_Gt9_U0PVRJtZNDYzq3CK8N6OrJPL0Y5fmf2ZPBnmKhPGsFZZRMdCdvPdxq-9vMO7jCLtKLqKAZ6CbIayGv81VFr9ov_]--></g></svg>