<svg xmlns="http://www.w3.org/2000/svg" xmlns:xlink="http://www.w3.org/1999/xlink" contentStyleType="text/css" height="208px" preserveAspectRatio="none" style="width:493px;height:208px;background:#FFFFFF;" version="1.1" viewBox="0 0 493 208" width="493px" zoomAndPan="magnify"><defs/><g><line style="stroke:#181818;stroke-width:0.5;stroke-dasharray:5.0,5.0;" x1="82" x2="82" y1="36.2969" y2="172.8281"/><line style="stroke:#181818;stroke-width:0.5;stroke-dasharray:5.0,5.0;" x1="338.8027" x2="338.8027" y1="36.2969" y2="172.8281"/><line style="stroke:#181818;stroke-width:0.5;stroke-dasharray:5.0,5.0;" x1="465.7939" x2="465.7939" y1="36.2969" y2="172.8281"/><rect fill="#E2E2F0" height="30.2969" rx="2.5" ry="2.5" style="stroke:#181818;stroke-width:0.5;" width="154.8408" x="5" y="5"/><text fill="#000000" font-family="sans-serif" font-size="14" lengthAdjust="spacing" textLength="140.8408" x="12" y="24.9951">Conveyor Operation</text><rect fill="#E2E2F0" height="30.2969" rx="2.5" ry="2.5" style="stroke:#181818;stroke-width:0.5;" width="154.8408" x="5" y="171.8281"/><text fill="#000000" font-family="sans-serif" font-size="14" lengthAdjust="spacing" textLength="140.8408" x="12" y="191.8232">Conveyor Operation</text><rect fill="#E2E2F0" height="30.2969" rx="2.5" ry="2.5" style="stroke:#181818;stroke-width:0.5;" width="189.9912" x="244.8027" y="5"/><text fill="#000000" font-family="sans-serif" font-size="14" lengthAdjust="spacing" textLength="175.9912" x="251.8027" y="24.9951">CalculateConveyorSpeed</text><rect fill="#E2E2F0" height="30.2969" rx="2.5" ry="2.5" style="stroke:#181818;stroke-width:0.5;" width="189.9912" x="244.8027" y="171.8281"/><text fill="#000000" font-family="sans-serif" font-size="14" lengthAdjust="spacing" textLength="175.9912" x="251.8027" y="191.8232">CalculateConveyorSpeed</text><rect fill="#E2E2F0" height="30.2969" rx="2.5" ry="2.5" style="stroke:#181818;stroke-width:0.5;" width="42.2256" x="444.7939" y="5"/><text fill="#000000" font-family="sans-serif" font-size="14" lengthAdjust="spacing" textLength="28.2256" x="451.7939" y="24.9951">GVL</text><rect fill="#E2E2F0" height="30.2969" rx="2.5" ry="2.5" style="stroke:#181818;stroke-width:0.5;" width="42.2256" x="444.7939" y="171.8281"/><text fill="#000000" font-family="sans-serif" font-size="14" lengthAdjust="spacing" textLength="28.2256" x="451.7939" y="191.8232">GVL</text><polygon fill="#181818" points="453.9067,63.4297,463.9067,67.4297,453.9067,71.4297,457.9067,67.4297" style="stroke:#181818;stroke-width:1.0;"/><line style="stroke:#181818;stroke-width:1.0;" x1="82.4204" x2="459.9067" y1="67.4297" y2="67.4297"/><text fill="#000000" font-family="sans-serif" font-size="13" lengthAdjust="spacing" textLength="155.2065" x="89.4204" y="62.3638">Read Load on Conveyor</text><polygon fill="#181818" points="327.7983,92.5625,337.7983,96.5625,327.7983,100.5625,331.7983,96.5625" style="stroke:#181818;stroke-width:1.0;"/><line style="stroke:#181818;stroke-width:1.0;" x1="82.4204" x2="333.7983" y1="96.5625" y2="96.5625"/><text fill="#000000" font-family="sans-serif" font-size="13" lengthAdjust="spacing" textLength="233.3779" x="89.4204" y="91.4966">Call CalculateConveyorSpeed(Load)</text><polygon fill="#181818" points="93.4204,121.6953,83.4204,125.6953,93.4204,129.6953,89.4204,125.6953" style="stroke:#181818;stroke-width:1.0;"/><line style="stroke:#181818;stroke-width:1.0;stroke-dasharray:2.0,2.0;" x1="87.4204" x2="338.7983" y1="125.6953" y2="125.6953"/><text fill="#000000" font-family="sans-serif" font-size="13" lengthAdjust="spacing" textLength="106.8374" x="99.4204" y="120.6294">Conveyor Speed</text><polygon fill="#181818" points="453.9067,150.8281,463.9067,154.8281,453.9067,158.8281,457.9067,154.8281" style="stroke:#181818;stroke-width:1.0;"/><line style="stroke:#181818;stroke-width:1.0;" x1="82.4204" x2="459.9067" y1="154.8281" y2="154.8281"/><text fill="#000000" font-family="sans-serif" font-size="13" lengthAdjust="spacing" textLength="132.3169" x="89.4204" y="149.7622">Set Conveyor Speed</text><!--SRC=[AqWiAibCpYn8p2jH24aipZPKI2nMK7BEpojBhSmlKl0lI2rABCdCprFYAa1IwLQQbmmIXIXEp4akpKaiIONf2Yv8JKr1rU0UviF51J5Vrmx4Kx1I24fDJ57moGSIG8DWUX6Au7POAG1jo570Req6o01DBhXYNQ1EY15MS3CLm2hHhGzEBK5J0G00]--></g></svg>